<?xml version="1.0" encoding="UTF-8" standalone="no"?>
<svg
   xmlns:dc="http://purl.org/dc/elements/1.1/"
   xmlns:cc="http://creativecommons.org/ns#"
   xmlns:rdf="http://www.w3.org/1999/02/22-rdf-syntax-ns#"
   xmlns:svg="http://www.w3.org/2000/svg"
   xmlns="http://www.w3.org/2000/svg"
   xmlns:sodipodi="http://sodipodi.sourceforge.net/DTD/sodipodi-0.dtd"
   xmlns:inkscape="http://www.inkscape.org/namespaces/inkscape"
   sodipodi:docname="rbi-logo-text.svg"
   inkscape:version="1.0 (4035a4fb49, 2020-05-01)"
   id="svg9904"
   version="1.1"
   viewBox="0 0 49.999882 23.167295"
   height="23.167295mm"
   width="49.999882mm">
  <defs
     id="defs9898" />
  <sodipodi:namedview
     inkscape:window-maximized="1"
     inkscape:window-y="-8"
     inkscape:window-x="-8"
     inkscape:window-height="987"
     inkscape:window-width="1680"
     fit-margin-bottom="0"
     fit-margin-right="0"
     fit-margin-left="0"
     fit-margin-top="0"
     showgrid="false"
     inkscape:document-rotation="0"
     inkscape:current-layer="layer1"
     inkscape:document-units="mm"
     inkscape:cy="88.740826"
     inkscape:cx="94.970173"
     inkscape:zoom="2.8"
     inkscape:pageshadow="2"
     inkscape:pageopacity="0"
     borderopacity="1.0"
     bordercolor="#666666"
     pagecolor="#878787"
     id="base" />
  <metadata
     id="metadata9901">
    <rdf:RDF>
      <cc:Work
         rdf:about="">
        <dc:format>image/svg+xml</dc:format>
        <dc:type
           rdf:resource="http://purl.org/dc/dcmitype/StillImage" />
        <dc:title></dc:title>
      </cc:Work>
    </rdf:RDF>
  </metadata>
  <g
     id="layer1"
     inkscape:groupmode="layer"
     inkscape:label="Layer 1">
    <g
       style="fill:#ffffff;fill-opacity:1"
       transform="matrix(1.0794613,0,0,1.0794613,-123.82413,-49.753759)"
       id="g5716">
      <path
         id="path5706"
         style="font-style:normal;font-variant:normal;font-weight:normal;font-stretch:normal;font-size:7.02398px;line-height:1.25;font-family:'Heidy Indigo';-inkscape-font-specification:'Heidy Indigo';text-align:start;letter-spacing:0px;word-spacing:0px;text-anchor:start;fill:#ffffff;fill-opacity:1;stroke:none;stroke-width:0.0632952px;stroke-linecap:butt;stroke-linejoin:miter;stroke-opacity:1"
         d="m 131.31783,54.11481 c 0.0234,0.04683 0.0421,0.08429 0.0562,0.112383 0.0187,0.02809 0.0398,0.05619 0.0632,0.08429 0.0936,0.135797 0.19667,0.266911 0.30905,0.393343 0.11707,0.121749 0.23647,0.246194 0.35822,0.358223 0.22477,0.201651 0.46359,0.380897 0.71645,0.537738 0.25287,0.161322 0.51275,0.313681 0.77966,0.457078 0.0609,0.03137 0.12174,0.05826 0.18263,0.08066 0.0609,0.0224 0.12408,0.04705 0.18964,0.07393 0.0375,0.01344 0.0749,0.03361 0.11239,0.0605 0.0141,0.009 0.0211,0.0224 0.0211,0.04033 0,0.0224 -0.007,0.03809 -0.0211,0.04705 -0.0375,0.02688 -0.0679,0.04257 -0.0913,0.04706 -0.15453,0.04481 -0.3114,0.07393 -0.47061,0.08738 -0.15921,0.01792 -0.32077,0.0157 -0.48466,-0.0067 -0.0609,-0.009 -0.1194,-0.02689 -0.1756,-0.05377 -0.0515,-0.0224 -0.10304,-0.05153 -0.15452,-0.08738 -0.1077,-0.06274 -0.20838,-0.132197 -0.30203,-0.208373 -0.089,-0.0717 -0.1756,-0.150119 -0.25989,-0.235262 -0.16857,-0.165802 -0.33247,-0.333845 -0.49168,-0.504129 -0.15453,-0.170284 -0.29969,-0.354816 -0.43549,-0.560853 -0.009,-0.02341 -0.0234,-0.04448 -0.0421,-0.06321 -0.0141,-0.01873 -0.0328,-0.04215 -0.0562,-0.07024 l -0.0632,0.126431 -0.16857,0.554895 c -0.0141,0.03746 -0.0281,0.07258 -0.0422,0.10536 -0.009,0.03746 -0.0234,0.07492 -0.0421,0.112383 -0.0141,0.02809 -0.0351,0.04448 -0.0632,0.04917 -0.0281,0.0047 -0.0562,-1.7e-5 -0.0843,-0.01405 -0.1077,-0.06556 -0.1873,-0.159213 -0.23881,-0.280959 -0.0515,-0.121749 -0.0609,-0.245839 -0.0281,-0.372271 0.0375,-0.145162 0.0749,-0.290324 0.11239,-0.435487 0.0421,-0.145162 0.0866,-0.290324 0.13345,-0.435486 0.0375,-0.107701 0.0281,-0.208379 -0.0281,-0.302032 -0.0983,-0.154527 -0.15687,-0.313737 -0.1756,-0.47763 -0.009,-0.03746 -0.014,-0.07258 -0.014,-0.10536 0.005,-0.03746 0.0164,-0.07258 0.0351,-0.10536 0.0234,-0.03746 0.0562,-0.06321 0.0983,-0.07726 0.0234,-0.0094 0.0421,-0.0047 0.0562,0.01405 0.0141,0.01405 0.0258,0.03278 0.0351,0.05619 l 0.0983,0.189648 c 0.0141,0.02809 0.0305,0.05619 0.0492,0.08429 0.0234,0.02341 0.0468,0.05151 0.0702,0.08429 0.0141,-0.02341 0.0258,-0.04214 0.0351,-0.05619 0.0141,-0.01405 0.0234,-0.02809 0.0281,-0.04214 0.17325,-0.412074 0.36992,-0.805417 0.59001,-1.180029 0.22477,-0.374612 0.46358,-0.744542 0.71645,-1.109789 0.0468,-0.06556 0.096,-0.126434 0.1475,-0.182623 0.0515,-0.06087 0.10304,-0.121748 0.15453,-0.182624 0.0281,-0.03278 0.0655,-0.06556 0.11238,-0.09834 0.0421,-0.03278 0.0772,-0.04683 0.10536,-0.04214 0.0281,0 0.0608,0.01873 0.0983,0.05619 l 0.0913,0.119408 c 0.0468,0.07024 0.0772,0.131114 0.0913,0.182623 0.0187,0.05151 0.0258,0.09833 0.0211,0.14048 -0.005,0.04215 -0.0187,0.08195 -0.0421,0.119408 -0.0234,0.03746 -0.0515,0.0796 -0.0843,0.126431 -0.089,0.121749 -0.17794,0.243498 -0.26691,0.365247 -0.089,0.117067 -0.1756,0.238816 -0.25989,0.365247 -0.16389,0.243498 -0.31374,0.491679 -0.44953,0.744542 -0.1358,0.252863 -0.26457,0.512751 -0.38632,0.779662 -0.0141,0.02341 -0.0258,0.04917 -0.0351,0.07726 -0.009,0.02809 -0.0187,0.05385 -0.0281,0.07726 0.0281,0.02341 0.0562,0.03278 0.0843,0.0281 0.0281,-0.0047 0.0538,-0.01169 0.0773,-0.02107 0.36057,-0.103019 0.69538,-0.266912 1.00443,-0.491679 0.17794,-0.126432 0.34183,-0.262229 0.49168,-0.407391 0.15453,-0.145162 0.29969,-0.304372 0.43549,-0.477631 0.11238,-0.149845 0.20603,-0.304372 0.28096,-0.463582 0.0749,-0.163893 0.13111,-0.339493 0.16857,-0.526799 0.0141,-0.07961 0.0164,-0.154527 0.007,-0.224767 -0.009,-0.07024 -0.0257,-0.142821 -0.0492,-0.217743 -0.1077,-0.187307 -0.24584,-0.323104 -0.41442,-0.407391 -0.16389,-0.08429 -0.34417,-0.131115 -0.54084,-0.14048 -0.19667,-0.0094 -0.40271,0.01405 -0.61811,0.07024 -0.21541,0.05151 -0.42379,0.124088 -0.62514,0.217743 -0.20135,0.08897 -0.391,0.19433 -0.56894,0.316079 -0.17794,0.117067 -0.32544,0.236474 -0.44251,0.358223 -0.089,0.09365 -0.16624,0.191989 -0.23179,0.295008 -0.0655,0.103018 -0.12407,0.21306 -0.1756,0.330127 -0.0609,0.112383 -0.0843,0.22945 -0.0702,0.351199 0,0.05151 0.007,0.09365 0.0211,0.126431 0.0234,0.06556 0.0585,0.110045 0.10536,0.133456 0.0515,0.01873 0.11007,0.0164 0.1756,-0.007 0.12175,-0.06087 0.21072,-0.140478 0.26691,-0.238815 0.0562,-0.103019 0.11473,-0.208379 0.1756,-0.31608 l 0.0702,-0.182623 c 0.009,0.01873 0.0188,0.03278 0.0281,0.04214 0.0141,0.0094 0.0211,0.01873 0.0211,0.0281 0.0141,0.38866 -0.14046,0.686008 -0.46358,0.892045 -0.089,0.05619 -0.17092,0.08429 -0.24584,0.08429 -0.0749,-0.0047 -0.14048,-0.02574 -0.19667,-0.06322 -0.0562,-0.03746 -0.10303,-0.08663 -0.14048,-0.147503 -0.0328,-0.06087 -0.0539,-0.126431 -0.0632,-0.196672 -0.009,-0.05619 -0.014,-0.112385 -0.014,-0.168575 0.005,-0.06087 0.0117,-0.119407 0.0211,-0.1756 0.0281,-0.177941 0.0889,-0.35354 0.18263,-0.526798 0.11707,-0.21072 0.25755,-0.398026 0.42144,-0.561919 0.16857,-0.168575 0.34885,-0.316079 0.54084,-0.442511 0.19199,-0.126431 0.39569,-0.231791 0.61109,-0.316079 0.2154,-0.08897 0.43548,-0.156868 0.66025,-0.203695 0.23413,-0.04683 0.46593,-0.06556 0.69538,-0.05619 0.22945,0.0094 0.45655,0.05151 0.68132,0.126432 0.24818,0.07961 0.44954,0.222426 0.60407,0.428463 0.15921,0.201354 0.24349,0.433145 0.25286,0.695374 0.005,0.252863 -0.0375,0.498702 -0.12643,0.737517 -0.0936,0.252863 -0.22009,0.482314 -0.3793,0.688351 -0.15453,0.201354 -0.33715,0.386319 -0.54787,0.554894 -0.54787,0.449535 -1.17768,0.716446 -1.88945,0.800734 -0.0375,0.0094 -0.0726,0.01639 -0.10536,0.02107 -0.0328,0.0047 -0.0679,0.0094 -0.10536,0.01405 z"
         sodipodi:nodetypes="cccccccsccscccccccccccccccsscsccccccccccccccccccccccccsscccscscscccccccccsccccsccccccccccccscccccssccscccccccscc" />
      <path
         id="path5708"
         style="font-style:normal;font-variant:normal;font-weight:normal;font-stretch:normal;font-size:7.02398px;line-height:1.25;font-family:'Heidy Indigo';-inkscape-font-specification:'Heidy Indigo';text-align:start;letter-spacing:0px;word-spacing:0px;text-anchor:start;fill:#ffffff;fill-opacity:1;stroke:none;stroke-width:0.0632952px;stroke-linecap:butt;stroke-linejoin:miter;stroke-opacity:1"
         d="m 136.67493,53.693371 c 0.009,-0.01873 0.0281,-0.02342 0.0562,-0.01405 0.0234,0.01405 0.0328,0.03044 0.0281,0.04917 0,0.02809 0.002,0.06321 0.007,0.105359 0.005,0.04215 0.002,0.07493 -0.007,0.09834 -0.0983,0.266911 -0.24819,0.517433 -0.44954,0.751566 -0.19667,0.22945 -0.43548,0.419097 -0.71644,0.568942 -0.12175,0.06556 -0.24584,0.06789 -0.37227,0.007 -0.12175,-0.05619 -0.20838,-0.149846 -0.25989,-0.280959 l -0.0492,-0.154527 -0.1475,0.133455 c -0.0515,0.05151 -0.10773,0.100675 -0.16858,0.147504 -0.0562,0.04683 -0.11707,0.08897 -0.18262,0.126431 -0.1077,0.05619 -0.20369,0.07727 -0.28798,0.06322 -0.0843,-0.01405 -0.16858,-0.06556 -0.25287,-0.154527 -0.14984,-0.168576 -0.20369,-0.360565 -0.16155,-0.575967 0.0468,-0.243498 0.12875,-0.479972 0.24584,-0.709422 0.0655,-0.131114 0.13343,-0.259887 0.2037,-0.386319 0.0702,-0.131114 0.13814,-0.259887 0.20369,-0.386319 0.0375,-0.07492 0.0749,-0.135796 0.11238,-0.182623 0.0375,-0.04683 0.0539,-0.114725 0.0492,-0.203695 0,-0.06556 0.0398,-0.110045 0.11941,-0.133456 0.0796,-0.02341 0.15687,-0.0398 0.23179,-0.04917 0.0796,-0.0094 0.15921,-0.0094 0.23882,0 0.0515,0.0047 0.089,0.0234 0.11238,0.05619 0.0234,0.02809 0.0304,0.0679 0.0211,0.119408 -0.009,0.03746 -0.021,0.07258 -0.0351,0.105359 -0.009,0.03278 -0.021,0.06556 -0.0351,0.09834 -0.0655,0.140479 -0.13109,0.266911 -0.19667,0.379295 -0.0655,0.112383 -0.13109,0.238815 -0.19667,0.379295 -0.0749,0.163893 -0.1475,0.327785 -0.21774,0.491678 l -0.21072,0.491679 c -0.0141,0.03278 -0.0258,0.06556 -0.0351,0.09834 -0.005,0.03278 -0.0117,0.0679 -0.0211,0.105359 -0.009,0.02341 -0.002,0.04214 0.0211,0.05619 0.0234,0.01405 0.0445,0.01638 0.0632,0.007 0.0281,-0.01405 0.0562,-0.02809 0.0843,-0.04214 0.0281,-0.01873 0.0538,-0.0398 0.0773,-0.06321 0.11239,-0.107701 0.21775,-0.215402 0.31608,-0.323103 0.10302,-0.112384 0.18239,-0.24575 0.25287,-0.393343 0.18448,-0.38631 0.37151,-0.685709 0.56193,-1.032525 0.0302,-0.05506 0.0538,-0.110044 0.0773,-0.161552 0.0281,-0.05619 0.0421,-0.117068 0.0421,-0.182623 -0.009,-0.05619 0.0164,-0.09366 0.0773,-0.112384 0.0843,-0.02341 0.16857,-0.03746 0.25286,-0.04214 0.089,-0.0047 0.1756,1.7e-5 0.25989,0.01405 0.0749,0.01405 0.10769,0.06321 0.0983,0.147503 -0.009,0.05151 -0.0234,0.09833 -0.0421,0.14048 l -0.16155,0.330127 c -0.12643,0.238815 -0.25052,0.472948 -0.37227,0.702398 -0.12175,0.224767 -0.2435,0.456559 -0.36525,0.695374 -0.0234,0.03746 -0.0445,0.07492 -0.0632,0.112384 -0.0141,0.03278 -0.0234,0.0679 -0.0281,0.10536 -0.005,0.06087 0.0187,0.08663 0.0702,0.07726 0.0515,-0.01405 0.11709,-0.04917 0.19667,-0.105359 0.0796,-0.05619 0.16858,-0.128775 0.26691,-0.217744 0.0983,-0.09365 0.19199,-0.189647 0.28096,-0.287983 0.0936,-0.103018 0.1756,-0.203695 0.24584,-0.302031 0.0749,-0.103019 0.12877,-0.191989 0.16155,-0.266911 z"
         sodipodi:nodetypes="cccscccccccccscccccscsccccccccscccsscccsscccccccccccccsccccc" />
      <path
         id="path5710"
         style="font-style:normal;font-variant:normal;font-weight:normal;font-stretch:normal;font-size:7.02398px;line-height:1.25;font-family:'Heidy Indigo';-inkscape-font-specification:'Heidy Indigo';text-align:start;letter-spacing:0px;word-spacing:0px;text-anchor:start;fill:#ffffff;fill-opacity:1;stroke:none;stroke-width:0.0632952px;stroke-linecap:butt;stroke-linejoin:miter;stroke-opacity:1"
         d="m 138.26498,54.943639 c 0.0702,0.0094 0.15453,-0.02107 0.25287,-0.09131 0.10302,-0.07492 0.2037,-0.163892 0.30203,-0.266911 0.10302,-0.107701 0.19667,-0.220084 0.28096,-0.337151 0.089,-0.117066 0.15218,-0.220084 0.18965,-0.309055 0.0328,-0.03278 0.0656,-0.03511 0.0983,-0.007 0.009,0.0094 0.0187,0.0281 0.0281,0.05619 0.0141,0.02809 0.0187,0.04917 0.014,0.06322 -0.0141,0.09833 -0.0656,0.215402 -0.15452,0.351199 -0.089,0.135797 -0.19433,0.269252 -0.31608,0.400367 -0.11707,0.131114 -0.2435,0.24818 -0.3793,0.351199 -0.13579,0.103018 -0.2552,0.168575 -0.35822,0.196671 -0.0655,0.03278 -0.13811,0.04683 -0.21774,0.04214 -0.0749,-0.0047 -0.14751,-0.0234 -0.21775,-0.05619 -0.0702,-0.02809 -0.13111,-0.07024 -0.18262,-0.126432 -0.0468,-0.05619 -0.0749,-0.119409 -0.0843,-0.189647 -0.009,-0.06556 -0.005,-0.126435 0.014,-0.182624 l 0.0702,-0.182623 c 0.0281,-0.07961 0.0562,-0.15921 0.0843,-0.238815 0.0328,-0.07961 0.0679,-0.159211 0.10536,-0.238816 0.0749,-0.145162 0.15218,-0.287983 0.23179,-0.428462 0.0796,-0.145163 0.15921,-0.290325 0.23881,-0.435487 0.0234,-0.03746 0.0468,-0.08194 0.0702,-0.133456 -0.0375,-0.01873 -0.0585,-0.0281 -0.0632,-0.0281 -0.0141,0 -0.0283,0.0017 -0.0421,0.007 -0.10442,0.03997 -0.22378,0.07344 -0.30901,0.11941 -0.11888,0.06412 -0.19902,0.138138 -0.25989,0.189647 -0.0609,0.05151 -0.11238,0.107699 -0.15453,0.168576 -0.0421,0.06087 -0.0808,0.139776 -0.12643,0.231791 -0.17475,0.352466 -0.30454,0.689378 -0.43548,1.053597 -0.0406,0.112945 -0.0866,0.201354 -0.13346,0.266911 -0.0421,0.06556 -0.0936,0.07961 -0.15453,0.04214 -0.0515,-0.03278 -0.10304,-0.06322 -0.15452,-0.09131 -0.0515,-0.03278 -0.1007,-0.0679 -0.14751,-0.10536 -0.0843,-0.07024 -0.11239,-0.161552 -0.0843,-0.273935 0.005,-0.02341 0.009,-0.04449 0.014,-0.06322 0,-0.01873 0.005,-0.03981 0.014,-0.06322 0.089,-0.252863 0.18965,-0.524457 0.30203,-0.814782 0.11239,-0.290324 0.26223,-0.604062 0.44954,-0.941213 -0.0234,-0.02341 -0.0421,-0.04449 -0.0562,-0.06322 -0.0141,-0.01873 -0.0281,-0.03746 -0.0421,-0.05619 -0.0328,-0.05151 -0.0258,-0.08897 0.0211,-0.112383 0.0281,-0.01405 0.0562,-0.02575 0.0843,-0.03512 0.0328,-0.01405 0.0656,-0.02107 0.0983,-0.02107 0.0749,-0.0047 0.15686,-0.007 0.24583,-0.007 0.089,-0.0047 0.17326,-0.0023 0.25287,0.007 0.0702,0.0047 0.11472,0.0234 0.13345,0.05619 0.0234,0.03278 0.0281,0.08429 0.014,0.154527 -0.009,0.03746 -0.0351,0.08429 -0.0773,0.14048 -0.0421,0.05151 -0.0679,0.09599 -0.0773,0.133455 0.0281,0.01873 0.0491,0.02107 0.0632,0.007 0.0141,-0.01873 0.0305,-0.03278 0.0492,-0.04214 0.0328,-0.01405 0.0749,-0.03044 0.12643,-0.04917 0.0515,-0.02341 0.10538,-0.04683 0.16155,-0.07024 0.0562,-0.02341 0.11005,-0.04449 0.16155,-0.06322 0.0515,-0.02341 0.0937,-0.04214 0.12643,-0.05619 0.0421,-0.02341 0.0843,-0.03746 0.12644,-0.04214 0.0468,-0.0047 0.0936,-0.0047 0.14048,0 0.0937,0.0094 0.17793,0.0398 0.25286,0.09131 0.0796,0.05151 0.12175,0.121746 0.12643,0.210719 0,0.117067 -0.0164,0.222427 -0.0492,0.31608 -0.0234,0.06087 -0.0492,0.119406 -0.0773,0.175599 -0.0281,0.05619 -0.0585,0.114727 -0.0913,0.1756 -0.0515,0.09834 -0.10773,0.196671 -0.16858,0.295007 -0.0562,0.09833 -0.11005,0.199012 -0.16155,0.302031 -0.0421,0.07961 -0.0819,0.161552 -0.11941,0.245839 -0.0328,0.07961 -0.0679,0.161552 -0.10536,0.24584 -0.009,0.02341 -0.0117,0.04683 -0.007,0.07024 0.005,0.02341 0.0257,0.04214 0.0632,0.05619 z"
         sodipodi:nodetypes="scccccccscsccccccccccccssssssscccccccscscscccccccccccscccccccccccccscs" />
      <path
         id="path5712"
         style="font-style:normal;font-variant:normal;font-weight:normal;font-stretch:normal;font-size:7.02398px;line-height:1.25;font-family:'Heidy Indigo';-inkscape-font-specification:'Heidy Indigo';text-align:start;letter-spacing:0px;word-spacing:0px;text-anchor:start;fill:#ffffff;fill-opacity:1;stroke:none;stroke-width:0.0632952px;stroke-linecap:butt;stroke-linejoin:miter;stroke-opacity:1"
         d="m 141.99286,52.855562 c 0.0552,-0.02562 0.0989,-0.04611 0.13112,-0.06145 0.0369,-0.01553 0.0738,-0.02871 0.11089,-0.03956 0.10201,-0.02749 0.19278,-0.04282 0.27233,-0.04598 0.16844,-0.0067 0.30243,0.06295 0.40196,0.208957 0.0544,0.07281 0.0904,0.151055 0.10772,0.23472 0.0172,0.07899 0.0229,0.163111 0.017,0.252385 -0.005,0.103295 -0.0201,0.202311 -0.0444,0.297007 -0.0197,0.09451 -0.0534,0.18958 -0.10113,0.285205 -0.12582,0.253382 -0.27841,0.482053 -0.45775,0.686013 -0.17467,0.203774 -0.38077,0.383024 -0.6183,0.537749 -0.0365,0.02488 -0.0756,0.04518 -0.11708,0.06089 l -0.11006,0.06061 c -0.22124,0.09316 -0.41963,0.05418 -0.59513,-0.116919 L 140.88,55.100064 c -0.0228,0.01497 -0.0434,0.02984 -0.0615,0.04462 -0.0183,0.01013 -0.0366,0.02254 -0.0548,0.03733 -0.0728,0.05445 -0.15245,0.05527 -0.2389,0.0025 l -0.0359,-0.01966 c -0.0961,-0.06178 -0.15728,-0.124958 -0.18328,-0.189536 -0.0262,-0.06925 -0.0227,-0.158433 0.0105,-0.267539 0.05,-0.15664 0.10956,-0.308972 0.17864,-0.456996 0.0642,-0.152517 0.13323,-0.302883 0.20701,-0.451095 l 0.78666,-1.430168 c 0.0832,-0.148584 0.16391,-0.297073 0.24237,-0.44547 0.0785,-0.148399 0.1569,-0.296796 0.23536,-0.445193 0.0219,-0.03836 0.0344,-0.07635 0.0376,-0.113969 0.007,-0.03779 -0.005,-0.07946 -0.0401,-0.124937 -0.0196,-0.02265 -0.0229,-0.04595 -0.01,-0.06991 0.0132,-0.02395 0.0361,-0.03658 0.0687,-0.03788 0.10294,-0.0041 0.20597,-0.0059 0.30909,-0.0053 0.10294,-0.0041 0.20634,0.0035 0.31021,0.02281 0.0895,0.0105 0.1194,0.05617 0.0898,0.137017 -0.008,0.03311 -0.0185,0.064 -0.0315,0.09263 -0.008,0.02843 -0.0187,0.05932 -0.0314,0.09263 l -0.6047,1.233132 z m 0.27312,0.150816 c -0.0569,0.0021 -0.11729,0.01661 -0.16547,0.03945 -0.18243,0.08646 -0.3265,0.198033 -0.42274,0.370572 -0.11833,0.206219 -0.23189,0.414593 -0.34068,0.62512 -0.10897,0.205848 -0.21298,0.418528 -0.31204,0.63804 -0.017,0.04286 -0.0292,0.0902 -0.0365,0.142042 -0.008,0.02375 -0.005,0.04473 0.01,0.06289 0.0146,0.01348 0.0337,0.02209 0.0573,0.02584 0.0756,0.01574 0.15244,0.0033 0.2305,-0.03729 0.10557,-0.05575 0.20149,-0.118142 0.28779,-0.187185 0.0861,-0.07372 0.16735,-0.151934 0.24374,-0.234641 0.10333,-0.111896 0.19702,-0.230438 0.28108,-0.355627 0.0841,-0.12519 0.16336,-0.252531 0.23788,-0.382027 0.0438,-0.07672 0.0806,-0.153168 0.11037,-0.229335 0.0296,-0.08085 0.0496,-0.165997 0.0601,-0.255453 0.0219,-0.155523 -0.0584,-0.229654 -0.24082,-0.222397 0,0 0.0534,-0.0019 -1e-5,0 z"
         sodipodi:nodetypes="cccsccccccccccccccccccccscccsscccccccssccccccccsscccsss" />
      <path
         id="path5714"
         style="font-style:normal;font-variant:normal;font-weight:normal;font-stretch:normal;font-size:7.02398px;line-height:1.25;font-family:'Heidy Indigo';-inkscape-font-specification:'Heidy Indigo';text-align:start;letter-spacing:0px;word-spacing:0px;text-anchor:start;fill:#ffffff;fill-opacity:1;stroke:none;stroke-width:0.0632952px;stroke-linecap:butt;stroke-linejoin:miter;stroke-opacity:1"
         d="m 142.52744,55.709253 c -0.005,0 -0.007,-0.0023 -0.007,-0.007 h -0.014 c -0.0702,0.02809 -0.12643,0.07492 -0.16857,0.14048 -0.0468,0.06555 -0.0772,0.135793 -0.0913,0.210719 -0.0141,0.07961 -0.0141,0.15921 0,0.238815 0.009,0.08429 0.0351,0.156869 0.0773,0.217744 0.0515,0.06555 0.10538,0.107697 0.16155,0.126431 0.0562,0.01873 0.11473,0.02107 0.1756,0.007 0.0562,-0.0094 0.11473,-0.03044 0.1756,-0.06321 0.0562,-0.03278 0.11005,-0.07024 0.16155,-0.112384 0.089,-0.07492 0.17326,-0.166234 0.25286,-0.273935 0.0843,-0.107701 0.15921,-0.208379 0.22477,-0.302032 0.0796,-0.117066 0.15453,-0.236473 0.22477,-0.358222 0.0702,-0.117067 0.14048,-0.236474 0.21072,-0.358223 0.009,-0.01405 0.0234,-0.04917 0.0421,-0.10536 -0.0375,0.02341 -0.0702,0.04214 -0.0983,0.05619 -0.0281,0.01405 -0.0538,0.02575 -0.0773,0.03512 -0.11707,0.06087 -0.22008,0.08429 -0.30905,0.07024 -0.089,-0.01405 -0.18029,-0.0679 -0.27394,-0.161551 -0.0187,-0.01873 -0.0351,-0.03512 -0.0492,-0.04917 -0.0187,-0.01873 -0.0351,-0.03981 -0.0492,-0.06322 -0.0655,-0.08429 -0.0866,-0.203696 -0.0632,-0.358223 0.0234,-0.154527 0.0586,-0.315563 0.12643,-0.484654 0.12952,-0.323064 0.28379,-0.591668 0.43074,-0.89907 l 0.094,-0.196671 c 0.0159,-0.03746 0.0248,-0.07492 0.0266,-0.112384 0.007,-0.03746 0.001,-0.07492 -0.0155,-0.112384 -0.0289,-0.07961 -0.002,-0.140479 0.0792,-0.182623 l 0.0787,-0.0281 c 0.0894,-0.0094 0.16681,-0.0117 0.23213,-0.007 0.0655,0 0.13777,0.007 0.21671,0.02107 0.0735,0.02809 0.10623,0.07726 0.0981,0.147503 -0.006,0.02341 -0.0118,0.04917 -0.0178,0.07726 -0.001,0.02341 -0.007,0.04683 -0.0175,0.07024 -0.1635,0.276277 -0.31084,0.557236 -0.44202,0.842878 -0.12649,0.285641 -0.23882,0.575966 -0.34184,0.870973 -0.009,0.02341 -0.0164,0.04449 -0.0211,0.06322 -0.005,0.01873 -0.009,0.03981 -0.014,0.06322 -0.009,0.02341 -0.005,0.04683 0.014,0.07024 0.0187,0.02341 0.0398,0.04448 0.0632,0.06321 0.0234,0.01873 0.0468,0.02576 0.0702,0.02107 0.0281,-0.0047 0.0538,-0.01169 0.0773,-0.02107 0.0375,-0.02341 0.0726,-0.04683 0.10536,-0.07024 0.0375,-0.02341 0.0726,-0.04917 0.10536,-0.07726 0.0843,-0.07961 0.16155,-0.161552 0.23179,-0.245839 0.0749,-0.08897 0.13579,-0.187307 0.18262,-0.295008 0.089,-0.215402 0.18965,-0.430804 0.30203,-0.646206 0.11707,-0.215402 0.2037,-0.435487 0.25989,-0.660254 0.0234,-0.07961 0.0538,-0.152186 0.0913,-0.217743 0.009,-0.01873 0.0515,-0.03278 0.12643,-0.04214 0.0749,-0.0094 0.15219,-0.007 0.23179,0.007 0.0843,0.01405 0.15219,0.04214 0.2037,0.08429 0.0562,0.04214 0.0702,0.100673 0.0421,0.175599 -0.19667,0.524457 -0.40036,1.027843 -0.61108,1.510156 -0.20604,0.482313 -0.45656,0.959944 -0.75157,1.432892 -0.0936,0.149845 -0.20135,0.297348 -0.3231,0.44251 -0.11707,0.149845 -0.24584,0.28096 -0.38632,0.393343 -0.1358,0.117067 -0.28096,0.21072 -0.43549,0.28096 -0.15453,0.07024 -0.31374,0.105359 -0.47763,0.105359 -0.33247,-0.02341 -0.55021,-0.189647 -0.65323,-0.498702 -0.0609,-0.173259 -0.0632,-0.3512 -0.007,-0.533823 0.0515,-0.177941 0.14753,-0.323103 0.28798,-0.435487 0.0749,-0.05619 0.15219,-0.09365 0.23179,-0.112383 0.0796,-0.01873 0.1639,-0.01171 0.25287,0.02107 0.0655,0.02341 0.11938,0.06322 0.16155,0.119407 0.0421,0.06087 0.0609,0.126431 0.0562,0.196672 -0.005,0.07024 -0.0234,0.133455 -0.0562,0.189647 -0.0328,0.06087 -0.0843,0.105359 -0.15453,0.133456 -0.0749,0.03746 -0.14282,0.03513 -0.2037,-0.007 -0.0609,-0.03746 -0.0913,-0.09833 -0.0913,-0.182624 -0.005,-0.03746 -0.002,-0.07492 0.007,-0.112383 0.009,-0.03746 0.0187,-0.07492 0.0281,-0.112384 z"
         sodipodi:nodetypes="sccccccsccccccccscssscssscccccccccccccccscccccccccscccccccsccccsccsccccscs" />
    </g>
    <path
       d="m 4.2473655,10.863753 h 1.2103 v 7.981393 h -1.2103 z"
       style="font-style:normal;font-variant:normal;font-weight:normal;font-stretch:normal;font-size:9.11103px;line-height:1.25;font-family:FjallaOne;-inkscape-font-specification:FjallaOne;text-align:start;letter-spacing:0px;word-spacing:0px;text-anchor:start;fill:#ffffff;fill-opacity:1;stroke:none;stroke-width:0.0406178px;stroke-linecap:butt;stroke-linejoin:miter;stroke-opacity:1"
       id="path5718" />
    <path
       d="m 6.7520755,12.4105 h 0.91121 l 0.10748,0.686921 v 0.0047 q 0.1402,-0.219628 0.29907,-0.36449 0.16356,-0.149534 0.33645,-0.23832 0.17291,-0.08879 0.35048,-0.126169 0.18224,-0.03738 0.35981,-0.03738 0.56543,0 0.86917,0.3972 0.3084195,0.392528 0.3084195,1.182257 v 4.929959 H 9.1119055 v -4.887954 q 0,-0.425239 -0.13084,-0.588792 -0.13085,-0.168226 -0.38319,-0.168226 -0.17757,0 -0.35513,0.116823 -0.17291,0.116824 -0.30842,0.322434 v 5.205662 h -1.18225 z"
       style="font-style:normal;font-variant:normal;font-weight:normal;font-stretch:normal;font-size:9.11103px;line-height:1.25;font-family:FjallaOne;-inkscape-font-specification:FjallaOne;text-align:start;letter-spacing:0px;word-spacing:0px;text-anchor:start;fill:#ffffff;fill-opacity:1;stroke:none;stroke-width:0.0406178px;stroke-linecap:butt;stroke-linejoin:miter;stroke-opacity:1"
       id="path5720" />
    <path
       d="m 11.677355,13.307705 h -0.55609 V 12.4105 h 0.55609 v -0.462623 q 0,-0.523369 0.10284,-0.850476 0.10747,-0.331778 0.28972,-0.514023 0.18224,-0.186918 0.42524,-0.25234 0.24766,-0.06542 0.53271,-0.06542 0.0794,0 0.17757,0.0093 0.0981,0.0093 0.19626,0.03271 0.0981,0.01869 0.1916,0.04673 0.0981,0.02804 0.17289,0.07009 v 0.831785 q -0.17757,-0.05141 -0.39252,-0.05141 -0.10748,0 -0.20562,0.03738 -0.0935,0.03738 -0.16822,0.12617 -0.0748,0.08412 -0.11682,0.228975 -0.042,0.140188 -0.042,0.35047 v 0.462622 h 0.89254 v 0.897205 h -0.89254 v 5.537441 h -1.16355 z m 2.78508,-2.962647 h 1.18225 v 8.500088 h -1.18225 z"
       style="font-style:normal;font-variant:normal;font-weight:normal;font-stretch:normal;font-size:9.11103px;line-height:1.25;font-family:FjallaOne;-inkscape-font-specification:FjallaOne;text-align:start;letter-spacing:0px;word-spacing:0px;text-anchor:start;fill:#ffffff;fill-opacity:1;stroke:none;stroke-width:0.0406178px;stroke-linecap:butt;stroke-linejoin:miter;stroke-opacity:1"
       id="path5722" />
    <path
       d="m 16.892355,12.4105 h 1.18226 v 4.836499 q 0,0.425238 0.13084,0.593463 0.13085,0.163553 0.38319,0.163553 0.17757,0 0.3458,-0.09813 0.16822,-0.09813 0.30373,-0.280376 v -5.215007 h 1.18226 v 6.434646 h -0.90188 l -0.11682,-0.686923 h -0.004 q -0.14019,0.219628 -0.29907,0.369163 -0.15421,0.144861 -0.32711,0.233647 -0.16823,0.08411 -0.3458,0.121497 -0.17757,0.03738 -0.35514,0.03738 -0.56543,0 -0.87384,-0.392528 -0.30375,-0.392528 -0.30375,-1.186928 z"
       style="font-style:normal;font-variant:normal;font-weight:normal;font-stretch:normal;font-size:9.11103px;line-height:1.25;font-family:FjallaOne;-inkscape-font-specification:FjallaOne;text-align:start;letter-spacing:0px;word-spacing:0px;text-anchor:start;fill:#ffffff;fill-opacity:1;stroke:none;stroke-width:0.0406178px;stroke-linecap:butt;stroke-linejoin:miter;stroke-opacity:1"
       id="path5724" />
    <path
       d="m 23.200835,18.91524 q -0.41589,0 -0.73832,-0.154207 -0.31777,-0.154207 -0.53739,-0.481314 -0.21963,-0.327106 -0.33178,-0.836457 -0.11215,-0.514024 -0.11215,-1.233658 v -1.214966 q 0,-0.612155 0.0888,-1.046739 0.0935,-0.439257 0.23831,-0.733653 0.14953,-0.29907 0.34113,-0.471968 0.19626,-0.172899 0.40187,-0.261684 0.20561,-0.09346 0.40654,-0.116825 0.20562,-0.02803 0.37851,-0.02803 0.31777,0 0.61216,0.09813 0.2944,0.09346 0.5187,0.327107 0.2243,0.228975 0.35514,0.616829 0.13552,0.387854 0.13552,0.9673 0,0.196263 -0.0141,0.3972 -0.009,0.200936 -0.0281,0.397201 -0.0187,0.19159 -0.0514,0.373835 -0.0281,0.182245 -0.0607,0.336452 h -2.13554 v 0.654212 q 0,0.420565 0.0327,0.710288 0.0327,0.28505 0.10748,0.462622 0.0794,0.172899 0.21029,0.252339 0.13551,0.07477 0.33645,0.07477 0.10748,0 0.21028,-0.04206 0.10283,-0.04673 0.17757,-0.149533 0.0794,-0.102803 0.12617,-0.271032 0.0467,-0.172899 0.0467,-0.425238 v -0.200936 h 0.98599 v 0.247665 q 0,0.915898 -0.43925,1.336464 -0.43459,0.415892 -1.2617,0.415892 z m 0.65421,-3.859854 q 0.004,-0.05141 0.009,-0.135515 0.004,-0.08879 0.004,-0.182245 0.004,-0.09345 0.004,-0.182245 0,-0.09345 0,-0.158881 0,-0.635519 -0.14954,-0.915897 -0.14953,-0.280376 -0.44393,-0.280376 -0.1542,0 -0.27103,0.07477 -0.11682,0.07009 -0.19159,0.242992 -0.0748,0.168226 -0.11215,0.448604 -0.0374,0.280376 -0.0374,0.696268 v 0.392528 z"
       style="font-style:normal;font-variant:normal;font-weight:normal;font-stretch:normal;font-size:9.11103px;line-height:1.25;font-family:FjallaOne;-inkscape-font-specification:FjallaOne;text-align:start;letter-spacing:0px;word-spacing:0px;text-anchor:start;fill:#ffffff;fill-opacity:1;stroke:none;stroke-width:0.0406178px;stroke-linecap:butt;stroke-linejoin:miter;stroke-opacity:1"
       id="path5726" />
    <path
       d="m 25.967225,12.4105 h 0.91122 l 0.10748,0.686921 v 0.0047 q 0.14019,-0.219628 0.29907,-0.36449 0.16355,-0.149534 0.33645,-0.23832 0.1729,-0.08879 0.35047,-0.126169 0.18225,-0.03738 0.35982,-0.03738 0.56542,0 0.86917,0.3972 0.30842,0.392528 0.30842,1.182257 v 4.929958 h -1.18227 v -4.887953 q 0,-0.425239 -0.13084,-0.588792 -0.13084,-0.168226 -0.38318,-0.168226 -0.17757,0 -0.35514,0.116823 -0.1729,0.116824 -0.30842,0.322434 v 5.205662 h -1.18225 z"
       style="font-style:normal;font-variant:normal;font-weight:normal;font-stretch:normal;font-size:9.11103px;line-height:1.25;font-family:FjallaOne;-inkscape-font-specification:FjallaOne;text-align:start;letter-spacing:0px;word-spacing:0px;text-anchor:start;fill:#ffffff;fill-opacity:1;stroke:none;stroke-width:0.0406178px;stroke-linecap:butt;stroke-linejoin:miter;stroke-opacity:1"
       id="path5728" />
    <path
       d="m 32.233635,18.91524 q -0.81309,0 -1.24299,-0.668231 -0.42525,-0.668231 -0.42525,-2.037405 v -1.214966 q 0,-0.612155 0.0888,-1.046739 0.0888,-0.439257 0.23365,-0.733653 0.14954,-0.29907 0.33646,-0.471968 0.19158,-0.172899 0.39252,-0.261684 0.20094,-0.09346 0.3972,-0.116825 0.19626,-0.02803 0.35982,-0.02803 0.3271,0 0.59814,0.08879 0.27102,0.08412 0.46729,0.261685 0.19626,0.1729 0.30374,0.439257 0.10748,0.266358 0.10748,0.626176 0,0.2243 -0.0233,0.387854 -0.0187,0.15888 -0.0561,0.308415 h -0.94393 V 14.23296 q 0,-0.485986 -0.11683,-0.757017 -0.11215,-0.275704 -0.37383,-0.275704 -0.14486,0 -0.25235,0.07009 -0.10748,0.06542 -0.18224,0.228975 -0.0701,0.163553 -0.10748,0.439257 -0.0327,0.275703 -0.0327,0.691596 v 1.827122 q 0,0.420565 0.0281,0.714961 0.028,0.294395 0.0981,0.481313 0.0701,0.182245 0.18692,0.266358 0.11683,0.08412 0.28972,0.08412 0.0888,0 0.1729,-0.04206 0.0841,-0.04673 0.14486,-0.149535 0.0654,-0.102802 0.10283,-0.27103 0.042,-0.172899 0.042,-0.425239 v -0.200934 h 1.01869 v 0.247665 q 0,0.915898 -0.40654,1.336463 -0.40187,0.415893 -1.20563,0.415893 z"
       style="font-style:normal;font-variant:normal;font-weight:normal;font-stretch:normal;font-size:9.11103px;line-height:1.25;font-family:FjallaOne;-inkscape-font-specification:FjallaOne;text-align:start;letter-spacing:0px;word-spacing:0px;text-anchor:start;fill:#ffffff;fill-opacity:1;stroke:none;stroke-width:0.0406178px;stroke-linecap:butt;stroke-linejoin:miter;stroke-opacity:1"
       id="path5730" />
    <path
       d="m 36.359855,18.91524 q -0.41589,0 -0.73833,-0.154207 -0.31776,-0.154207 -0.53738,-0.481314 -0.21963,-0.327106 -0.33178,-0.836457 -0.11215,-0.514024 -0.11215,-1.233658 v -1.214966 q 0,-0.612155 0.0888,-1.046739 0.0935,-0.439257 0.23832,-0.733653 0.14954,-0.29907 0.34113,-0.471968 0.19626,-0.172899 0.40187,-0.261684 0.2056,-0.09346 0.40654,-0.116825 0.20562,-0.02803 0.37851,-0.02803 0.31776,0 0.61215,0.09813 0.29441,0.09346 0.51871,0.327107 0.2243,0.228975 0.35514,0.616829 0.13551,0.387854 0.13551,0.9673 0,0.196263 -0.014,0.3972 -0.009,0.200936 -0.028,0.397201 -0.0187,0.19159 -0.0514,0.373835 -0.028,0.182245 -0.0607,0.336452 h -2.13554 v 0.654212 q 0,0.420565 0.0327,0.710288 0.0327,0.28505 0.10747,0.462622 0.0794,0.172899 0.21028,0.252339 0.13552,0.07477 0.33645,0.07477 0.10749,0 0.21029,-0.04206 0.10284,-0.04673 0.17757,-0.149533 0.0794,-0.102803 0.12618,-0.271032 0.0467,-0.172899 0.0467,-0.425238 v -0.200936 h 0.986 v 0.247665 q 0,0.915898 -0.43926,1.336464 -0.43459,0.415892 -1.26169,0.415892 z m 0.65421,-3.859854 q 0.004,-0.05141 0.009,-0.135515 0.004,-0.08879 0.004,-0.182245 0.004,-0.09345 0.004,-0.182245 0,-0.09345 0,-0.158881 0,-0.635519 -0.14954,-0.915897 -0.14952,-0.280376 -0.44392,-0.280376 -0.1542,0 -0.27103,0.07477 -0.11682,0.07009 -0.19159,0.242992 -0.0748,0.168226 -0.11215,0.448604 -0.0374,0.280376 -0.0374,0.696268 v 0.392528 z"
       style="font-style:normal;font-variant:normal;font-weight:normal;font-stretch:normal;font-size:9.11103px;line-height:1.25;font-family:FjallaOne;-inkscape-font-specification:FjallaOne;text-align:start;letter-spacing:0px;word-spacing:0px;text-anchor:start;fill:#ffffff;fill-opacity:1;stroke:none;stroke-width:0.0406178px;stroke-linecap:butt;stroke-linejoin:miter;stroke-opacity:1"
       id="path5732" />
    <path
       d="m 39.126235,12.4105 h 0.8645 l 0.10283,0.654212 q 0.19627,-0.36449 0.44861,-0.546735 0.25701,-0.182244 0.52337,-0.182244 0.50934,0 0.75234,0.313087 0.24299,0.313087 0.24299,0.939261 0,0.07944 -0.014,0.191592 -0.009,0.107476 -0.0327,0.228974 -0.0187,0.116824 -0.0514,0.23832 -0.0281,0.116824 -0.0607,0.214955 h -0.82244 v -0.598137 q 0,-0.196263 -0.0281,-0.322433 -0.0233,-0.126169 -0.0654,-0.200936 -0.042,-0.07944 -0.0981,-0.107478 -0.0561,-0.03271 -0.1215,-0.03271 -0.14018,0 -0.26168,0.09346 -0.11683,0.08879 -0.19627,0.252339 v 5.299121 h -1.18225 z"
       style="font-style:normal;font-variant:normal;font-weight:normal;font-stretch:normal;font-size:9.11103px;line-height:1.25;font-family:FjallaOne;-inkscape-font-specification:FjallaOne;text-align:start;letter-spacing:0px;word-spacing:0px;text-anchor:start;fill:#ffffff;fill-opacity:1;stroke:none;stroke-width:0.0406178px;stroke-linecap:butt;stroke-linejoin:miter;stroke-opacity:1"
       id="path5734" />
    <path
       d="m 42.556175,17.499337 q 0,-0.210282 0.0374,-0.406546 0.042,-0.196264 0.0794,-0.313088 h 0.83179 q 0,0.350471 0.0327,0.588792 0.0374,0.233647 0.11683,0.373836 0.0794,0.140188 0.21028,0.200937 0.13551,0.06074 0.3271,0.06074 0.26636,0 0.38786,-0.149535 0.12149,-0.149534 0.12149,-0.345798 0,-0.102802 -0.0281,-0.196263 -0.028,-0.09345 -0.0794,-0.186918 -0.0514,-0.09813 -0.12616,-0.196265 -0.0748,-0.09813 -0.16823,-0.214955 l -0.86449,-1.018702 q -0.16823,-0.210283 -0.32711,-0.425238 -0.15421,-0.219629 -0.2757,-0.448604 -0.11682,-0.233647 -0.19159,-0.485986 -0.0701,-0.252337 -0.0701,-0.532716 0,-0.373836 0.12616,-0.649537 0.13085,-0.275704 0.3458,-0.457949 0.21963,-0.182247 0.50467,-0.271032 0.28506,-0.08879 0.60282,-0.08879 0.35047,0 0.63084,0.08412 0.28039,0.08412 0.48132,0.25234 0.20094,0.168225 0.30841,0.420565 0.10748,0.247666 0.10748,0.579446 0,0.224301 -0.042,0.434582 -0.0374,0.210284 -0.0748,0.359818 h -0.81777 q -0.004,-0.31776 -0.028,-0.55608 -0.0233,-0.23832 -0.0888,-0.392529 -0.0607,-0.15888 -0.1729,-0.238319 -0.10747,-0.07944 -0.28504,-0.07944 -0.15421,0 -0.25702,0.05141 -0.10283,0.04673 -0.16823,0.12617 -0.0607,0.07944 -0.0888,0.177572 -0.0233,0.09813 -0.0233,0.200937 0,0.224301 0.10747,0.415892 0.10748,0.191591 0.28506,0.415893 l 0.94393,1.107487 q 0.10283,0.12617 0.23831,0.308415 0.13552,0.177572 0.25702,0.397201 0.12149,0.214955 0.20562,0.471967 0.0841,0.257012 0.0841,0.537389 0,0.341125 -0.10748,0.621502 -0.10747,0.275703 -0.31775,0.471967 -0.2103,0.196264 -0.5187,0.303742 -0.30375,0.107477 -0.69628,0.107477 -0.32243,0 -0.60747,-0.07009 -0.28506,-0.07477 -0.49534,-0.23832 -0.21028,-0.168226 -0.33178,-0.439257 -0.12149,-0.271031 -0.12149,-0.668231 z"
       style="font-style:normal;font-variant:normal;font-weight:normal;font-stretch:normal;font-size:9.11103px;line-height:1.25;font-family:FjallaOne;-inkscape-font-specification:FjallaOne;text-align:start;letter-spacing:0px;word-spacing:0px;text-anchor:start;fill:#ffffff;fill-opacity:1;stroke:none;stroke-width:0.0406178px;stroke-linecap:butt;stroke-linejoin:miter;stroke-opacity:1"
       id="path5736" />
  </g>
</svg>
