<?xml version="1.0" encoding="UTF-8" standalone="no"?>
<svg
   xmlns:dc="http://purl.org/dc/elements/1.1/"
   xmlns:cc="http://creativecommons.org/ns#"
   xmlns:rdf="http://www.w3.org/1999/02/22-rdf-syntax-ns#"
   xmlns:svg="http://www.w3.org/2000/svg"
   xmlns="http://www.w3.org/2000/svg"
   xmlns:xlink="http://www.w3.org/1999/xlink"
   id="svg9284"
   version="1.1"
   viewBox="0 0 30.95545 33.273853"
   height="33.273853mm"
   width="30.95545mm">
  <defs
     id="defs9278">
    <linearGradient
       xlink:href="#linearGradient2310"
       id="linearGradient5667"
       gradientUnits="userSpaceOnUse"
       gradientTransform="matrix(0.0282121,0,0,0.0282121,-103.24209,13.72205)"
       x1="7505.4136"
       y1="1305.1093"
       x2="7505.4136"
       y2="1785.7208" />
    <linearGradient
       id="linearGradient2310">
      <stop
         style="stop-color:#4674ff;stop-opacity:1"
         offset="0"
         id="stop2306" />
      <stop
         style="stop-color:#16fff0;stop-opacity:1"
         offset="1"
         id="stop2308" />
    </linearGradient>
  </defs>
  <metadata
     id="metadata9281">
    <rdf:RDF>
      <cc:Work
         rdf:about="">
        <dc:format>image/svg+xml</dc:format>
        <dc:type
           rdf:resource="http://purl.org/dc/dcmitype/StillImage" />
        <dc:title></dc:title>
      </cc:Work>
    </rdf:RDF>
  </metadata>
  <g
     id="layer1">
    <g
       id="g5631"
       transform="matrix(1.5037543,0,0,1.5037543,-147.33331,-70.239183)">
      <path
         d="m 105.48439,49.533731 c -0.51446,0 -0.95697,0.306736 -1.16675,0.753689 -1.22727,-0.509008 -2.15112,-0.756282 -2.47405,-0.569837 -1.38943,0.802189 -1.38943,15.241568 0,16.043753 0.32072,0.185171 1.23443,-0.05771 2.44915,-0.559657 0.19805,0.477366 0.6558,0.810201 1.19165,0.810201 h 5.59031 c 0.71828,0 1.29656,-0.597899 1.29656,-1.340575 v -3.912104 c 1.94112,-1.296662 3.36665,-2.478218 3.36665,-3.019766 0,-0.541549 -1.42553,-1.723054 -3.36665,-3.019714 v -3.845413 c 0,-0.742675 -0.57828,-1.340577 -1.29656,-1.340577 z"
         style="fill:#ffffff;fill-opacity:1;fill-rule:evenodd;stroke:none;stroke-width:0.104047;stroke-linecap:butt;stroke-linejoin:miter;stroke-miterlimit:4.1;stroke-dasharray:none;stroke-dashoffset:0;stroke-opacity:1"
         id="path5621" />
      <path
         d="m 105.49544,49.795536 c -0.52163,0 -0.94927,0.392086 -1.01343,0.902359 -1.20588,-0.50625 -2.11717,-0.756451 -2.43091,-0.575316 -1.31929,0.76169 -1.31929,14.472074 0,15.233761 0.31321,0.180837 1.22194,-0.06814 2.42482,-0.57268 0.0349,0.541131 0.47628,0.966313 1.01952,0.966313 h 5.56815 c 0.56621,0 1.02205,-0.461824 1.02205,-1.035483 v -4.133457 c 1.82346,-1.221084 3.15832,-2.330971 3.15832,-2.841598 0,-0.510625 -1.33486,-1.620461 -3.15832,-2.841549 v -4.066867 c 0,-0.573659 -0.45584,-1.035483 -1.02205,-1.035483 z"
         style="fill:#000000;fill-opacity:1;fill-rule:evenodd;stroke:none;stroke-width:0.0822786;stroke-linecap:butt;stroke-linejoin:miter;stroke-miterlimit:4.1;stroke-dasharray:none;stroke-dashoffset:0;stroke-opacity:1"
         id="path5623" />
      <circle
         r="0.5530138"
         cy="64.798439"
         cx="108.27956"
         id="circle5625"
         style="fill:#ffffff;fill-opacity:1;fill-rule:evenodd;stroke:none;stroke-width:0.0987424;stroke-linecap:butt;stroke-linejoin:miter;stroke-miterlimit:4.1;stroke-dasharray:none;stroke-dashoffset:0;stroke-opacity:1" />
      <path
         d="m 105.62381,50.591532 c -0.17209,0 -0.31521,0.101474 -0.35411,0.238762 -0.0784,0.132935 -0.1971,0.454102 -0.23624,0.482537 -0.0517,0.03759 -0.60568,0.06454 -0.62723,0.124754 -0.0206,0.05764 0.40587,0.382629 0.42479,0.440848 0.0198,0.06082 -0.12577,0.59598 -0.0752,0.635082 0.044,0.03401 0.41091,-0.214045 0.52381,-0.259889 0.0993,0.136713 0.27755,0.591001 0.33025,0.629296 0.0593,0.04311 0.70164,0.05776 0.72223,0.128165 0.0215,0.07354 -0.49646,0.489781 -0.52014,0.562656 -0.0135,0.04153 0.046,0.275663 0.0839,0.467709 -0.31596,-0.04146 -0.75065,-0.06676 -0.81056,-0.110287 -0.0982,-0.07131 -0.47146,-1.054881 -0.59272,-1.058473 -0.11608,-0.0034 -0.45243,0.956529 -0.54639,1.024791 -0.0981,0.07131 -1.14895,0.122429 -1.18984,0.236645 -0.0391,0.109339 0.76994,0.725839 0.80582,0.836289 0.0375,0.115376 -0.23862,1.130532 -0.14263,1.204716 0.0919,0.07101 0.92823,-0.507953 1.04437,-0.507953 0.0806,-3e-6 0.49565,0.2539 0.79491,0.404584 v 0.004 c 0.0144,-0.0028 0.026,-0.0057 0.0302,-0.0087 0.0263,-0.01909 0.12034,-0.287555 0.1528,-0.286598 0.0339,0.001 0.13833,0.276061 0.16577,0.295998 0.0263,0.01909 0.31064,0.02561 0.31976,0.05677 0.01,0.03256 -0.21981,0.216833 -0.23029,0.249096 -0.005,0.01545 0.013,0.0914 0.0288,0.165718 -0.17218,-0.02493 -0.43393,-0.03884 -0.46828,-0.0638 -0.0532,-0.03862 -0.25538,-0.571354 -0.32106,-0.573301 -0.0629,-0.0019 -0.24506,0.518096 -0.29594,0.555068 -0.0532,0.03862 -0.62229,0.0663 -0.64444,0.128162 -0.0212,0.05922 0.41702,0.393113 0.43646,0.452936 0.0203,0.06249 -0.12927,0.612364 -0.0773,0.652541 0.0498,0.03846 0.50275,-0.275128 0.56566,-0.275128 0.06,0 0.46206,0.259828 0.57319,0.277145 0.0449,0.01259 0.23552,0.01861 0.24212,0.04117 0.007,0.02549 -0.17203,0.169755 -0.18023,0.19501 -0.008,0.02417 0.0561,0.237402 0.0351,0.251728 -0.0197,0.01344 -0.14662,-0.06612 -0.19154,-0.0825 -0.005,-0.0028 -0.009,-0.0048 -0.0131,-0.005 -0.085,-0.0025 -0.33129,0.70045 -0.4001,0.750436 -0.0298,0.02163 -0.17999,0.04084 -0.34698,0.06173 0.0317,-0.06134 -0.099,-0.501377 -0.0822,-0.552997 0.0182,-0.05603 0.41642,-0.376042 0.39988,-0.432584 -0.0158,-0.05413 -0.50964,-0.06541 -0.55527,-0.09857 -0.0477,-0.03463 -0.22895,-0.512298 -0.28784,-0.514047 -0.0564,-0.0017 -0.21974,0.464524 -0.26536,0.497673 -0.0477,0.03463 -0.55794,0.05947 -0.57779,0.114939 -0.019,0.0531 0.37387,0.352445 0.3913,0.406082 0.0182,0.05603 -0.11589,0.549052 -0.0693,0.585077 0.0446,0.03448 0.45078,-0.246665 0.50718,-0.246667 0.0518,0 0.38795,0.215991 0.50175,0.245843 -0.22649,0.02838 -0.47005,0.06042 -0.48667,0.106825 -0.0287,0.08007 0.56381,0.531524 0.59009,0.612406 0.0275,0.08449 -0.17475,0.827889 -0.10445,0.882214 0.0635,0.04905 0.6118,-0.325209 0.74522,-0.367857 0.0918,0.148356 0.23475,0.507205 0.27915,0.539463 0.0536,0.03893 0.63349,0.05215 0.65208,0.115715 0.0194,0.0664 -0.44824,0.442256 -0.46962,0.508055 -0.0205,0.06299 0.14614,0.618623 0.0914,0.655951 -0.0541,0.03695 -0.50715,-0.255782 -0.61338,-0.286598 -0.009,-0.0093 -0.0166,-0.01453 -0.0231,-0.01472 -0.0651,-0.0019 -0.2537,0.536368 -0.30639,0.574643 -0.055,0.03999 -0.64423,0.06866 -0.66716,0.13271 -0.0219,0.06131 0.43173,0.406965 0.45185,0.468899 0.021,0.0647 -0.13384,0.633988 -0.08,0.675584 0.0515,0.03982 0.52052,-0.28484 0.58564,-0.284843 0.003,0 0.008,0.0014 0.0124,0.0026 v 0.271821 c 0,0.173705 0.16274,0.313566 0.36491,0.313566 h 5.31141 c 0.20217,0 0.36491,-0.139861 0.36491,-0.313566 V 50.905107 c 0,-0.173705 -0.16274,-0.313563 -0.36491,-0.313563 z m -3.28146,0.374414 c -0.0326,-9.59e-4 -0.12709,0.268667 -0.15348,0.28784 -0.0276,0.02003 -0.32274,0.0344 -0.33423,0.06648 -0.011,0.03072 0.21629,0.203866 0.22637,0.234891 0.0105,0.03241 -0.0671,0.317575 -0.0401,0.33841 0.0258,0.01995 0.26074,-0.142677 0.29337,-0.142677 0.0341,0 0.28133,0.161883 0.30948,0.142677 0.0269,-0.01838 -0.0551,-0.292044 -0.0451,-0.323068 0.0105,-0.03241 0.2409,-0.217524 0.23133,-0.250233 -0.009,-0.03131 -0.29482,-0.03786 -0.32121,-0.05703 -0.0276,-0.02003 -0.13243,-0.296278 -0.16649,-0.297294 z m 1.00841,0.795534 c -0.0487,-0.0014 -0.18979,0.40126 -0.22921,0.429898 -0.0412,0.02991 -0.48196,0.05137 -0.49912,0.09929 -0.0164,0.04587 0.323,0.304476 0.33805,0.350806 0.0157,0.0484 -0.10013,0.474251 -0.0599,0.505372 0.0386,0.02979 0.38939,-0.213038 0.43811,-0.213038 0.0509,0 0.42014,0.241716 0.46219,0.213038 0.0402,-0.02746 -0.0823,-0.436153 -0.0673,-0.482486 0.0157,-0.0484 0.35972,-0.324851 0.34544,-0.373692 -0.0137,-0.04676 -0.44024,-0.0565 -0.47965,-0.08513 -0.0412,-0.02991 -0.19781,-0.442555 -0.24868,-0.44405 z m -1.11158,1.473334 c -0.0487,-0.0014 -0.18979,0.401264 -0.2292,0.429896 -0.0412,0.02991 -0.48197,0.05137 -0.49912,0.09929 -0.0164,0.04586 0.32299,0.304473 0.33805,0.350806 0.0157,0.0484 -0.10014,0.474305 -0.0599,0.505423 0.0386,0.02979 0.38939,-0.213089 0.43811,-0.213089 0.0509,0 0.42014,0.241772 0.46218,0.213089 0.0402,-0.02746 -0.0823,-0.436207 -0.0673,-0.482537 0.0157,-0.0484 0.35973,-0.324849 0.34544,-0.373692 -0.0137,-0.04676 -0.44023,-0.0565 -0.47964,-0.08513 -0.0412,-0.02992 -0.19782,-0.442558 -0.24869,-0.444053 z m 3.66147,1.149028 c 0.0446,0.0013 0.18195,0.363065 0.21804,0.389293 0.0346,0.02509 0.40856,0.03365 0.42055,0.07465 0.0125,0.04283 -0.28908,0.285227 -0.30287,0.327666 -0.0132,0.04063 0.0942,0.399001 0.0589,0.423077 -0.0369,0.02515 -0.36058,-0.186848 -0.4052,-0.186848 -0.0427,0 -0.35033,0.212964 -0.38413,0.186848 -0.0353,-0.02728 0.0663,-0.400682 0.0525,-0.443121 -0.0132,-0.04062 -0.3108,-0.267409 -0.29641,-0.307622 0.015,-0.04201 0.40155,-0.06077 0.43765,-0.08699 0.0345,-0.02511 0.15825,-0.378212 0.20095,-0.376948 z m -3.12825,1.465325 c -0.0487,-0.0014 -0.18975,0.401264 -0.22916,0.429899 -0.0412,0.02991 -0.48202,0.05137 -0.49917,0.09929 -0.0164,0.04586 0.323,0.304473 0.33805,0.350809 0.0157,0.0484 -0.10009,0.474302 -0.0598,0.50542 0.0386,0.02979 0.38939,-0.213086 0.43811,-0.213086 0.0509,0 0.4201,0.241766 0.46213,0.213086 0.0403,-0.02746 -0.0823,-0.436204 -0.0673,-0.482534 0.0157,-0.0484 0.35978,-0.324851 0.34549,-0.373695 -0.0137,-0.04676 -0.44028,-0.0565 -0.47969,-0.08513 -0.0412,-0.02991 -0.19781,-0.442555 -0.24868,-0.444053 z m -0.3785,1.910518 c -0.0349,-10e-4 -0.13602,0.287611 -0.16427,0.308138 -0.0295,0.02144 -0.34549,0.03679 -0.35779,0.07113 -0.0118,0.03288 0.23154,0.21826 0.24233,0.251472 0.0113,0.03469 -0.0718,0.33997 -0.0429,0.362274 0.0276,0.02135 0.27916,-0.152751 0.31408,-0.152751 0.0365,0 0.3011,0.173309 0.33123,0.152751 0.0289,-0.01968 -0.059,-0.312638 -0.0482,-0.345846 0.0113,-0.0347 0.25789,-0.232886 0.24765,-0.2679 -0.01,-0.03352 -0.31559,-0.04048 -0.34384,-0.06101 -0.0295,-0.02144 -0.14181,-0.317192 -0.17827,-0.318264 z m 1.20409,1.30591 c -0.0487,-0.0014 -0.18979,0.401264 -0.2292,0.429899 -0.0412,0.02991 -0.48197,0.05137 -0.49912,0.09928 -0.0164,0.04587 0.32299,0.304476 0.33805,0.350812 0.0157,0.0484 -0.10014,0.474251 -0.0599,0.505369 0.0386,0.02979 0.38939,-0.213089 0.43811,-0.213089 0.0509,0 0.42014,0.241769 0.46218,0.213089 0.0402,-0.02746 -0.0823,-0.436154 -0.0673,-0.482486 0.0157,-0.0484 0.35973,-0.324849 0.34544,-0.373695 -0.0137,-0.04676 -0.44023,-0.05649 -0.47965,-0.08513 -0.0412,-0.02991 -0.19781,-0.442555 -0.24868,-0.444053 z m 0.73763,1.043439 c -0.0665,-0.002 -0.25905,0.547701 -0.31284,0.58678 -0.0562,0.04083 -0.65786,0.07011 -0.68127,0.1355 -0.0224,0.0626 0.44081,0.415579 0.46136,0.478819 0.0215,0.06606 -0.13658,0.647312 -0.0816,0.689788 0.0526,0.04066 0.53145,-0.290835 0.59794,-0.290835 0.0695,-3e-6 0.57342,0.329983 0.63079,0.290835 0.0549,-0.03748 -0.11234,-0.595348 -0.0918,-0.658588 0.0215,-0.06606 0.49098,-0.443351 0.47148,-0.510019 -0.0187,-0.06382 -0.60092,-0.07715 -0.65471,-0.116228 -0.0562,-0.04083 -0.26991,-0.60399 -0.33934,-0.606052 z"
         style="fill:url(#linearGradient5667);fill-opacity:1;fill-rule:evenodd;stroke:none;stroke-width:0.080115;stroke-linecap:butt;stroke-linejoin:miter;stroke-miterlimit:4.1;stroke-dasharray:none;stroke-dashoffset:0;stroke-opacity:1"
         id="path5627" />
      <path
         d="m 107.10764,59.339926 c -0.27721,-0.160046 -0.27721,-3.040871 0,-3.200917 0.2772,-0.160046 2.77207,1.280367 2.77207,1.600459 0,0.320091 -2.49487,1.760504 -2.77207,1.600458 z"
         id="path5629"
         style="fill:#000000;fill-opacity:1;fill-rule:evenodd;stroke:none;stroke-width:0.0987424;stroke-linecap:butt;stroke-linejoin:miter;stroke-miterlimit:4.1;stroke-dasharray:none;stroke-dashoffset:0;stroke-opacity:1" />
    </g>
  </g>
</svg>
