<?xml version="1.0" encoding="UTF-8" standalone="no"?>
<svg
   xmlns:dc="http://purl.org/dc/elements/1.1/"
   xmlns:cc="http://creativecommons.org/ns#"
   xmlns:rdf="http://www.w3.org/1999/02/22-rdf-syntax-ns#"
   xmlns:svg="http://www.w3.org/2000/svg"
   xmlns="http://www.w3.org/2000/svg"
   xmlns:xlink="http://www.w3.org/1999/xlink"
   width="49.999874mm"
   height="49.999874mm"
   viewBox="0 0 49.999874 49.999874"
   version="1.1"
   id="svg4748">
  <defs
     id="defs4742">
    <linearGradient
       y2="1785.7208"
       x2="7505.4136"
       y1="1305.1093"
       x1="7505.4136"
       gradientTransform="matrix(0.0282121,0,0,0.0282121,-103.24209,13.72205)"
       gradientUnits="userSpaceOnUse"
       id="linearGradient5411"
       xlink:href="#linearGradient2310" />
    <linearGradient
       id="linearGradient2310">
      <stop
         id="stop2306"
         offset="0"
         style="stop-color:#4674ff;stop-opacity:1" />
      <stop
         id="stop2308"
         offset="1"
         style="stop-color:#16fff0;stop-opacity:1" />
    </linearGradient>
  </defs>
  <metadata
     id="metadata4745">
    <rdf:RDF>
      <cc:Work
         rdf:about="">
        <dc:format>image/svg+xml</dc:format>
        <dc:type
           rdf:resource="http://purl.org/dc/dcmitype/StillImage" />
        <dc:title></dc:title>
        <dc:creator>
          <cc:Agent>
            <dc:title>TrashPanda</dc:title>
          </cc:Agent>
        </dc:creator>
      </cc:Work>
    </rdf:RDF>
  </metadata>
  <g
     id="layer1">
    <g
       transform="matrix(1.0503965,0,0,1.0503965,298.18566,43.456896)"
       id="g5617">
      <g
         transform="matrix(1.4316063,0,0,1.4316063,-415.07827,-108.2411)"
         id="g5323">
        <path
           id="path5313"
           style="fill:#ffffff;fill-opacity:1;fill-rule:evenodd;stroke:none;stroke-width:0.104047;stroke-linecap:butt;stroke-linejoin:miter;stroke-miterlimit:4.1;stroke-dasharray:none;stroke-dashoffset:0;stroke-opacity:1"
           d="m 105.48439,49.533731 c -0.51446,0 -0.95697,0.306736 -1.16675,0.753689 -1.22727,-0.509008 -2.15112,-0.756282 -2.47405,-0.569837 -1.38943,0.802189 -1.38943,15.241568 0,16.043753 0.32072,0.185171 1.23443,-0.05771 2.44915,-0.559657 0.19805,0.477366 0.6558,0.810201 1.19165,0.810201 h 5.59031 c 0.71828,0 1.29656,-0.597899 1.29656,-1.340575 v -3.912104 c 1.94112,-1.296662 3.36665,-2.478218 3.36665,-3.019766 0,-0.541549 -1.42553,-1.723054 -3.36665,-3.019714 v -3.845413 c 0,-0.742675 -0.57828,-1.340577 -1.29656,-1.340577 z" />
        <path
           id="path5315"
           style="fill:#000000;fill-opacity:1;fill-rule:evenodd;stroke:none;stroke-width:0.0822786;stroke-linecap:butt;stroke-linejoin:miter;stroke-miterlimit:4.1;stroke-dasharray:none;stroke-dashoffset:0;stroke-opacity:1"
           d="m 105.49544,49.795536 c -0.52163,0 -0.94927,0.392086 -1.01343,0.902359 -1.20588,-0.50625 -2.11717,-0.756451 -2.43091,-0.575316 -1.31929,0.76169 -1.31929,14.472074 0,15.233761 0.31321,0.180837 1.22194,-0.06814 2.42482,-0.57268 0.0349,0.541131 0.47628,0.966313 1.01952,0.966313 h 5.56815 c 0.56621,0 1.02205,-0.461824 1.02205,-1.035483 v -4.133457 c 1.82346,-1.221084 3.15832,-2.330971 3.15832,-2.841598 0,-0.510625 -1.33486,-1.620461 -3.15832,-2.841549 v -4.066867 c 0,-0.573659 -0.45584,-1.035483 -1.02205,-1.035483 z" />
        <circle
           style="fill:#ffffff;fill-opacity:1;fill-rule:evenodd;stroke:none;stroke-width:0.0987424;stroke-linecap:butt;stroke-linejoin:miter;stroke-miterlimit:4.1;stroke-dasharray:none;stroke-dashoffset:0;stroke-opacity:1"
           id="circle5317"
           cx="108.27956"
           cy="64.798439"
           r="0.5530138" />
        <path
           id="path5319"
           style="fill:url(#linearGradient5411);fill-opacity:1;fill-rule:evenodd;stroke:none;stroke-width:0.080115;stroke-linecap:butt;stroke-linejoin:miter;stroke-miterlimit:4.1;stroke-dasharray:none;stroke-dashoffset:0;stroke-opacity:1"
           d="m 105.62381,50.591532 c -0.17209,0 -0.31521,0.101474 -0.35411,0.238762 -0.0784,0.132935 -0.1971,0.454102 -0.23624,0.482537 -0.0517,0.03759 -0.60568,0.06454 -0.62723,0.124754 -0.0206,0.05764 0.40587,0.382629 0.42479,0.440848 0.0198,0.06082 -0.12577,0.59598 -0.0752,0.635082 0.044,0.03401 0.41091,-0.214045 0.52381,-0.259889 0.0993,0.136713 0.27755,0.591001 0.33025,0.629296 0.0593,0.04311 0.70164,0.05776 0.72223,0.128165 0.0215,0.07354 -0.49646,0.489781 -0.52014,0.562656 -0.0135,0.04153 0.046,0.275663 0.0839,0.467709 -0.31596,-0.04146 -0.75065,-0.06676 -0.81056,-0.110287 -0.0982,-0.07131 -0.47146,-1.054881 -0.59272,-1.058473 -0.11608,-0.0034 -0.45243,0.956529 -0.54639,1.024791 -0.0981,0.07131 -1.14895,0.122429 -1.18984,0.236645 -0.0391,0.109339 0.76994,0.725839 0.80582,0.836289 0.0375,0.115376 -0.23862,1.130532 -0.14263,1.204716 0.0919,0.07101 0.92823,-0.507953 1.04437,-0.507953 0.0806,-3e-6 0.49565,0.2539 0.79491,0.404584 v 0.004 c 0.0144,-0.0028 0.026,-0.0057 0.0302,-0.0087 0.0263,-0.01909 0.12034,-0.287555 0.1528,-0.286598 0.0339,0.001 0.13833,0.276061 0.16577,0.295998 0.0263,0.01909 0.31064,0.02561 0.31976,0.05677 0.01,0.03256 -0.21981,0.216833 -0.23029,0.249096 -0.005,0.01545 0.013,0.0914 0.0288,0.165718 -0.17218,-0.02493 -0.43393,-0.03884 -0.46828,-0.0638 -0.0532,-0.03862 -0.25538,-0.571354 -0.32106,-0.573301 -0.0629,-0.0019 -0.24506,0.518096 -0.29594,0.555068 -0.0532,0.03862 -0.62229,0.0663 -0.64444,0.128162 -0.0212,0.05922 0.41702,0.393113 0.43646,0.452936 0.0203,0.06249 -0.12927,0.612364 -0.0773,0.652541 0.0498,0.03846 0.50275,-0.275128 0.56566,-0.275128 0.06,0 0.46206,0.259828 0.57319,0.277145 0.0449,0.01259 0.23552,0.01861 0.24212,0.04117 0.007,0.02549 -0.17203,0.169755 -0.18023,0.19501 -0.008,0.02417 0.0561,0.237402 0.0351,0.251728 -0.0197,0.01344 -0.14662,-0.06612 -0.19154,-0.0825 -0.005,-0.0028 -0.009,-0.0048 -0.0131,-0.005 -0.085,-0.0025 -0.33129,0.70045 -0.4001,0.750436 -0.0298,0.02163 -0.17999,0.04084 -0.34698,0.06173 0.0317,-0.06134 -0.099,-0.501377 -0.0822,-0.552997 0.0182,-0.05603 0.41642,-0.376042 0.39988,-0.432584 -0.0158,-0.05413 -0.50964,-0.06541 -0.55527,-0.09857 -0.0477,-0.03463 -0.22895,-0.512298 -0.28784,-0.514047 -0.0564,-0.0017 -0.21974,0.464524 -0.26536,0.497673 -0.0477,0.03463 -0.55794,0.05947 -0.57779,0.114939 -0.019,0.0531 0.37387,0.352445 0.3913,0.406082 0.0182,0.05603 -0.11589,0.549052 -0.0693,0.585077 0.0446,0.03448 0.45078,-0.246665 0.50718,-0.246667 0.0518,0 0.38795,0.215991 0.50175,0.245843 -0.22649,0.02838 -0.47005,0.06042 -0.48667,0.106825 -0.0287,0.08007 0.56381,0.531524 0.59009,0.612406 0.0275,0.08449 -0.17475,0.827889 -0.10445,0.882214 0.0635,0.04905 0.6118,-0.325209 0.74522,-0.367857 0.0918,0.148356 0.23475,0.507205 0.27915,0.539463 0.0536,0.03893 0.63349,0.05215 0.65208,0.115715 0.0194,0.0664 -0.44824,0.442256 -0.46962,0.508055 -0.0205,0.06299 0.14614,0.618623 0.0914,0.655951 -0.0541,0.03695 -0.50715,-0.255782 -0.61338,-0.286598 -0.009,-0.0093 -0.0166,-0.01453 -0.0231,-0.01472 -0.0651,-0.0019 -0.2537,0.536368 -0.30639,0.574643 -0.055,0.03999 -0.64423,0.06866 -0.66716,0.13271 -0.0219,0.06131 0.43173,0.406965 0.45185,0.468899 0.021,0.0647 -0.13384,0.633988 -0.08,0.675584 0.0515,0.03982 0.52052,-0.28484 0.58564,-0.284843 0.003,0 0.008,0.0014 0.0124,0.0026 v 0.271821 c 0,0.173705 0.16274,0.313566 0.36491,0.313566 h 5.31141 c 0.20217,0 0.36491,-0.139861 0.36491,-0.313566 V 50.905107 c 0,-0.173705 -0.16274,-0.313563 -0.36491,-0.313563 z m -3.28146,0.374414 c -0.0326,-9.59e-4 -0.12709,0.268667 -0.15348,0.28784 -0.0276,0.02003 -0.32274,0.0344 -0.33423,0.06648 -0.011,0.03072 0.21629,0.203866 0.22637,0.234891 0.0105,0.03241 -0.0671,0.317575 -0.0401,0.33841 0.0258,0.01995 0.26074,-0.142677 0.29337,-0.142677 0.0341,0 0.28133,0.161883 0.30948,0.142677 0.0269,-0.01838 -0.0551,-0.292044 -0.0451,-0.323068 0.0105,-0.03241 0.2409,-0.217524 0.23133,-0.250233 -0.009,-0.03131 -0.29482,-0.03786 -0.32121,-0.05703 -0.0276,-0.02003 -0.13243,-0.296278 -0.16649,-0.297294 z m 1.00841,0.795534 c -0.0487,-0.0014 -0.18979,0.40126 -0.22921,0.429898 -0.0412,0.02991 -0.48196,0.05137 -0.49912,0.09929 -0.0164,0.04587 0.323,0.304476 0.33805,0.350806 0.0157,0.0484 -0.10013,0.474251 -0.0599,0.505372 0.0386,0.02979 0.38939,-0.213038 0.43811,-0.213038 0.0509,0 0.42014,0.241716 0.46219,0.213038 0.0402,-0.02746 -0.0823,-0.436153 -0.0673,-0.482486 0.0157,-0.0484 0.35972,-0.324851 0.34544,-0.373692 -0.0137,-0.04676 -0.44024,-0.0565 -0.47965,-0.08513 -0.0412,-0.02991 -0.19781,-0.442555 -0.24868,-0.44405 z m -1.11158,1.473334 c -0.0487,-0.0014 -0.18979,0.401264 -0.2292,0.429896 -0.0412,0.02991 -0.48197,0.05137 -0.49912,0.09929 -0.0164,0.04586 0.32299,0.304473 0.33805,0.350806 0.0157,0.0484 -0.10014,0.474305 -0.0599,0.505423 0.0386,0.02979 0.38939,-0.213089 0.43811,-0.213089 0.0509,0 0.42014,0.241772 0.46218,0.213089 0.0402,-0.02746 -0.0823,-0.436207 -0.0673,-0.482537 0.0157,-0.0484 0.35973,-0.324849 0.34544,-0.373692 -0.0137,-0.04676 -0.44023,-0.0565 -0.47964,-0.08513 -0.0412,-0.02992 -0.19782,-0.442558 -0.24869,-0.444053 z m 3.66147,1.149028 c 0.0446,0.0013 0.18195,0.363065 0.21804,0.389293 0.0346,0.02509 0.40856,0.03365 0.42055,0.07465 0.0125,0.04283 -0.28908,0.285227 -0.30287,0.327666 -0.0132,0.04063 0.0942,0.399001 0.0589,0.423077 -0.0369,0.02515 -0.36058,-0.186848 -0.4052,-0.186848 -0.0427,0 -0.35033,0.212964 -0.38413,0.186848 -0.0353,-0.02728 0.0663,-0.400682 0.0525,-0.443121 -0.0132,-0.04062 -0.3108,-0.267409 -0.29641,-0.307622 0.015,-0.04201 0.40155,-0.06077 0.43765,-0.08699 0.0345,-0.02511 0.15825,-0.378212 0.20095,-0.376948 z m -3.12825,1.465325 c -0.0487,-0.0014 -0.18975,0.401264 -0.22916,0.429899 -0.0412,0.02991 -0.48202,0.05137 -0.49917,0.09929 -0.0164,0.04586 0.323,0.304473 0.33805,0.350809 0.0157,0.0484 -0.10009,0.474302 -0.0598,0.50542 0.0386,0.02979 0.38939,-0.213086 0.43811,-0.213086 0.0509,0 0.4201,0.241766 0.46213,0.213086 0.0403,-0.02746 -0.0823,-0.436204 -0.0673,-0.482534 0.0157,-0.0484 0.35978,-0.324851 0.34549,-0.373695 -0.0137,-0.04676 -0.44028,-0.0565 -0.47969,-0.08513 -0.0412,-0.02991 -0.19781,-0.442555 -0.24868,-0.444053 z m -0.3785,1.910518 c -0.0349,-10e-4 -0.13602,0.287611 -0.16427,0.308138 -0.0295,0.02144 -0.34549,0.03679 -0.35779,0.07113 -0.0118,0.03288 0.23154,0.21826 0.24233,0.251472 0.0113,0.03469 -0.0718,0.33997 -0.0429,0.362274 0.0276,0.02135 0.27916,-0.152751 0.31408,-0.152751 0.0365,0 0.3011,0.173309 0.33123,0.152751 0.0289,-0.01968 -0.059,-0.312638 -0.0482,-0.345846 0.0113,-0.0347 0.25789,-0.232886 0.24765,-0.2679 -0.01,-0.03352 -0.31559,-0.04048 -0.34384,-0.06101 -0.0295,-0.02144 -0.14181,-0.317192 -0.17827,-0.318264 z m 1.20409,1.30591 c -0.0487,-0.0014 -0.18979,0.401264 -0.2292,0.429899 -0.0412,0.02991 -0.48197,0.05137 -0.49912,0.09928 -0.0164,0.04587 0.32299,0.304476 0.33805,0.350812 0.0157,0.0484 -0.10014,0.474251 -0.0599,0.505369 0.0386,0.02979 0.38939,-0.213089 0.43811,-0.213089 0.0509,0 0.42014,0.241769 0.46218,0.213089 0.0402,-0.02746 -0.0823,-0.436154 -0.0673,-0.482486 0.0157,-0.0484 0.35973,-0.324849 0.34544,-0.373695 -0.0137,-0.04676 -0.44023,-0.05649 -0.47965,-0.08513 -0.0412,-0.02991 -0.19781,-0.442555 -0.24868,-0.444053 z m 0.73763,1.043439 c -0.0665,-0.002 -0.25905,0.547701 -0.31284,0.58678 -0.0562,0.04083 -0.65786,0.07011 -0.68127,0.1355 -0.0224,0.0626 0.44081,0.415579 0.46136,0.478819 0.0215,0.06606 -0.13658,0.647312 -0.0816,0.689788 0.0526,0.04066 0.53145,-0.290835 0.59794,-0.290835 0.0695,-3e-6 0.57342,0.329983 0.63079,0.290835 0.0549,-0.03748 -0.11234,-0.595348 -0.0918,-0.658588 0.0215,-0.06606 0.49098,-0.443351 0.47148,-0.510019 -0.0187,-0.06382 -0.60092,-0.07715 -0.65471,-0.116228 -0.0562,-0.04083 -0.26991,-0.60399 -0.33934,-0.606052 z" />
        <path
           style="fill:#000000;fill-opacity:1;fill-rule:evenodd;stroke:none;stroke-width:0.0987424;stroke-linecap:butt;stroke-linejoin:miter;stroke-miterlimit:4.1;stroke-dasharray:none;stroke-dashoffset:0;stroke-opacity:1"
           id="path5321"
           d="m 107.10764,59.339926 c -0.27721,-0.160046 -0.27721,-3.040871 0,-3.200917 0.2772,-0.160046 2.77207,1.280367 2.77207,1.600459 0,0.320091 -2.49487,1.760504 -2.77207,1.600458 z" />
      </g>
      <g
         id="g5335"
         transform="matrix(1.0276703,0,0,1.0276703,-401.76234,-63.193352)"
         style="fill:#ffffff;fill-opacity:1">
        <path
           d="m 131.31783,54.11481 c 0.0234,0.04683 0.0421,0.08429 0.0562,0.112383 0.0187,0.02809 0.0398,0.05619 0.0632,0.08429 0.0936,0.135797 0.19667,0.266911 0.30905,0.393343 0.11707,0.121749 0.23647,0.246194 0.35822,0.358223 0.22477,0.201651 0.46359,0.380897 0.71645,0.537738 0.25287,0.161322 0.51275,0.313681 0.77966,0.457078 0.0609,0.03137 0.12174,0.05826 0.18263,0.08066 0.0609,0.0224 0.12408,0.04705 0.18964,0.07393 0.0375,0.01344 0.0749,0.03361 0.11239,0.0605 0.0141,0.009 0.0211,0.0224 0.0211,0.04033 0,0.0224 -0.007,0.03809 -0.0211,0.04705 -0.0375,0.02688 -0.0679,0.04257 -0.0913,0.04706 -0.15453,0.04481 -0.3114,0.07393 -0.47061,0.08738 -0.15921,0.01792 -0.32077,0.0157 -0.48466,-0.0067 -0.0609,-0.009 -0.1194,-0.02689 -0.1756,-0.05377 -0.0515,-0.0224 -0.10304,-0.05153 -0.15452,-0.08738 -0.1077,-0.06274 -0.20838,-0.132197 -0.30203,-0.208373 -0.089,-0.0717 -0.1756,-0.150119 -0.25989,-0.235262 -0.16857,-0.165802 -0.33247,-0.333845 -0.49168,-0.504129 -0.15453,-0.170284 -0.29969,-0.354816 -0.43549,-0.560853 -0.009,-0.02341 -0.0234,-0.04448 -0.0421,-0.06321 -0.0141,-0.01873 -0.0328,-0.04215 -0.0562,-0.07024 l -0.0632,0.126431 -0.16857,0.554895 c -0.0141,0.03746 -0.0281,0.07258 -0.0422,0.10536 -0.009,0.03746 -0.0234,0.07492 -0.0421,0.112383 -0.0141,0.02809 -0.0351,0.04448 -0.0632,0.04917 -0.0281,0.0047 -0.0562,-1.7e-5 -0.0843,-0.01405 -0.1077,-0.06556 -0.1873,-0.159213 -0.23881,-0.280959 -0.0515,-0.121749 -0.0609,-0.245839 -0.0281,-0.372271 0.0375,-0.145162 0.0749,-0.290324 0.11239,-0.435487 0.0421,-0.145162 0.0866,-0.290324 0.13345,-0.435486 0.0375,-0.107701 0.0281,-0.208379 -0.0281,-0.302032 -0.0983,-0.154527 -0.15687,-0.313737 -0.1756,-0.47763 -0.009,-0.03746 -0.014,-0.07258 -0.014,-0.10536 0.005,-0.03746 0.0164,-0.07258 0.0351,-0.10536 0.0234,-0.03746 0.0562,-0.06321 0.0983,-0.07726 0.0234,-0.0094 0.0421,-0.0047 0.0562,0.01405 0.0141,0.01405 0.0258,0.03278 0.0351,0.05619 l 0.0983,0.189648 c 0.0141,0.02809 0.0305,0.05619 0.0492,0.08429 0.0234,0.02341 0.0468,0.05151 0.0702,0.08429 0.0141,-0.02341 0.0258,-0.04214 0.0351,-0.05619 0.0141,-0.01405 0.0234,-0.02809 0.0281,-0.04214 0.17325,-0.412074 0.36992,-0.805417 0.59001,-1.180029 0.22477,-0.374612 0.46358,-0.744542 0.71645,-1.109789 0.0468,-0.06556 0.096,-0.126434 0.1475,-0.182623 0.0515,-0.06087 0.10304,-0.121748 0.15453,-0.182624 0.0281,-0.03278 0.0655,-0.06556 0.11238,-0.09834 0.0421,-0.03278 0.0772,-0.04683 0.10536,-0.04214 0.0281,0 0.0608,0.01873 0.0983,0.05619 l 0.0913,0.119408 c 0.0468,0.07024 0.0772,0.131114 0.0913,0.182623 0.0187,0.05151 0.0258,0.09833 0.0211,0.14048 -0.005,0.04215 -0.0187,0.08195 -0.0421,0.119408 -0.0234,0.03746 -0.0515,0.0796 -0.0843,0.126431 -0.089,0.121749 -0.17794,0.243498 -0.26691,0.365247 -0.089,0.117067 -0.1756,0.238816 -0.25989,0.365247 -0.16389,0.243498 -0.31374,0.491679 -0.44953,0.744542 -0.1358,0.252863 -0.26457,0.512751 -0.38632,0.779662 -0.0141,0.02341 -0.0258,0.04917 -0.0351,0.07726 -0.009,0.02809 -0.0187,0.05385 -0.0281,0.07726 0.0281,0.02341 0.0562,0.03278 0.0843,0.0281 0.0281,-0.0047 0.0538,-0.01169 0.0773,-0.02107 0.36057,-0.103019 0.69538,-0.266912 1.00443,-0.491679 0.17794,-0.126432 0.34183,-0.262229 0.49168,-0.407391 0.15453,-0.145162 0.29969,-0.304372 0.43549,-0.477631 0.11238,-0.149845 0.20603,-0.304372 0.28096,-0.463582 0.0749,-0.163893 0.13111,-0.339493 0.16857,-0.526799 0.0141,-0.07961 0.0164,-0.154527 0.007,-0.224767 -0.009,-0.07024 -0.0257,-0.142821 -0.0492,-0.217743 -0.1077,-0.187307 -0.24584,-0.323104 -0.41442,-0.407391 -0.16389,-0.08429 -0.34417,-0.131115 -0.54084,-0.14048 -0.19667,-0.0094 -0.40271,0.01405 -0.61811,0.07024 -0.21541,0.05151 -0.42379,0.124088 -0.62514,0.217743 -0.20135,0.08897 -0.391,0.19433 -0.56894,0.316079 -0.17794,0.117067 -0.32544,0.236474 -0.44251,0.358223 -0.089,0.09365 -0.16624,0.191989 -0.23179,0.295008 -0.0655,0.103018 -0.12407,0.21306 -0.1756,0.330127 -0.0609,0.112383 -0.0843,0.22945 -0.0702,0.351199 0,0.05151 0.007,0.09365 0.0211,0.126431 0.0234,0.06556 0.0585,0.110045 0.10536,0.133456 0.0515,0.01873 0.11007,0.0164 0.1756,-0.007 0.12175,-0.06087 0.21072,-0.140478 0.26691,-0.238815 0.0562,-0.103019 0.11473,-0.208379 0.1756,-0.31608 l 0.0702,-0.182623 c 0.009,0.01873 0.0188,0.03278 0.0281,0.04214 0.0141,0.0094 0.0211,0.01873 0.0211,0.0281 0.0141,0.38866 -0.14046,0.686008 -0.46358,0.892045 -0.089,0.05619 -0.17092,0.08429 -0.24584,0.08429 -0.0749,-0.0047 -0.14048,-0.02574 -0.19667,-0.06322 -0.0562,-0.03746 -0.10303,-0.08663 -0.14048,-0.147503 -0.0328,-0.06087 -0.0539,-0.126431 -0.0632,-0.196672 -0.009,-0.05619 -0.014,-0.112385 -0.014,-0.168575 0.005,-0.06087 0.0117,-0.119407 0.0211,-0.1756 0.0281,-0.177941 0.0889,-0.35354 0.18263,-0.526798 0.11707,-0.21072 0.25755,-0.398026 0.42144,-0.561919 0.16857,-0.168575 0.34885,-0.316079 0.54084,-0.442511 0.19199,-0.126431 0.39569,-0.231791 0.61109,-0.316079 0.2154,-0.08897 0.43548,-0.156868 0.66025,-0.203695 0.23413,-0.04683 0.46593,-0.06556 0.69538,-0.05619 0.22945,0.0094 0.45655,0.05151 0.68132,0.126432 0.24818,0.07961 0.44954,0.222426 0.60407,0.428463 0.15921,0.201354 0.24349,0.433145 0.25286,0.695374 0.005,0.252863 -0.0375,0.498702 -0.12643,0.737517 -0.0936,0.252863 -0.22009,0.482314 -0.3793,0.688351 -0.15453,0.201354 -0.33715,0.386319 -0.54787,0.554894 -0.54787,0.449535 -1.17768,0.716446 -1.88945,0.800734 -0.0375,0.0094 -0.0726,0.01639 -0.10536,0.02107 -0.0328,0.0047 -0.0679,0.0094 -0.10536,0.01405 z"
           style="font-style:normal;font-variant:normal;font-weight:normal;font-stretch:normal;font-size:7.02398px;line-height:1.25;font-family:'Heidy Indigo';-inkscape-font-specification:'Heidy Indigo';text-align:start;letter-spacing:0px;word-spacing:0px;text-anchor:start;fill:#ffffff;fill-opacity:1;stroke:none;stroke-width:0.0632952px;stroke-linecap:butt;stroke-linejoin:miter;stroke-opacity:1"
           id="path5325" />
        <path
           d="m 136.67493,53.693371 c 0.009,-0.01873 0.0281,-0.02342 0.0562,-0.01405 0.0234,0.01405 0.0328,0.03044 0.0281,0.04917 0,0.02809 0.002,0.06321 0.007,0.105359 0.005,0.04215 0.002,0.07493 -0.007,0.09834 -0.0983,0.266911 -0.24819,0.517433 -0.44954,0.751566 -0.19667,0.22945 -0.43548,0.419097 -0.71644,0.568942 -0.12175,0.06556 -0.24584,0.06789 -0.37227,0.007 -0.12175,-0.05619 -0.20838,-0.149846 -0.25989,-0.280959 l -0.0492,-0.154527 -0.1475,0.133455 c -0.0515,0.05151 -0.10773,0.100675 -0.16858,0.147504 -0.0562,0.04683 -0.11707,0.08897 -0.18262,0.126431 -0.1077,0.05619 -0.20369,0.07727 -0.28798,0.06322 -0.0843,-0.01405 -0.16858,-0.06556 -0.25287,-0.154527 -0.14984,-0.168576 -0.20369,-0.360565 -0.16155,-0.575967 0.0468,-0.243498 0.12875,-0.479972 0.24584,-0.709422 0.0655,-0.131114 0.13343,-0.259887 0.2037,-0.386319 0.0702,-0.131114 0.13814,-0.259887 0.20369,-0.386319 0.0375,-0.07492 0.0749,-0.135796 0.11238,-0.182623 0.0375,-0.04683 0.0539,-0.114725 0.0492,-0.203695 0,-0.06556 0.0398,-0.110045 0.11941,-0.133456 0.0796,-0.02341 0.15687,-0.0398 0.23179,-0.04917 0.0796,-0.0094 0.15921,-0.0094 0.23882,0 0.0515,0.0047 0.089,0.0234 0.11238,0.05619 0.0234,0.02809 0.0304,0.0679 0.0211,0.119408 -0.009,0.03746 -0.021,0.07258 -0.0351,0.105359 -0.009,0.03278 -0.021,0.06556 -0.0351,0.09834 -0.0655,0.140479 -0.13109,0.266911 -0.19667,0.379295 -0.0655,0.112383 -0.13109,0.238815 -0.19667,0.379295 -0.0749,0.163893 -0.1475,0.327785 -0.21774,0.491678 l -0.21072,0.491679 c -0.0141,0.03278 -0.0258,0.06556 -0.0351,0.09834 -0.005,0.03278 -0.0117,0.0679 -0.0211,0.105359 -0.009,0.02341 -0.002,0.04214 0.0211,0.05619 0.0234,0.01405 0.0445,0.01638 0.0632,0.007 0.0281,-0.01405 0.0562,-0.02809 0.0843,-0.04214 0.0281,-0.01873 0.0538,-0.0398 0.0773,-0.06321 0.11239,-0.107701 0.21775,-0.215402 0.31608,-0.323103 0.10302,-0.112384 0.18239,-0.24575 0.25287,-0.393343 0.18448,-0.38631 0.37151,-0.685709 0.56193,-1.032525 0.0302,-0.05506 0.0538,-0.110044 0.0773,-0.161552 0.0281,-0.05619 0.0421,-0.117068 0.0421,-0.182623 -0.009,-0.05619 0.0164,-0.09366 0.0773,-0.112384 0.0843,-0.02341 0.16857,-0.03746 0.25286,-0.04214 0.089,-0.0047 0.1756,1.7e-5 0.25989,0.01405 0.0749,0.01405 0.10769,0.06321 0.0983,0.147503 -0.009,0.05151 -0.0234,0.09833 -0.0421,0.14048 l -0.16155,0.330127 c -0.12643,0.238815 -0.25052,0.472948 -0.37227,0.702398 -0.12175,0.224767 -0.2435,0.456559 -0.36525,0.695374 -0.0234,0.03746 -0.0445,0.07492 -0.0632,0.112384 -0.0141,0.03278 -0.0234,0.0679 -0.0281,0.10536 -0.005,0.06087 0.0187,0.08663 0.0702,0.07726 0.0515,-0.01405 0.11709,-0.04917 0.19667,-0.105359 0.0796,-0.05619 0.16858,-0.128775 0.26691,-0.217744 0.0983,-0.09365 0.19199,-0.189647 0.28096,-0.287983 0.0936,-0.103018 0.1756,-0.203695 0.24584,-0.302031 0.0749,-0.103019 0.12877,-0.191989 0.16155,-0.266911 z"
           style="font-style:normal;font-variant:normal;font-weight:normal;font-stretch:normal;font-size:7.02398px;line-height:1.25;font-family:'Heidy Indigo';-inkscape-font-specification:'Heidy Indigo';text-align:start;letter-spacing:0px;word-spacing:0px;text-anchor:start;fill:#ffffff;fill-opacity:1;stroke:none;stroke-width:0.0632952px;stroke-linecap:butt;stroke-linejoin:miter;stroke-opacity:1"
           id="path5327" />
        <path
           d="m 138.26498,54.943639 c 0.0702,0.0094 0.15453,-0.02107 0.25287,-0.09131 0.10302,-0.07492 0.2037,-0.163892 0.30203,-0.266911 0.10302,-0.107701 0.19667,-0.220084 0.28096,-0.337151 0.089,-0.117066 0.15218,-0.220084 0.18965,-0.309055 0.0328,-0.03278 0.0656,-0.03511 0.0983,-0.007 0.009,0.0094 0.0187,0.0281 0.0281,0.05619 0.0141,0.02809 0.0187,0.04917 0.014,0.06322 -0.0141,0.09833 -0.0656,0.215402 -0.15452,0.351199 -0.089,0.135797 -0.19433,0.269252 -0.31608,0.400367 -0.11707,0.131114 -0.2435,0.24818 -0.3793,0.351199 -0.13579,0.103018 -0.2552,0.168575 -0.35822,0.196671 -0.0655,0.03278 -0.13811,0.04683 -0.21774,0.04214 -0.0749,-0.0047 -0.14751,-0.0234 -0.21775,-0.05619 -0.0702,-0.02809 -0.13111,-0.07024 -0.18262,-0.126432 -0.0468,-0.05619 -0.0749,-0.119409 -0.0843,-0.189647 -0.009,-0.06556 -0.005,-0.126435 0.014,-0.182624 l 0.0702,-0.182623 c 0.0281,-0.07961 0.0562,-0.15921 0.0843,-0.238815 0.0328,-0.07961 0.0679,-0.159211 0.10536,-0.238816 0.0749,-0.145162 0.15218,-0.287983 0.23179,-0.428462 0.0796,-0.145163 0.15921,-0.290325 0.23881,-0.435487 0.0234,-0.03746 0.0468,-0.08194 0.0702,-0.133456 -0.0375,-0.01873 -0.0585,-0.0281 -0.0632,-0.0281 -0.0141,0 -0.0283,0.0017 -0.0421,0.007 -0.10442,0.03997 -0.22378,0.07344 -0.30901,0.11941 -0.11888,0.06412 -0.19902,0.138138 -0.25989,0.189647 -0.0609,0.05151 -0.11238,0.107699 -0.15453,0.168576 -0.0421,0.06087 -0.0808,0.139776 -0.12643,0.231791 -0.17475,0.352466 -0.30454,0.689378 -0.43548,1.053597 -0.0406,0.112945 -0.0866,0.201354 -0.13346,0.266911 -0.0421,0.06556 -0.0936,0.07961 -0.15453,0.04214 -0.0515,-0.03278 -0.10304,-0.06322 -0.15452,-0.09131 -0.0515,-0.03278 -0.1007,-0.0679 -0.14751,-0.10536 -0.0843,-0.07024 -0.11239,-0.161552 -0.0843,-0.273935 0.005,-0.02341 0.009,-0.04449 0.014,-0.06322 0,-0.01873 0.005,-0.03981 0.014,-0.06322 0.089,-0.252863 0.18965,-0.524457 0.30203,-0.814782 0.11239,-0.290324 0.26223,-0.604062 0.44954,-0.941213 -0.0234,-0.02341 -0.0421,-0.04449 -0.0562,-0.06322 -0.0141,-0.01873 -0.0281,-0.03746 -0.0421,-0.05619 -0.0328,-0.05151 -0.0258,-0.08897 0.0211,-0.112383 0.0281,-0.01405 0.0562,-0.02575 0.0843,-0.03512 0.0328,-0.01405 0.0656,-0.02107 0.0983,-0.02107 0.0749,-0.0047 0.15686,-0.007 0.24583,-0.007 0.089,-0.0047 0.17326,-0.0023 0.25287,0.007 0.0702,0.0047 0.11472,0.0234 0.13345,0.05619 0.0234,0.03278 0.0281,0.08429 0.014,0.154527 -0.009,0.03746 -0.0351,0.08429 -0.0773,0.14048 -0.0421,0.05151 -0.0679,0.09599 -0.0773,0.133455 0.0281,0.01873 0.0491,0.02107 0.0632,0.007 0.0141,-0.01873 0.0305,-0.03278 0.0492,-0.04214 0.0328,-0.01405 0.0749,-0.03044 0.12643,-0.04917 0.0515,-0.02341 0.10538,-0.04683 0.16155,-0.07024 0.0562,-0.02341 0.11005,-0.04449 0.16155,-0.06322 0.0515,-0.02341 0.0937,-0.04214 0.12643,-0.05619 0.0421,-0.02341 0.0843,-0.03746 0.12644,-0.04214 0.0468,-0.0047 0.0936,-0.0047 0.14048,0 0.0937,0.0094 0.17793,0.0398 0.25286,0.09131 0.0796,0.05151 0.12175,0.121746 0.12643,0.210719 0,0.117067 -0.0164,0.222427 -0.0492,0.31608 -0.0234,0.06087 -0.0492,0.119406 -0.0773,0.175599 -0.0281,0.05619 -0.0585,0.114727 -0.0913,0.1756 -0.0515,0.09834 -0.10773,0.196671 -0.16858,0.295007 -0.0562,0.09833 -0.11005,0.199012 -0.16155,0.302031 -0.0421,0.07961 -0.0819,0.161552 -0.11941,0.245839 -0.0328,0.07961 -0.0679,0.161552 -0.10536,0.24584 -0.009,0.02341 -0.0117,0.04683 -0.007,0.07024 0.005,0.02341 0.0257,0.04214 0.0632,0.05619 z"
           style="font-style:normal;font-variant:normal;font-weight:normal;font-stretch:normal;font-size:7.02398px;line-height:1.25;font-family:'Heidy Indigo';-inkscape-font-specification:'Heidy Indigo';text-align:start;letter-spacing:0px;word-spacing:0px;text-anchor:start;fill:#ffffff;fill-opacity:1;stroke:none;stroke-width:0.0632952px;stroke-linecap:butt;stroke-linejoin:miter;stroke-opacity:1"
           id="path5329" />
        <path
           d="m 141.99286,52.855562 c 0.0552,-0.02562 0.0989,-0.04611 0.13112,-0.06145 0.0369,-0.01553 0.0738,-0.02871 0.11089,-0.03956 0.10201,-0.02749 0.19278,-0.04282 0.27233,-0.04598 0.16844,-0.0067 0.30243,0.06295 0.40196,0.208957 0.0544,0.07281 0.0904,0.151055 0.10772,0.23472 0.0172,0.07899 0.0229,0.163111 0.017,0.252385 -0.005,0.103295 -0.0201,0.202311 -0.0444,0.297007 -0.0197,0.09451 -0.0534,0.18958 -0.10113,0.285205 -0.12582,0.253382 -0.27841,0.482053 -0.45775,0.686013 -0.17467,0.203774 -0.38077,0.383024 -0.6183,0.537749 -0.0365,0.02488 -0.0756,0.04518 -0.11708,0.06089 l -0.11006,0.06061 c -0.22124,0.09316 -0.41963,0.05418 -0.59513,-0.116919 L 140.88,55.100064 c -0.0228,0.01497 -0.0434,0.02984 -0.0615,0.04462 -0.0183,0.01013 -0.0366,0.02254 -0.0548,0.03733 -0.0728,0.05445 -0.15245,0.05527 -0.2389,0.0025 l -0.0359,-0.01966 c -0.0961,-0.06178 -0.15728,-0.124958 -0.18328,-0.189536 -0.0262,-0.06925 -0.0227,-0.158433 0.0105,-0.267539 0.05,-0.15664 0.10956,-0.308972 0.17864,-0.456996 0.0642,-0.152517 0.13323,-0.302883 0.20701,-0.451095 l 0.78666,-1.430168 c 0.0832,-0.148584 0.16391,-0.297073 0.24237,-0.44547 0.0785,-0.148399 0.1569,-0.296796 0.23536,-0.445193 0.0219,-0.03836 0.0344,-0.07635 0.0376,-0.113969 0.007,-0.03779 -0.005,-0.07946 -0.0401,-0.124937 -0.0196,-0.02265 -0.0229,-0.04595 -0.01,-0.06991 0.0132,-0.02395 0.0361,-0.03658 0.0687,-0.03788 0.10294,-0.0041 0.20597,-0.0059 0.30909,-0.0053 0.10294,-0.0041 0.20634,0.0035 0.31021,0.02281 0.0895,0.0105 0.1194,0.05617 0.0898,0.137017 -0.008,0.03311 -0.0185,0.064 -0.0315,0.09263 -0.008,0.02843 -0.0187,0.05932 -0.0314,0.09263 l -0.6047,1.233132 z m 0.27312,0.150816 c -0.0569,0.0021 -0.11729,0.01661 -0.16547,0.03945 -0.18243,0.08646 -0.3265,0.198033 -0.42274,0.370572 -0.11833,0.206219 -0.23189,0.414593 -0.34068,0.62512 -0.10897,0.205848 -0.21298,0.418528 -0.31204,0.63804 -0.017,0.04286 -0.0292,0.0902 -0.0365,0.142042 -0.008,0.02375 -0.005,0.04473 0.01,0.06289 0.0146,0.01348 0.0337,0.02209 0.0573,0.02584 0.0756,0.01574 0.15244,0.0033 0.2305,-0.03729 0.10557,-0.05575 0.20149,-0.118142 0.28779,-0.187185 0.0861,-0.07372 0.16735,-0.151934 0.24374,-0.234641 0.10333,-0.111896 0.19702,-0.230438 0.28108,-0.355627 0.0841,-0.12519 0.16336,-0.252531 0.23788,-0.382027 0.0438,-0.07672 0.0806,-0.153168 0.11037,-0.229335 0.0296,-0.08085 0.0496,-0.165997 0.0601,-0.255453 0.0219,-0.155523 -0.0584,-0.229654 -0.24082,-0.222397 0,0 0.0534,-0.0019 -1e-5,0 z"
           style="font-style:normal;font-variant:normal;font-weight:normal;font-stretch:normal;font-size:7.02398px;line-height:1.25;font-family:'Heidy Indigo';-inkscape-font-specification:'Heidy Indigo';text-align:start;letter-spacing:0px;word-spacing:0px;text-anchor:start;fill:#ffffff;fill-opacity:1;stroke:none;stroke-width:0.0632952px;stroke-linecap:butt;stroke-linejoin:miter;stroke-opacity:1"
           id="path5331" />
        <path
           d="m 142.52744,55.709253 c -0.005,0 -0.007,-0.0023 -0.007,-0.007 h -0.014 c -0.0702,0.02809 -0.12643,0.07492 -0.16857,0.14048 -0.0468,0.06555 -0.0772,0.135793 -0.0913,0.210719 -0.0141,0.07961 -0.0141,0.15921 0,0.238815 0.009,0.08429 0.0351,0.156869 0.0773,0.217744 0.0515,0.06555 0.10538,0.107697 0.16155,0.126431 0.0562,0.01873 0.11473,0.02107 0.1756,0.007 0.0562,-0.0094 0.11473,-0.03044 0.1756,-0.06321 0.0562,-0.03278 0.11005,-0.07024 0.16155,-0.112384 0.089,-0.07492 0.17326,-0.166234 0.25286,-0.273935 0.0843,-0.107701 0.15921,-0.208379 0.22477,-0.302032 0.0796,-0.117066 0.15453,-0.236473 0.22477,-0.358222 0.0702,-0.117067 0.14048,-0.236474 0.21072,-0.358223 0.009,-0.01405 0.0234,-0.04917 0.0421,-0.10536 -0.0375,0.02341 -0.0702,0.04214 -0.0983,0.05619 -0.0281,0.01405 -0.0538,0.02575 -0.0773,0.03512 -0.11707,0.06087 -0.22008,0.08429 -0.30905,0.07024 -0.089,-0.01405 -0.18029,-0.0679 -0.27394,-0.161551 -0.0187,-0.01873 -0.0351,-0.03512 -0.0492,-0.04917 -0.0187,-0.01873 -0.0351,-0.03981 -0.0492,-0.06322 -0.0655,-0.08429 -0.0866,-0.203696 -0.0632,-0.358223 0.0234,-0.154527 0.0586,-0.315563 0.12643,-0.484654 0.12952,-0.323064 0.28379,-0.591668 0.43074,-0.89907 l 0.094,-0.196671 c 0.0159,-0.03746 0.0248,-0.07492 0.0266,-0.112384 0.007,-0.03746 0.001,-0.07492 -0.0155,-0.112384 -0.0289,-0.07961 -0.002,-0.140479 0.0792,-0.182623 l 0.0787,-0.0281 c 0.0894,-0.0094 0.16681,-0.0117 0.23213,-0.007 0.0655,0 0.13777,0.007 0.21671,0.02107 0.0735,0.02809 0.10623,0.07726 0.0981,0.147503 -0.006,0.02341 -0.0118,0.04917 -0.0178,0.07726 -0.001,0.02341 -0.007,0.04683 -0.0175,0.07024 -0.1635,0.276277 -0.31084,0.557236 -0.44202,0.842878 -0.12649,0.285641 -0.23882,0.575966 -0.34184,0.870973 -0.009,0.02341 -0.0164,0.04449 -0.0211,0.06322 -0.005,0.01873 -0.009,0.03981 -0.014,0.06322 -0.009,0.02341 -0.005,0.04683 0.014,0.07024 0.0187,0.02341 0.0398,0.04448 0.0632,0.06321 0.0234,0.01873 0.0468,0.02576 0.0702,0.02107 0.0281,-0.0047 0.0538,-0.01169 0.0773,-0.02107 0.0375,-0.02341 0.0726,-0.04683 0.10536,-0.07024 0.0375,-0.02341 0.0726,-0.04917 0.10536,-0.07726 0.0843,-0.07961 0.16155,-0.161552 0.23179,-0.245839 0.0749,-0.08897 0.13579,-0.187307 0.18262,-0.295008 0.089,-0.215402 0.18965,-0.430804 0.30203,-0.646206 0.11707,-0.215402 0.2037,-0.435487 0.25989,-0.660254 0.0234,-0.07961 0.0538,-0.152186 0.0913,-0.217743 0.009,-0.01873 0.0515,-0.03278 0.12643,-0.04214 0.0749,-0.0094 0.15219,-0.007 0.23179,0.007 0.0843,0.01405 0.15219,0.04214 0.2037,0.08429 0.0562,0.04214 0.0702,0.100673 0.0421,0.175599 -0.19667,0.524457 -0.40036,1.027843 -0.61108,1.510156 -0.20604,0.482313 -0.45656,0.959944 -0.75157,1.432892 -0.0936,0.149845 -0.20135,0.297348 -0.3231,0.44251 -0.11707,0.149845 -0.24584,0.28096 -0.38632,0.393343 -0.1358,0.117067 -0.28096,0.21072 -0.43549,0.28096 -0.15453,0.07024 -0.31374,0.105359 -0.47763,0.105359 -0.33247,-0.02341 -0.55021,-0.189647 -0.65323,-0.498702 -0.0609,-0.173259 -0.0632,-0.3512 -0.007,-0.533823 0.0515,-0.177941 0.14753,-0.323103 0.28798,-0.435487 0.0749,-0.05619 0.15219,-0.09365 0.23179,-0.112383 0.0796,-0.01873 0.1639,-0.01171 0.25287,0.02107 0.0655,0.02341 0.11938,0.06322 0.16155,0.119407 0.0421,0.06087 0.0609,0.126431 0.0562,0.196672 -0.005,0.07024 -0.0234,0.133455 -0.0562,0.189647 -0.0328,0.06087 -0.0843,0.105359 -0.15453,0.133456 -0.0749,0.03746 -0.14282,0.03513 -0.2037,-0.007 -0.0609,-0.03746 -0.0913,-0.09833 -0.0913,-0.182624 -0.005,-0.03746 -0.002,-0.07492 0.007,-0.112383 0.009,-0.03746 0.0187,-0.07492 0.0281,-0.112384 z"
           style="font-style:normal;font-variant:normal;font-weight:normal;font-stretch:normal;font-size:7.02398px;line-height:1.25;font-family:'Heidy Indigo';-inkscape-font-specification:'Heidy Indigo';text-align:start;letter-spacing:0px;word-spacing:0px;text-anchor:start;fill:#ffffff;fill-opacity:1;stroke:none;stroke-width:0.0632952px;stroke-linecap:butt;stroke-linejoin:miter;stroke-opacity:1"
           id="path5333" />
      </g>
      <path
         id="path5507"
         style="font-style:normal;font-variant:normal;font-weight:normal;font-stretch:normal;font-size:9.11103px;line-height:1.25;font-family:FjallaOne;-inkscape-font-specification:FjallaOne;text-align:start;letter-spacing:0px;word-spacing:0px;text-anchor:start;fill:#ffffff;fill-opacity:1;stroke:none;stroke-width:0.0386691px;stroke-linecap:butt;stroke-linejoin:miter;stroke-opacity:1"
         d="m -279.83553,-5.4841787 h 1.15223 v 7.5984563 h -1.15223 z" />
      <path
         id="path5509"
         style="font-style:normal;font-variant:normal;font-weight:normal;font-stretch:normal;font-size:9.11103px;line-height:1.25;font-family:FjallaOne;-inkscape-font-specification:FjallaOne;text-align:start;letter-spacing:0px;word-spacing:0px;text-anchor:start;fill:#ffffff;fill-opacity:1;stroke:none;stroke-width:0.0386691px;stroke-linecap:butt;stroke-linejoin:miter;stroke-opacity:1"
         d="m -277.451,-4.0116442 h 0.8675 l 0.10232,0.6539655 v 0.00445 q 0.13347,-0.209091 0.28472,-0.3470021 0.15571,-0.1423599 0.32031,-0.226886 0.16461,-0.084526 0.33366,-0.1201161 0.1735,-0.03559 0.34255,-0.03559 0.5383,0 0.82747,0.3781433 0.29362,0.3736946 0.29362,1.1255325 v 4.6934259 h -1.12554 v -4.6533872 q 0,-0.4048358 -0.12456,-0.5605419 -0.12457,-0.1601548 -0.3648,-0.1601548 -0.16905,0 -0.3381,0.1112186 -0.16461,0.1112187 -0.29362,0.3069634 v 4.9559019 h -1.12553 z" />
      <path
         id="path5511"
         style="font-style:normal;font-variant:normal;font-weight:normal;font-stretch:normal;font-size:9.11103px;line-height:1.25;font-family:FjallaOne;-inkscape-font-specification:FjallaOne;text-align:start;letter-spacing:0px;word-spacing:0px;text-anchor:start;fill:#ffffff;fill-opacity:1;stroke:none;stroke-width:0.0386691px;stroke-linecap:butt;stroke-linejoin:miter;stroke-opacity:1"
         d="m -272.76202,-3.1574851 h -0.52941 v -0.8541591 h 0.52941 v -0.4404257 q 0,-0.4982595 0.0979,-0.8096716 0.10232,-0.3158609 0.27582,-0.4893619 0.1735,-0.1779498 0.40484,-0.2402323 0.23578,-0.062282 0.50715,-0.062282 0.0756,0 0.16905,0.0089 0.0934,0.0089 0.18685,0.031141 0.0934,0.017795 0.1824,0.044488 0.0934,0.026692 0.1646,0.066731 v 0.7918766 q -0.16905,-0.048936 -0.37369,-0.048936 -0.10232,0 -0.19575,0.03559 -0.089,0.03559 -0.16015,0.1201161 -0.0712,0.080077 -0.11122,0.2179885 -0.04,0.1334624 -0.04,0.3336559 v 0.4404257 h 0.84971 v 0.8541591 h -0.84971 v 5.2717627 h -1.10773 z m 2.65145,-2.8205043 h 1.12553 v 8.092267 h -1.12553 z" />
      <path
         id="path5513"
         style="font-style:normal;font-variant:normal;font-weight:normal;font-stretch:normal;font-size:9.11103px;line-height:1.25;font-family:FjallaOne;-inkscape-font-specification:FjallaOne;text-align:start;letter-spacing:0px;word-spacing:0px;text-anchor:start;fill:#ffffff;fill-opacity:1;stroke:none;stroke-width:0.0386691px;stroke-linecap:butt;stroke-linejoin:miter;stroke-opacity:1"
         d="m -267.79723,-4.0116442 h 1.12554 v 4.60445103 q 0,0.40483579 0.12456,0.56499057 0.12457,0.1557061 0.3648,0.1557061 0.16905,0 0.32921,-0.093424 0.16015,-0.093424 0.28916,-0.26692473 V -4.0116442 h 1.12554 v 6.1259218 h -0.85861 l -0.11122,-0.6539655 h -0.004 q -0.13346,0.209091 -0.28472,0.3514508 -0.14681,0.1379111 -0.31141,0.2224373 -0.16016,0.080077 -0.32921,0.1156674 -0.16905,0.03559 -0.3381,0.03559 -0.5383,0 -0.83192,-0.3736946 -0.28917,-0.3736945 -0.28917,-1.12998117 z" />
      <path
         id="path5515"
         style="font-style:normal;font-variant:normal;font-weight:normal;font-stretch:normal;font-size:9.11103px;line-height:1.25;font-family:FjallaOne;-inkscape-font-specification:FjallaOne;text-align:start;letter-spacing:0px;word-spacing:0px;text-anchor:start;fill:#ffffff;fill-opacity:1;stroke:none;stroke-width:0.0386691px;stroke-linecap:butt;stroke-linejoin:miter;stroke-opacity:1"
         d="m -261.79142,2.1810088 q -0.39594,0 -0.7029,-0.1468086 -0.30252,-0.1468086 -0.51161,-0.4582207 -0.20909,-0.3114122 -0.31586,-0.79632538 -0.10677,-0.48936194 -0.10677,-1.17446866 V -1.5514882 q 0,-0.5827856 0.0845,-0.9965189 0.089,-0.418182 0.22688,-0.6984529 0.14236,-0.2847197 0.32476,-0.4493233 0.18685,-0.1646035 0.38259,-0.2491297 0.19575,-0.088975 0.38704,-0.1112186 0.19575,-0.026693 0.36035,-0.026693 0.30252,0 0.58279,0.093424 0.28027,0.088975 0.49381,0.3114121 0.21354,0.2179885 0.3381,0.5872343 0.12902,0.3692459 0.12902,0.9208902 0,0.1868473 -0.0134,0.3781433 -0.009,0.1912961 -0.0267,0.3781434 -0.0178,0.1823985 -0.0489,0.3558996 -0.0267,0.17350102 -0.0578,0.3203096 h -2.03308 v 0.62282429 q 0,0.40038704 0.0311,0.67620923 0.0311,0.27137344 0.10232,0.44042578 0.0756,0.1646035 0.2002,0.2402322 0.12901,0.07118 0.32031,0.07118 0.10232,0 0.20019,-0.040039 0.0979,-0.044487 0.16905,-0.1423598 0.0756,-0.097872 0.12012,-0.25802724 0.0445,-0.16460356 0.0445,-0.40483578 V 0.27694594 h 0.93868 v 0.23578348 q 0,0.87195398 -0.41818,1.27234108 -0.41373,0.3959383 -1.20116,0.3959383 z m 0.62282,-3.6746633 q 0.004,-0.048936 0.009,-0.1290136 0.004,-0.084526 0.004,-0.1735011 0.004,-0.088975 0.004,-0.173501 0,-0.088975 0,-0.1512574 0,-0.6050293 -0.14236,-0.871954 -0.14236,-0.2669247 -0.42263,-0.2669247 -0.14681,0 -0.25803,0.07118 -0.11122,0.066731 -0.1824,0.2313348 -0.0712,0.1601548 -0.10677,0.4270795 -0.0356,0.2669247 -0.0356,0.662863 v 0.3736946 z" />
      <path
         id="path5517"
         style="font-style:normal;font-variant:normal;font-weight:normal;font-stretch:normal;font-size:9.11103px;line-height:1.25;font-family:FjallaOne;-inkscape-font-specification:FjallaOne;text-align:start;letter-spacing:0px;word-spacing:0px;text-anchor:start;fill:#ffffff;fill-opacity:1;stroke:none;stroke-width:0.0386691px;stroke-linecap:butt;stroke-linejoin:miter;stroke-opacity:1"
         d="m -259.15776,-4.0116442 h 0.8675 l 0.10232,0.6539655 v 0.00445 q 0.13347,-0.209091 0.28472,-0.3470021 0.15571,-0.1423599 0.32031,-0.226886 0.16461,-0.084526 0.33366,-0.1201161 0.1735,-0.03559 0.34255,-0.03559 0.5383,0 0.82747,0.3781433 0.29362,0.3736946 0.29362,1.1255325 v 4.6934259 h -1.12554 v -4.6533872 q 0,-0.4048358 -0.12456,-0.5605419 -0.12457,-0.1601548 -0.3648,-0.1601548 -0.16905,0 -0.3381,0.1112186 -0.16461,0.1112187 -0.29362,0.3069634 v 4.9559019 h -1.12553 z" />
      <path
         id="path5519"
         style="font-style:normal;font-variant:normal;font-weight:normal;font-stretch:normal;font-size:9.11103px;line-height:1.25;font-family:FjallaOne;-inkscape-font-specification:FjallaOne;text-align:start;letter-spacing:0px;word-spacing:0px;text-anchor:start;fill:#ffffff;fill-opacity:1;stroke:none;stroke-width:0.0386691px;stroke-linecap:butt;stroke-linejoin:miter;stroke-opacity:1"
         d="m -253.192,2.1810088 q -0.77408,0 -1.18336,-0.6361706 -0.40484,-0.63617048 -0.40484,-1.93965274 V -1.5514882 q 0,-0.5827856 0.0845,-0.9965189 0.0845,-0.418182 0.22244,-0.6984529 0.14236,-0.2847197 0.32031,-0.4493233 0.18239,-0.1646035 0.37369,-0.2491297 0.1913,-0.088975 0.37814,-0.1112186 0.18685,-0.026693 0.34256,-0.026693 0.31141,0 0.56944,0.084526 0.25802,0.080077 0.44487,0.2491297 0.18685,0.1646035 0.28917,0.418182 0.10232,0.2535785 0.10232,0.5961318 0,0.2135398 -0.0222,0.3692459 -0.0178,0.1512573 -0.0534,0.2936171 h -0.89864 v -0.2046422 q 0,-0.4626695 -0.11122,-0.7206967 -0.10677,-0.262476 -0.3559,-0.262476 -0.13791,0 -0.24024,0.066731 -0.10232,0.062282 -0.1735,0.2179885 -0.0667,0.1557061 -0.10232,0.418182 -0.0311,0.262476 -0.0311,0.6584143 v 1.73945924 q 0,0.40038704 0.0267,0.68065797 0.0267,0.28027094 0.0934,0.45822073 0.0667,0.17350106 0.17795,0.25357846 0.11122,0.080077 0.27582,0.080077 0.0845,0 0.1646,-0.040039 0.0801,-0.044487 0.13791,-0.1423598 0.0623,-0.097872 0.0979,-0.25802724 0.04,-0.16460356 0.04,-0.40483578 V 0.27694594 h 0.96982 v 0.23578348 q 0,0.87195398 -0.38704,1.27234108 -0.38259,0.3959383 -1.14778,0.3959383 z" />
      <path
         id="path5521"
         style="font-style:normal;font-variant:normal;font-weight:normal;font-stretch:normal;font-size:9.11103px;line-height:1.25;font-family:FjallaOne;-inkscape-font-specification:FjallaOne;text-align:start;letter-spacing:0px;word-spacing:0px;text-anchor:start;fill:#ffffff;fill-opacity:1;stroke:none;stroke-width:0.0386691px;stroke-linecap:butt;stroke-linejoin:miter;stroke-opacity:1"
         d="m -249.26375,2.1810088 q -0.39594,0 -0.70291,-0.1468086 -0.30251,-0.1468086 -0.5116,-0.4582207 -0.20909,-0.3114122 -0.31586,-0.79632538 -0.10677,-0.48936194 -0.10677,-1.17446866 V -1.5514882 q 0,-0.5827856 0.0845,-0.9965189 0.089,-0.418182 0.22689,-0.6984529 0.14236,-0.2847197 0.32476,-0.4493233 0.18685,-0.1646035 0.38259,-0.2491297 0.19574,-0.088975 0.38704,-0.1112186 0.19575,-0.026693 0.36035,-0.026693 0.30251,0 0.58278,0.093424 0.28028,0.088975 0.49382,0.3114121 0.21354,0.2179885 0.3381,0.5872343 0.12901,0.3692459 0.12901,0.9208902 0,0.1868473 -0.0133,0.3781433 -0.009,0.1912961 -0.0267,0.3781434 -0.0178,0.1823985 -0.0489,0.3558996 -0.0267,0.17350102 -0.0578,0.3203096 h -2.03308 v 0.62282429 q 0,0.40038704 0.0311,0.67620923 0.0311,0.27137344 0.10232,0.44042578 0.0756,0.1646035 0.20019,0.2402322 0.12902,0.07118 0.32031,0.07118 0.10233,0 0.2002,-0.040039 0.0979,-0.044487 0.16905,-0.1423598 0.0756,-0.097872 0.12012,-0.25802724 0.0445,-0.16460356 0.0445,-0.40483578 V 0.27694594 h 0.93869 v 0.23578348 q 0,0.87195398 -0.41818,1.27234108 -0.41374,0.3959383 -1.20116,0.3959383 z m 0.62282,-3.6746633 q 0.004,-0.048936 0.009,-0.1290136 0.004,-0.084526 0.004,-0.1735011 0.004,-0.088975 0.004,-0.173501 0,-0.088975 0,-0.1512574 0,-0.6050293 -0.14236,-0.871954 -0.14235,-0.2669247 -0.42263,-0.2669247 -0.1468,0 -0.25802,0.07118 -0.11122,0.066731 -0.1824,0.2313348 -0.0712,0.1601548 -0.10677,0.4270795 -0.0356,0.2669247 -0.0356,0.662863 v 0.3736946 z" />
      <path
         id="path5523"
         style="font-style:normal;font-variant:normal;font-weight:normal;font-stretch:normal;font-size:9.11103px;line-height:1.25;font-family:FjallaOne;-inkscape-font-specification:FjallaOne;text-align:start;letter-spacing:0px;word-spacing:0px;text-anchor:start;fill:#ffffff;fill-opacity:1;stroke:none;stroke-width:0.0386691px;stroke-linecap:butt;stroke-linejoin:miter;stroke-opacity:1"
         d="m -246.6301,-4.0116442 h 0.82302 l 0.0979,0.6228243 q 0.18685,-0.3470021 0.42708,-0.5205031 0.24468,-0.1735011 0.49826,-0.1735011 0.48491,0 0.71625,0.2980659 0.23133,0.2980659 0.23133,0.8941978 0,0.075629 -0.0133,0.1823985 -0.009,0.1023211 -0.0311,0.2179885 -0.0178,0.1112186 -0.0489,0.226886 -0.0267,0.1112186 -0.0578,0.2046423 h -0.78298 v -0.5694394 q 0,-0.1868473 -0.0267,-0.3069634 -0.0222,-0.1201161 -0.0623,-0.191296 -0.04,-0.075629 -0.0934,-0.1023212 -0.0534,-0.031141 -0.11567,-0.031141 -0.13346,0 -0.24913,0.088975 -0.11122,0.084526 -0.18685,0.2402322 v 5.0448768 h -1.12553 z" />
      <path
         id="path5525"
         style="font-style:normal;font-variant:normal;font-weight:normal;font-stretch:normal;font-size:9.11103px;line-height:1.25;font-family:FjallaOne;-inkscape-font-specification:FjallaOne;text-align:start;letter-spacing:0px;word-spacing:0px;text-anchor:start;fill:#ffffff;fill-opacity:1;stroke:none;stroke-width:0.0386691px;stroke-linecap:butt;stroke-linejoin:miter;stroke-opacity:1"
         d="m -243.36472,0.83303906 q 0,-0.20019352 0.0356,-0.38704081 0.04,-0.18684729 0.0756,-0.29806591 h 0.79188 q 0,0.33365587 0.0311,0.56054186 0.0356,0.22243725 0.11122,0.3558996 0.0756,0.1334623 0.20019,0.191296 0.12901,0.057834 0.31141,0.057834 0.25358,0 0.36925,-0.1423598 0.11566,-0.1423599 0.11566,-0.32920715 0,-0.0978724 -0.0267,-0.18684729 -0.0267,-0.0889749 -0.0756,-0.17794979 -0.0489,-0.0934237 -0.12011,-0.18684729 -0.0712,-0.0934236 -0.16016,-0.20464227 l -0.82301,-0.96982639 q -0.16016,-0.20019352 -0.31142,-0.40483582 -0.14681,-0.209091 -0.26247,-0.4270795 -0.11122,-0.2224372 -0.1824,-0.4626695 -0.0667,-0.2402322 -0.0667,-0.5071569 0,-0.3558996 0.12011,-0.6183755 0.12457,-0.262476 0.32921,-0.435977 0.20909,-0.1735011 0.48046,-0.2580272 0.27138,-0.084526 0.57389,-0.084526 0.33366,0 0.60058,0.080077 0.26693,0.080077 0.45822,0.2402322 0.1913,0.1601549 0.29362,0.4003871 0.10232,0.2357835 0.10232,0.5516444 0,0.2135397 -0.04,0.4137332 -0.0356,0.2001936 -0.0712,0.3425534 h -0.77853 q -0.004,-0.3025147 -0.0267,-0.5294006 -0.0222,-0.226886 -0.0845,-0.3736946 -0.0578,-0.1512574 -0.1646,-0.226886 -0.10232,-0.075629 -0.27137,-0.075629 -0.14681,0 -0.24468,0.048936 -0.0979,0.044488 -0.16016,0.1201161 -0.0578,0.075629 -0.0845,0.1690523 -0.0222,0.093424 -0.0222,0.1912961 0,0.2135397 0.10232,0.3959383 0.10232,0.1823985 0.27138,0.3959383 l 0.89864,1.05435252 q 0.0979,0.12011611 0.22689,0.29361716 0.12901,0.16905231 0.24468,0.37814332 0.11567,0.20464227 0.19575,0.44932324 0.0801,0.24468097 0.0801,0.51160567 0,0.32475839 -0.10232,0.59168309 -0.10232,0.2624759 -0.30251,0.4493232 -0.2002,0.1868473 -0.49381,0.2891684 -0.28917,0.1023212 -0.66287,0.1023212 -0.30696,0 -0.57833,-0.066731 -0.27138,-0.07118 -0.47157,-0.226886 -0.20019,-0.1601548 -0.31586,-0.418182 -0.11567,-0.2580272 -0.11567,-0.63617054 z" />
    </g>
  </g>
</svg>
