<?xml version="1.0" encoding="UTF-8" standalone="no"?>
<svg
   xmlns:dc="http://purl.org/dc/elements/1.1/"
   xmlns:cc="http://creativecommons.org/ns#"
   xmlns:rdf="http://www.w3.org/1999/02/22-rdf-syntax-ns#"
   xmlns:svg="http://www.w3.org/2000/svg"
   xmlns="http://www.w3.org/2000/svg"
   id="svg6002"
   version="1.1"
   viewBox="0 0 68.288231 25.803358"
   height="25.803358mm"
   width="68.288231mm">
  <defs
     id="defs5996" />
  <metadata
     id="metadata5999">
    <rdf:RDF>
      <cc:Work
         rdf:about="">
        <dc:format>image/svg+xml</dc:format>
        <dc:type
           rdf:resource="http://purl.org/dc/dcmitype/StillImage" />
        <dc:title></dc:title>
      </cc:Work>
    </rdf:RDF>
  </metadata>
  <g
     id="layer1">
    <path
       transform="scale(0.26458333)"
       d="M 34.6875 17.091797 C 32.616628 17.091797 30.918778 18.649996 30.664062 20.675781 C 25.876717 18.665967 22.25922 17.671518 21.013672 18.390625 C 15.776087 21.414536 15.776087 75.845239 21.013672 78.869141 C 22.257116 79.587062 25.865189 78.598743 30.640625 76.595703 C 30.779179 78.743994 32.530836 80.431641 34.6875 80.431641 L 56.792969 80.431641 C 59.040824 80.431641 60.851562 78.597739 60.851562 76.320312 L 60.851562 59.910156 C 68.090703 55.062451 73.390625 50.656097 73.390625 48.628906 C 73.390625 46.601726 68.090703 42.197332 60.851562 37.349609 L 60.851562 21.203125 C 60.851562 18.925697 59.040824 17.091797 56.792969 17.091797 L 34.6875 17.091797 z M 35.197266 20.251953 L 56.283203 20.251953 C 57.085816 20.251953 57.732422 20.808438 57.732422 21.498047 L 57.732422 71.546875 C 57.732422 72.236484 57.085816 72.791016 56.283203 72.791016 L 35.197266 72.791016 C 34.39465 72.791016 33.748047 72.236484 33.748047 71.546875 L 33.748047 70.466797 C 33.730567 70.462261 33.711124 70.457031 33.699219 70.457031 C 33.440692 70.457043 31.579454 71.745988 31.375 71.587891 C 31.161256 71.422752 31.774775 69.163107 31.691406 68.90625 C 31.61153 68.660369 29.811493 67.288323 29.898438 67.044922 C 29.989468 66.790643 32.328524 66.676318 32.546875 66.517578 C 32.756054 66.365626 33.505224 64.228769 33.763672 64.236328 C 33.789475 64.237084 33.819752 64.257883 33.855469 64.294922 C 34.277202 64.417261 36.07624 65.578324 36.291016 65.431641 C 36.508334 65.283449 35.84635 63.078179 35.927734 62.828125 C 36.012613 62.566903 37.868035 61.074169 37.791016 60.810547 C 37.717213 60.558203 35.415916 60.506107 35.203125 60.351562 C 35.026857 60.223499 34.458195 58.797956 34.09375 58.208984 C 33.564072 58.378296 31.388813 59.864643 31.136719 59.669922 C 30.857627 59.454254 31.659957 56.503402 31.550781 56.167969 C 31.44645 55.846868 29.095047 54.054224 29.208984 53.736328 C 29.274966 53.552118 30.241459 53.425168 31.140625 53.3125 C 30.688839 53.193989 29.354083 52.335937 29.148438 52.335938 C 28.924529 52.335947 27.311829 53.453301 27.134766 53.316406 C 26.949802 53.173385 27.482409 51.214611 27.410156 50.992188 C 27.340959 50.779249 25.780037 49.591681 25.855469 49.380859 C 25.934273 49.160657 27.961021 49.061327 28.150391 48.923828 C 28.331502 48.792229 28.979218 46.942416 29.203125 46.949219 C 29.436919 46.956162 30.156334 48.852773 30.345703 48.990234 C 30.526854 49.121868 32.488056 49.165955 32.550781 49.380859 C 32.616445 49.605329 31.035144 50.875231 30.962891 51.097656 C 30.896196 51.302586 31.414913 53.049454 31.289062 53.292969 C 31.952013 53.210046 32.549662 53.134699 32.667969 53.048828 C 32.941145 52.850384 33.918408 50.060488 34.255859 50.070312 C 34.272149 50.071446 34.286798 50.078883 34.306641 50.089844 C 34.484973 50.154889 34.99015 50.469383 35.068359 50.416016 C 35.151728 50.359141 34.895986 49.513931 34.927734 49.417969 C 34.960288 49.317705 35.672311 48.743794 35.644531 48.642578 C 35.618329 48.553041 34.861848 48.530434 34.683594 48.480469 C 34.242408 48.411723 32.646404 47.378906 32.408203 47.378906 C 32.15845 47.378906 30.359816 48.625349 30.162109 48.472656 C 29.95579 48.313153 30.549341 46.128948 30.46875 45.880859 C 30.391573 45.643361 28.652166 44.319109 28.736328 44.083984 C 28.824264 43.838391 31.083718 43.727554 31.294922 43.574219 C 31.496916 43.427437 32.219037 41.363535 32.46875 41.371094 C 32.7295 41.378823 33.532937 43.493149 33.744141 43.646484 C 33.880511 43.745584 34.91996 43.801405 35.603516 43.900391 C 35.540791 43.605361 35.468439 43.303527 35.488281 43.242188 C 35.529887 43.114103 36.442044 42.383166 36.402344 42.253906 C 36.366137 42.130202 35.237222 42.103123 35.132812 42.027344 C 35.023878 41.948193 34.609191 40.857673 34.474609 40.853516 C 34.345743 40.849717 33.97355 41.914455 33.869141 41.990234 C 33.852465 42.001951 33.805216 42.01443 33.748047 42.025391 L 33.748047 42.009766 C 32.559984 41.41155 30.913732 40.402332 30.59375 40.402344 C 30.132674 40.402344 26.812107 42.701837 26.447266 42.419922 C 26.066185 42.12541 27.162547 38.094761 27.013672 37.636719 C 26.871228 37.198232 23.659224 34.750482 23.814453 34.316406 C 23.976786 33.862968 28.147652 33.660054 28.537109 33.376953 C 28.910131 33.105953 30.246193 29.295096 30.707031 29.308594 C 31.188434 29.322854 32.670693 33.228618 33.060547 33.511719 C 33.29839 33.684521 35.022984 33.784623 36.277344 33.949219 C 36.126881 33.186796 35.891721 32.256671 35.945312 32.091797 C 36.039322 31.802483 38.095107 30.149375 38.009766 29.857422 C 37.928026 29.577914 35.377997 29.520758 35.142578 29.349609 C 34.933359 29.197578 34.226252 27.394313 33.832031 26.851562 C 33.383818 27.033563 31.926632 28.017832 31.751953 27.882812 C 31.551191 27.727579 32.129388 25.602783 32.050781 25.361328 C 31.975669 25.130199 30.2815 23.84016 30.363281 23.611328 C 30.448835 23.37228 32.648268 23.264465 32.853516 23.115234 C 33.008901 23.002347 33.479768 21.728924 33.791016 21.201172 C 33.945449 20.656138 34.514068 20.251953 35.197266 20.251953 z M 22.169922 21.738281 C 22.30514 21.742315 22.720506 22.840403 22.830078 22.919922 C 22.934847 22.996027 24.069739 23.022184 24.105469 23.146484 C 24.143462 23.276339 23.229185 24.010004 23.1875 24.138672 C 23.1478 24.261837 23.473979 25.348908 23.367188 25.421875 C 23.255432 25.498123 22.274051 24.855469 22.138672 24.855469 C 22.009131 24.855469 21.075081 25.501079 20.972656 25.421875 C 20.865465 25.33916 21.174497 24.206791 21.132812 24.078125 C 21.092797 23.954955 20.190706 23.268442 20.234375 23.146484 C 20.27999 23.019129 21.450975 22.960377 21.560547 22.880859 C 21.665315 22.804743 22.0405 21.734464 22.169922 21.738281 z M 26.173828 24.896484 C 26.375782 24.90242 26.996592 26.541413 27.160156 26.660156 C 27.316614 26.773817 29.010064 26.81241 29.064453 26.998047 C 29.121145 27.191946 27.755688 28.290274 27.693359 28.482422 C 27.633809 28.666364 28.120531 30.287468 27.960938 30.396484 C 27.793999 30.510336 26.327072 29.550781 26.125 29.550781 C 25.931582 29.550781 24.53996 30.51475 24.386719 30.396484 C 24.227006 30.272934 24.687328 28.582772 24.625 28.390625 C 24.565252 28.206695 23.21614 27.180152 23.28125 26.998047 C 23.349375 26.807805 25.100109 26.722257 25.263672 26.603516 C 25.420169 26.489823 25.98049 24.890928 26.173828 24.896484 z M 21.759766 30.746094 C 21.96172 30.752029 22.584483 32.390983 22.748047 32.509766 C 22.904505 32.623427 24.597955 32.662019 24.652344 32.847656 C 24.709075 33.041563 23.343579 34.13793 23.28125 34.330078 C 23.2217 34.514008 23.70647 36.137077 23.546875 36.246094 C 23.379976 36.359965 21.914963 35.400391 21.712891 35.400391 C 21.519472 35.400391 20.125897 36.364359 19.972656 36.246094 C 19.812904 36.122555 20.273264 34.432382 20.210938 34.240234 C 20.151149 34.056292 18.804031 33.02972 18.869141 32.847656 C 18.937226 32.657414 20.688002 32.571866 20.851562 32.453125 C 21.00802 32.339456 21.566428 30.740538 21.759766 30.746094 z M 36.296875 35.308594 C 36.127356 35.303576 35.635013 36.704999 35.498047 36.804688 C 35.35473 36.908777 33.821269 36.983611 33.761719 37.150391 C 33.70459 37.310036 34.885096 38.209821 34.9375 38.371094 C 34.992284 38.539578 34.590328 40.022538 34.730469 40.130859 C 34.864655 40.234539 36.084387 39.388672 36.253906 39.388672 C 36.431048 39.388672 37.716787 40.230714 37.863281 40.130859 C 38.003422 40.035279 37.576503 38.612482 37.628906 38.451172 C 37.683653 38.282688 38.881656 37.320428 38.832031 37.150391 C 38.784432 36.987621 37.299473 36.953121 37.162109 36.853516 C 37.018832 36.74939 36.473938 35.313772 36.296875 35.308594 z M 23.876953 41.125 C 24.078907 41.130945 24.701672 42.769919 24.865234 42.888672 C 25.021692 43.002322 26.715144 43.040914 26.769531 43.226562 C 26.826263 43.420471 25.460764 44.516833 25.398438 44.708984 C 25.338887 44.892915 25.824054 46.515998 25.664062 46.625 C 25.497206 46.738858 24.032151 45.779297 23.830078 45.779297 C 23.63666 45.779297 22.243085 46.743261 22.089844 46.625 C 21.929893 46.501462 22.390453 44.811292 22.328125 44.619141 C 22.268376 44.435187 20.921218 43.408622 20.986328 43.226562 C 21.054414 43.036326 22.805187 42.950784 22.96875 42.832031 C 23.125208 42.718351 23.683615 41.119331 23.876953 41.125 z M 41.392578 42.228516 C 41.259582 42.221225 41.156673 42.235679 41.087891 42.275391 C 39.987375 42.910775 39.987375 54.348991 41.087891 54.984375 C 42.188402 55.619759 52.09375 49.901623 52.09375 48.630859 C 52.09375 47.439518 43.387527 42.337876 41.392578 42.228516 z M 22.375 48.710938 C 22.519746 48.715191 22.964915 49.889494 23.082031 49.974609 C 23.194184 50.056134 24.407565 50.08372 24.447266 50.216797 C 24.487919 50.3558 23.509703 51.141533 23.464844 51.279297 C 23.421969 51.411134 23.770981 52.574221 23.65625 52.652344 C 23.536634 52.733959 22.486704 52.046875 22.341797 52.046875 C 22.203164 52.046875 21.203322 52.737119 21.09375 52.652344 C 20.979019 52.563797 21.308531 51.35257 21.263672 51.214844 C 21.220835 51.082991 20.255887 50.347342 20.302734 50.216797 C 20.351565 50.080432 21.60554 50.018709 21.722656 49.933594 C 21.834809 49.852103 22.236446 48.70678 22.375 48.710938 z M 27.154297 53.894531 C 27.356251 53.90048 27.979015 55.53945 28.142578 55.658203 C 28.299076 55.771891 29.992484 55.810443 30.046875 55.996094 C 30.103606 56.190014 28.738109 57.286364 28.675781 57.478516 C 28.616231 57.662454 29.101001 59.28553 28.941406 59.394531 C 28.774507 59.50839 27.309494 58.548828 27.107422 58.548828 C 26.914003 58.548828 25.520426 59.512793 25.367188 59.394531 C 25.207436 59.27099 25.667797 57.580823 25.605469 57.388672 C 25.54568 57.204718 24.198566 56.178191 24.263672 55.996094 C 24.331757 55.805897 26.082531 55.720315 26.246094 55.601562 C 26.402552 55.487884 26.960959 53.888862 27.154297 53.894531 z M 30.083984 58.037109 C 30.359622 58.045296 31.208528 60.281255 31.431641 60.443359 C 31.645187 60.59849 33.955059 60.650917 34.029297 60.904297 C 34.106712 61.16897 32.243556 62.667426 32.158203 62.929688 C 32.076658 63.180752 32.74139 65.394169 32.523438 65.542969 C 32.295678 65.698387 30.293495 64.388661 30.017578 64.388672 C 29.753613 64.388672 27.853354 65.704392 27.644531 65.542969 C 27.426259 65.374338 28.054107 63.066947 27.96875 62.804688 C 27.887167 62.553625 26.04779 61.152801 26.136719 60.904297 C 26.229657 60.644689 28.618684 60.529289 28.841797 60.367188 C 29.055344 60.212042 29.819981 58.029172 30.083984 58.037109 z M 45.740234 74.458984 A 2.1954661 2.1954661 0 0 1 47.935547 76.654297 A 2.1954661 2.1954661 0 0 1 45.740234 78.849609 A 2.1954661 2.1954661 0 0 1 43.544922 76.654297 A 2.1954661 2.1954661 0 0 1 45.740234 74.458984 z "
       style="fill:#fefefe;fill-opacity:1;fill-rule:evenodd;stroke:none;stroke-width:0.326646;stroke-linecap:butt;stroke-linejoin:miter;stroke-miterlimit:4.1;stroke-dasharray:none;stroke-dashoffset:0;stroke-opacity:1"
       id="path4576" />
    <g
       style="fill:#fefefe;fill-opacity:1"
       id="g6667">
      <g
         id="g4596"
         transform="matrix(1.0794613,0,0,1.0794613,-105.53573,-49.310044)"
         style="fill:#fefefe;fill-opacity:1">
        <path
           d="m 131.31783,54.11481 c 0.0234,0.04683 0.0421,0.08429 0.0562,0.112383 0.0187,0.02809 0.0398,0.05619 0.0632,0.08429 0.0936,0.135797 0.19667,0.266911 0.30905,0.393343 0.11707,0.121749 0.23647,0.246194 0.35822,0.358223 0.22477,0.201651 0.46359,0.380897 0.71645,0.537738 0.25287,0.161322 0.51275,0.313681 0.77966,0.457078 0.0609,0.03137 0.12174,0.05826 0.18263,0.08066 0.0609,0.0224 0.12408,0.04705 0.18964,0.07393 0.0375,0.01344 0.0749,0.03361 0.11239,0.0605 0.0141,0.009 0.0211,0.0224 0.0211,0.04033 0,0.0224 -0.007,0.03809 -0.0211,0.04705 -0.0375,0.02688 -0.0679,0.04257 -0.0913,0.04706 -0.15453,0.04481 -0.3114,0.07393 -0.47061,0.08738 -0.15921,0.01792 -0.32077,0.0157 -0.48466,-0.0067 -0.0609,-0.009 -0.1194,-0.02689 -0.1756,-0.05377 -0.0515,-0.0224 -0.10304,-0.05153 -0.15452,-0.08738 -0.1077,-0.06274 -0.20838,-0.132197 -0.30203,-0.208373 -0.089,-0.0717 -0.1756,-0.150119 -0.25989,-0.235262 -0.16857,-0.165802 -0.33247,-0.333845 -0.49168,-0.504129 -0.15453,-0.170284 -0.29969,-0.354816 -0.43549,-0.560853 -0.009,-0.02341 -0.0234,-0.04448 -0.0421,-0.06321 -0.0141,-0.01873 -0.0328,-0.04215 -0.0562,-0.07024 l -0.0632,0.126431 -0.16857,0.554895 c -0.0141,0.03746 -0.0281,0.07258 -0.0422,0.10536 -0.009,0.03746 -0.0234,0.07492 -0.0421,0.112383 -0.0141,0.02809 -0.0351,0.04448 -0.0632,0.04917 -0.0281,0.0047 -0.0562,-1.7e-5 -0.0843,-0.01405 -0.1077,-0.06556 -0.1873,-0.159213 -0.23881,-0.280959 -0.0515,-0.121749 -0.0609,-0.245839 -0.0281,-0.372271 0.0375,-0.145162 0.0749,-0.290324 0.11239,-0.435487 0.0421,-0.145162 0.0866,-0.290324 0.13345,-0.435486 0.0375,-0.107701 0.0281,-0.208379 -0.0281,-0.302032 -0.0983,-0.154527 -0.15687,-0.313737 -0.1756,-0.47763 -0.009,-0.03746 -0.014,-0.07258 -0.014,-0.10536 0.005,-0.03746 0.0164,-0.07258 0.0351,-0.10536 0.0234,-0.03746 0.0562,-0.06321 0.0983,-0.07726 0.0234,-0.0094 0.0421,-0.0047 0.0562,0.01405 0.0141,0.01405 0.0258,0.03278 0.0351,0.05619 l 0.0983,0.189648 c 0.0141,0.02809 0.0305,0.05619 0.0492,0.08429 0.0234,0.02341 0.0468,0.05151 0.0702,0.08429 0.0141,-0.02341 0.0258,-0.04214 0.0351,-0.05619 0.0141,-0.01405 0.0234,-0.02809 0.0281,-0.04214 0.17325,-0.412074 0.36992,-0.805417 0.59001,-1.180029 0.22477,-0.374612 0.46358,-0.744542 0.71645,-1.109789 0.0468,-0.06556 0.096,-0.126434 0.1475,-0.182623 0.0515,-0.06087 0.10304,-0.121748 0.15453,-0.182624 0.0281,-0.03278 0.0655,-0.06556 0.11238,-0.09834 0.0421,-0.03278 0.0772,-0.04683 0.10536,-0.04214 0.0281,0 0.0608,0.01873 0.0983,0.05619 l 0.0913,0.119408 c 0.0468,0.07024 0.0772,0.131114 0.0913,0.182623 0.0187,0.05151 0.0258,0.09833 0.0211,0.14048 -0.005,0.04215 -0.0187,0.08195 -0.0421,0.119408 -0.0234,0.03746 -0.0515,0.0796 -0.0843,0.126431 -0.089,0.121749 -0.17794,0.243498 -0.26691,0.365247 -0.089,0.117067 -0.1756,0.238816 -0.25989,0.365247 -0.16389,0.243498 -0.31374,0.491679 -0.44953,0.744542 -0.1358,0.252863 -0.26457,0.512751 -0.38632,0.779662 -0.0141,0.02341 -0.0258,0.04917 -0.0351,0.07726 -0.009,0.02809 -0.0187,0.05385 -0.0281,0.07726 0.0281,0.02341 0.0562,0.03278 0.0843,0.0281 0.0281,-0.0047 0.0538,-0.01169 0.0773,-0.02107 0.36057,-0.103019 0.69538,-0.266912 1.00443,-0.491679 0.17794,-0.126432 0.34183,-0.262229 0.49168,-0.407391 0.15453,-0.145162 0.29969,-0.304372 0.43549,-0.477631 0.11238,-0.149845 0.20603,-0.304372 0.28096,-0.463582 0.0749,-0.163893 0.13111,-0.339493 0.16857,-0.526799 0.0141,-0.07961 0.0164,-0.154527 0.007,-0.224767 -0.009,-0.07024 -0.0257,-0.142821 -0.0492,-0.217743 -0.1077,-0.187307 -0.24584,-0.323104 -0.41442,-0.407391 -0.16389,-0.08429 -0.34417,-0.131115 -0.54084,-0.14048 -0.19667,-0.0094 -0.40271,0.01405 -0.61811,0.07024 -0.21541,0.05151 -0.42379,0.124088 -0.62514,0.217743 -0.20135,0.08897 -0.391,0.19433 -0.56894,0.316079 -0.17794,0.117067 -0.32544,0.236474 -0.44251,0.358223 -0.089,0.09365 -0.16624,0.191989 -0.23179,0.295008 -0.0655,0.103018 -0.12407,0.21306 -0.1756,0.330127 -0.0609,0.112383 -0.0843,0.22945 -0.0702,0.351199 0,0.05151 0.007,0.09365 0.0211,0.126431 0.0234,0.06556 0.0585,0.110045 0.10536,0.133456 0.0515,0.01873 0.11007,0.0164 0.1756,-0.007 0.12175,-0.06087 0.21072,-0.140478 0.26691,-0.238815 0.0562,-0.103019 0.11473,-0.208379 0.1756,-0.31608 l 0.0702,-0.182623 c 0.009,0.01873 0.0188,0.03278 0.0281,0.04214 0.0141,0.0094 0.0211,0.01873 0.0211,0.0281 0.0141,0.38866 -0.14046,0.686008 -0.46358,0.892045 -0.089,0.05619 -0.17092,0.08429 -0.24584,0.08429 -0.0749,-0.0047 -0.14048,-0.02574 -0.19667,-0.06322 -0.0562,-0.03746 -0.10303,-0.08663 -0.14048,-0.147503 -0.0328,-0.06087 -0.0539,-0.126431 -0.0632,-0.196672 -0.009,-0.05619 -0.014,-0.112385 -0.014,-0.168575 0.005,-0.06087 0.0117,-0.119407 0.0211,-0.1756 0.0281,-0.177941 0.0889,-0.35354 0.18263,-0.526798 0.11707,-0.21072 0.25755,-0.398026 0.42144,-0.561919 0.16857,-0.168575 0.34885,-0.316079 0.54084,-0.442511 0.19199,-0.126431 0.39569,-0.231791 0.61109,-0.316079 0.2154,-0.08897 0.43548,-0.156868 0.66025,-0.203695 0.23413,-0.04683 0.46593,-0.06556 0.69538,-0.05619 0.22945,0.0094 0.45655,0.05151 0.68132,0.126432 0.24818,0.07961 0.44954,0.222426 0.60407,0.428463 0.15921,0.201354 0.24349,0.433145 0.25286,0.695374 0.005,0.252863 -0.0375,0.498702 -0.12643,0.737517 -0.0936,0.252863 -0.22009,0.482314 -0.3793,0.688351 -0.15453,0.201354 -0.33715,0.386319 -0.54787,0.554894 -0.54787,0.449535 -1.17768,0.716446 -1.88945,0.800734 -0.0375,0.0094 -0.0726,0.01639 -0.10536,0.02107 -0.0328,0.0047 -0.0679,0.0094 -0.10536,0.01405 z"
           style="font-style:normal;font-variant:normal;font-weight:normal;font-stretch:normal;font-size:7.02398px;line-height:1.25;font-family:'Heidy Indigo';-inkscape-font-specification:'Heidy Indigo';text-align:start;letter-spacing:0px;word-spacing:0px;text-anchor:start;fill:#fefefe;fill-opacity:1;stroke:none;stroke-width:0.0632952px;stroke-linecap:butt;stroke-linejoin:miter;stroke-opacity:1"
           id="path4586" />
        <path
           d="m 136.67493,53.693371 c 0.009,-0.01873 0.0281,-0.02342 0.0562,-0.01405 0.0234,0.01405 0.0328,0.03044 0.0281,0.04917 0,0.02809 0.002,0.06321 0.007,0.105359 0.005,0.04215 0.002,0.07493 -0.007,0.09834 -0.0983,0.266911 -0.24819,0.517433 -0.44954,0.751566 -0.19667,0.22945 -0.43548,0.419097 -0.71644,0.568942 -0.12175,0.06556 -0.24584,0.06789 -0.37227,0.007 -0.12175,-0.05619 -0.20838,-0.149846 -0.25989,-0.280959 l -0.0492,-0.154527 -0.1475,0.133455 c -0.0515,0.05151 -0.10773,0.100675 -0.16858,0.147504 -0.0562,0.04683 -0.11707,0.08897 -0.18262,0.126431 -0.1077,0.05619 -0.20369,0.07727 -0.28798,0.06322 -0.0843,-0.01405 -0.16858,-0.06556 -0.25287,-0.154527 -0.14984,-0.168576 -0.20369,-0.360565 -0.16155,-0.575967 0.0468,-0.243498 0.12875,-0.479972 0.24584,-0.709422 0.0655,-0.131114 0.13343,-0.259887 0.2037,-0.386319 0.0702,-0.131114 0.13814,-0.259887 0.20369,-0.386319 0.0375,-0.07492 0.0749,-0.135796 0.11238,-0.182623 0.0375,-0.04683 0.0539,-0.114725 0.0492,-0.203695 0,-0.06556 0.0398,-0.110045 0.11941,-0.133456 0.0796,-0.02341 0.15687,-0.0398 0.23179,-0.04917 0.0796,-0.0094 0.15921,-0.0094 0.23882,0 0.0515,0.0047 0.089,0.0234 0.11238,0.05619 0.0234,0.02809 0.0304,0.0679 0.0211,0.119408 -0.009,0.03746 -0.021,0.07258 -0.0351,0.105359 -0.009,0.03278 -0.021,0.06556 -0.0351,0.09834 -0.0655,0.140479 -0.13109,0.266911 -0.19667,0.379295 -0.0655,0.112383 -0.13109,0.238815 -0.19667,0.379295 -0.0749,0.163893 -0.1475,0.327785 -0.21774,0.491678 l -0.21072,0.491679 c -0.0141,0.03278 -0.0258,0.06556 -0.0351,0.09834 -0.005,0.03278 -0.0117,0.0679 -0.0211,0.105359 -0.009,0.02341 -0.002,0.04214 0.0211,0.05619 0.0234,0.01405 0.0445,0.01638 0.0632,0.007 0.0281,-0.01405 0.0562,-0.02809 0.0843,-0.04214 0.0281,-0.01873 0.0538,-0.0398 0.0773,-0.06321 0.11239,-0.107701 0.21775,-0.215402 0.31608,-0.323103 0.10302,-0.112384 0.18239,-0.24575 0.25287,-0.393343 0.18448,-0.38631 0.37151,-0.685709 0.56193,-1.032525 0.0302,-0.05506 0.0538,-0.110044 0.0773,-0.161552 0.0281,-0.05619 0.0421,-0.117068 0.0421,-0.182623 -0.009,-0.05619 0.0164,-0.09366 0.0773,-0.112384 0.0843,-0.02341 0.16857,-0.03746 0.25286,-0.04214 0.089,-0.0047 0.1756,1.7e-5 0.25989,0.01405 0.0749,0.01405 0.10769,0.06321 0.0983,0.147503 -0.009,0.05151 -0.0234,0.09833 -0.0421,0.14048 l -0.16155,0.330127 c -0.12643,0.238815 -0.25052,0.472948 -0.37227,0.702398 -0.12175,0.224767 -0.2435,0.456559 -0.36525,0.695374 -0.0234,0.03746 -0.0445,0.07492 -0.0632,0.112384 -0.0141,0.03278 -0.0234,0.0679 -0.0281,0.10536 -0.005,0.06087 0.0187,0.08663 0.0702,0.07726 0.0515,-0.01405 0.11709,-0.04917 0.19667,-0.105359 0.0796,-0.05619 0.16858,-0.128775 0.26691,-0.217744 0.0983,-0.09365 0.19199,-0.189647 0.28096,-0.287983 0.0936,-0.103018 0.1756,-0.203695 0.24584,-0.302031 0.0749,-0.103019 0.12877,-0.191989 0.16155,-0.266911 z"
           style="font-style:normal;font-variant:normal;font-weight:normal;font-stretch:normal;font-size:7.02398px;line-height:1.25;font-family:'Heidy Indigo';-inkscape-font-specification:'Heidy Indigo';text-align:start;letter-spacing:0px;word-spacing:0px;text-anchor:start;fill:#fefefe;fill-opacity:1;stroke:none;stroke-width:0.0632952px;stroke-linecap:butt;stroke-linejoin:miter;stroke-opacity:1"
           id="path4588" />
        <path
           d="m 138.26498,54.943639 c 0.0702,0.0094 0.15453,-0.02107 0.25287,-0.09131 0.10302,-0.07492 0.2037,-0.163892 0.30203,-0.266911 0.10302,-0.107701 0.19667,-0.220084 0.28096,-0.337151 0.089,-0.117066 0.15218,-0.220084 0.18965,-0.309055 0.0328,-0.03278 0.0656,-0.03511 0.0983,-0.007 0.009,0.0094 0.0187,0.0281 0.0281,0.05619 0.0141,0.02809 0.0187,0.04917 0.014,0.06322 -0.0141,0.09833 -0.0656,0.215402 -0.15452,0.351199 -0.089,0.135797 -0.19433,0.269252 -0.31608,0.400367 -0.11707,0.131114 -0.2435,0.24818 -0.3793,0.351199 -0.13579,0.103018 -0.2552,0.168575 -0.35822,0.196671 -0.0655,0.03278 -0.13811,0.04683 -0.21774,0.04214 -0.0749,-0.0047 -0.14751,-0.0234 -0.21775,-0.05619 -0.0702,-0.02809 -0.13111,-0.07024 -0.18262,-0.126432 -0.0468,-0.05619 -0.0749,-0.119409 -0.0843,-0.189647 -0.009,-0.06556 -0.005,-0.126435 0.014,-0.182624 l 0.0702,-0.182623 c 0.0281,-0.07961 0.0562,-0.15921 0.0843,-0.238815 0.0328,-0.07961 0.0679,-0.159211 0.10536,-0.238816 0.0749,-0.145162 0.15218,-0.287983 0.23179,-0.428462 0.0796,-0.145163 0.15921,-0.290325 0.23881,-0.435487 0.0234,-0.03746 0.0468,-0.08194 0.0702,-0.133456 -0.0375,-0.01873 -0.0585,-0.0281 -0.0632,-0.0281 -0.0141,0 -0.0283,0.0017 -0.0421,0.007 -0.10442,0.03997 -0.22378,0.07344 -0.30901,0.11941 -0.11888,0.06412 -0.19902,0.138138 -0.25989,0.189647 -0.0609,0.05151 -0.11238,0.107699 -0.15453,0.168576 -0.0421,0.06087 -0.0808,0.139776 -0.12643,0.231791 -0.17475,0.352466 -0.30454,0.689378 -0.43548,1.053597 -0.0406,0.112945 -0.0866,0.201354 -0.13346,0.266911 -0.0421,0.06556 -0.0936,0.07961 -0.15453,0.04214 -0.0515,-0.03278 -0.10304,-0.06322 -0.15452,-0.09131 -0.0515,-0.03278 -0.1007,-0.0679 -0.14751,-0.10536 -0.0843,-0.07024 -0.11239,-0.161552 -0.0843,-0.273935 0.005,-0.02341 0.009,-0.04449 0.014,-0.06322 0,-0.01873 0.005,-0.03981 0.014,-0.06322 0.089,-0.252863 0.18965,-0.524457 0.30203,-0.814782 0.11239,-0.290324 0.26223,-0.604062 0.44954,-0.941213 -0.0234,-0.02341 -0.0421,-0.04449 -0.0562,-0.06322 -0.0141,-0.01873 -0.0281,-0.03746 -0.0421,-0.05619 -0.0328,-0.05151 -0.0258,-0.08897 0.0211,-0.112383 0.0281,-0.01405 0.0562,-0.02575 0.0843,-0.03512 0.0328,-0.01405 0.0656,-0.02107 0.0983,-0.02107 0.0749,-0.0047 0.15686,-0.007 0.24583,-0.007 0.089,-0.0047 0.17326,-0.0023 0.25287,0.007 0.0702,0.0047 0.11472,0.0234 0.13345,0.05619 0.0234,0.03278 0.0281,0.08429 0.014,0.154527 -0.009,0.03746 -0.0351,0.08429 -0.0773,0.14048 -0.0421,0.05151 -0.0679,0.09599 -0.0773,0.133455 0.0281,0.01873 0.0491,0.02107 0.0632,0.007 0.0141,-0.01873 0.0305,-0.03278 0.0492,-0.04214 0.0328,-0.01405 0.0749,-0.03044 0.12643,-0.04917 0.0515,-0.02341 0.10538,-0.04683 0.16155,-0.07024 0.0562,-0.02341 0.11005,-0.04449 0.16155,-0.06322 0.0515,-0.02341 0.0937,-0.04214 0.12643,-0.05619 0.0421,-0.02341 0.0843,-0.03746 0.12644,-0.04214 0.0468,-0.0047 0.0936,-0.0047 0.14048,0 0.0937,0.0094 0.17793,0.0398 0.25286,0.09131 0.0796,0.05151 0.12175,0.121746 0.12643,0.210719 0,0.117067 -0.0164,0.222427 -0.0492,0.31608 -0.0234,0.06087 -0.0492,0.119406 -0.0773,0.175599 -0.0281,0.05619 -0.0585,0.114727 -0.0913,0.1756 -0.0515,0.09834 -0.10773,0.196671 -0.16858,0.295007 -0.0562,0.09833 -0.11005,0.199012 -0.16155,0.302031 -0.0421,0.07961 -0.0819,0.161552 -0.11941,0.245839 -0.0328,0.07961 -0.0679,0.161552 -0.10536,0.24584 -0.009,0.02341 -0.0117,0.04683 -0.007,0.07024 0.005,0.02341 0.0257,0.04214 0.0632,0.05619 z"
           style="font-style:normal;font-variant:normal;font-weight:normal;font-stretch:normal;font-size:7.02398px;line-height:1.25;font-family:'Heidy Indigo';-inkscape-font-specification:'Heidy Indigo';text-align:start;letter-spacing:0px;word-spacing:0px;text-anchor:start;fill:#fefefe;fill-opacity:1;stroke:none;stroke-width:0.0632952px;stroke-linecap:butt;stroke-linejoin:miter;stroke-opacity:1"
           id="path4590" />
        <path
           d="m 141.99286,52.855562 c 0.0552,-0.02562 0.0989,-0.04611 0.13112,-0.06145 0.0369,-0.01553 0.0738,-0.02871 0.11089,-0.03956 0.10201,-0.02749 0.19278,-0.04282 0.27233,-0.04598 0.16844,-0.0067 0.30243,0.06295 0.40196,0.208957 0.0544,0.07281 0.0904,0.151055 0.10772,0.23472 0.0172,0.07899 0.0229,0.163111 0.017,0.252385 -0.005,0.103295 -0.0201,0.202311 -0.0444,0.297007 -0.0197,0.09451 -0.0534,0.18958 -0.10113,0.285205 -0.12582,0.253382 -0.27841,0.482053 -0.45775,0.686013 -0.17467,0.203774 -0.38077,0.383024 -0.6183,0.537749 -0.0365,0.02488 -0.0756,0.04518 -0.11708,0.06089 l -0.11006,0.06061 c -0.22124,0.09316 -0.41963,0.05418 -0.59513,-0.116919 L 140.88,55.100064 c -0.0228,0.01497 -0.0434,0.02984 -0.0615,0.04462 -0.0183,0.01013 -0.0366,0.02254 -0.0548,0.03733 -0.0728,0.05445 -0.15245,0.05527 -0.2389,0.0025 l -0.0359,-0.01966 c -0.0961,-0.06178 -0.15728,-0.124958 -0.18328,-0.189536 -0.0262,-0.06925 -0.0227,-0.158433 0.0105,-0.267539 0.05,-0.15664 0.10956,-0.308972 0.17864,-0.456996 0.0642,-0.152517 0.13323,-0.302883 0.20701,-0.451095 l 0.78666,-1.430168 c 0.0832,-0.148584 0.16391,-0.297073 0.24237,-0.44547 0.0785,-0.148399 0.1569,-0.296796 0.23536,-0.445193 0.0219,-0.03836 0.0344,-0.07635 0.0376,-0.113969 0.007,-0.03779 -0.005,-0.07946 -0.0401,-0.124937 -0.0196,-0.02265 -0.0229,-0.04595 -0.01,-0.06991 0.0132,-0.02395 0.0361,-0.03658 0.0687,-0.03788 0.10294,-0.0041 0.20597,-0.0059 0.30909,-0.0053 0.10294,-0.0041 0.20634,0.0035 0.31021,0.02281 0.0895,0.0105 0.1194,0.05617 0.0898,0.137017 -0.008,0.03311 -0.0185,0.064 -0.0315,0.09263 -0.008,0.02843 -0.0187,0.05932 -0.0314,0.09263 l -0.6047,1.233132 z m 0.27312,0.150816 c -0.0569,0.0021 -0.11729,0.01661 -0.16547,0.03945 -0.18243,0.08646 -0.3265,0.198033 -0.42274,0.370572 -0.11833,0.206219 -0.23189,0.414593 -0.34068,0.62512 -0.10897,0.205848 -0.21298,0.418528 -0.31204,0.63804 -0.017,0.04286 -0.0292,0.0902 -0.0365,0.142042 -0.008,0.02375 -0.005,0.04473 0.01,0.06289 0.0146,0.01348 0.0337,0.02209 0.0573,0.02584 0.0756,0.01574 0.15244,0.0033 0.2305,-0.03729 0.10557,-0.05575 0.20149,-0.118142 0.28779,-0.187185 0.0861,-0.07372 0.16735,-0.151934 0.24374,-0.234641 0.10333,-0.111896 0.19702,-0.230438 0.28108,-0.355627 0.0841,-0.12519 0.16336,-0.252531 0.23788,-0.382027 0.0438,-0.07672 0.0806,-0.153168 0.11037,-0.229335 0.0296,-0.08085 0.0496,-0.165997 0.0601,-0.255453 0.0219,-0.155523 -0.0584,-0.229654 -0.24082,-0.222397 0,0 0.0534,-0.0019 -1e-5,0 z"
           style="font-style:normal;font-variant:normal;font-weight:normal;font-stretch:normal;font-size:7.02398px;line-height:1.25;font-family:'Heidy Indigo';-inkscape-font-specification:'Heidy Indigo';text-align:start;letter-spacing:0px;word-spacing:0px;text-anchor:start;fill:#fefefe;fill-opacity:1;stroke:none;stroke-width:0.0632952px;stroke-linecap:butt;stroke-linejoin:miter;stroke-opacity:1"
           id="path4592" />
        <path
           d="m 142.52744,55.709253 c -0.005,0 -0.007,-0.0023 -0.007,-0.007 h -0.014 c -0.0702,0.02809 -0.12643,0.07492 -0.16857,0.14048 -0.0468,0.06555 -0.0772,0.135793 -0.0913,0.210719 -0.0141,0.07961 -0.0141,0.15921 0,0.238815 0.009,0.08429 0.0351,0.156869 0.0773,0.217744 0.0515,0.06555 0.10538,0.107697 0.16155,0.126431 0.0562,0.01873 0.11473,0.02107 0.1756,0.007 0.0562,-0.0094 0.11473,-0.03044 0.1756,-0.06321 0.0562,-0.03278 0.11005,-0.07024 0.16155,-0.112384 0.089,-0.07492 0.17326,-0.166234 0.25286,-0.273935 0.0843,-0.107701 0.15921,-0.208379 0.22477,-0.302032 0.0796,-0.117066 0.15453,-0.236473 0.22477,-0.358222 0.0702,-0.117067 0.14048,-0.236474 0.21072,-0.358223 0.009,-0.01405 0.0234,-0.04917 0.0421,-0.10536 -0.0375,0.02341 -0.0702,0.04214 -0.0983,0.05619 -0.0281,0.01405 -0.0538,0.02575 -0.0773,0.03512 -0.11707,0.06087 -0.22008,0.08429 -0.30905,0.07024 -0.089,-0.01405 -0.18029,-0.0679 -0.27394,-0.161551 -0.0187,-0.01873 -0.0351,-0.03512 -0.0492,-0.04917 -0.0187,-0.01873 -0.0351,-0.03981 -0.0492,-0.06322 -0.0655,-0.08429 -0.0866,-0.203696 -0.0632,-0.358223 0.0234,-0.154527 0.0586,-0.315563 0.12643,-0.484654 0.12952,-0.323064 0.28379,-0.591668 0.43074,-0.89907 l 0.094,-0.196671 c 0.0159,-0.03746 0.0248,-0.07492 0.0266,-0.112384 0.007,-0.03746 0.001,-0.07492 -0.0155,-0.112384 -0.0289,-0.07961 -0.002,-0.140479 0.0792,-0.182623 l 0.0787,-0.0281 c 0.0894,-0.0094 0.16681,-0.0117 0.23213,-0.007 0.0655,0 0.13777,0.007 0.21671,0.02107 0.0735,0.02809 0.10623,0.07726 0.0981,0.147503 -0.006,0.02341 -0.0118,0.04917 -0.0178,0.07726 -0.001,0.02341 -0.007,0.04683 -0.0175,0.07024 -0.1635,0.276277 -0.31084,0.557236 -0.44202,0.842878 -0.12649,0.285641 -0.23882,0.575966 -0.34184,0.870973 -0.009,0.02341 -0.0164,0.04449 -0.0211,0.06322 -0.005,0.01873 -0.009,0.03981 -0.014,0.06322 -0.009,0.02341 -0.005,0.04683 0.014,0.07024 0.0187,0.02341 0.0398,0.04448 0.0632,0.06321 0.0234,0.01873 0.0468,0.02576 0.0702,0.02107 0.0281,-0.0047 0.0538,-0.01169 0.0773,-0.02107 0.0375,-0.02341 0.0726,-0.04683 0.10536,-0.07024 0.0375,-0.02341 0.0726,-0.04917 0.10536,-0.07726 0.0843,-0.07961 0.16155,-0.161552 0.23179,-0.245839 0.0749,-0.08897 0.13579,-0.187307 0.18262,-0.295008 0.089,-0.215402 0.18965,-0.430804 0.30203,-0.646206 0.11707,-0.215402 0.2037,-0.435487 0.25989,-0.660254 0.0234,-0.07961 0.0538,-0.152186 0.0913,-0.217743 0.009,-0.01873 0.0515,-0.03278 0.12643,-0.04214 0.0749,-0.0094 0.15219,-0.007 0.23179,0.007 0.0843,0.01405 0.15219,0.04214 0.2037,0.08429 0.0562,0.04214 0.0702,0.100673 0.0421,0.175599 -0.19667,0.524457 -0.40036,1.027843 -0.61108,1.510156 -0.20604,0.482313 -0.45656,0.959944 -0.75157,1.432892 -0.0936,0.149845 -0.20135,0.297348 -0.3231,0.44251 -0.11707,0.149845 -0.24584,0.28096 -0.38632,0.393343 -0.1358,0.117067 -0.28096,0.21072 -0.43549,0.28096 -0.15453,0.07024 -0.31374,0.105359 -0.47763,0.105359 -0.33247,-0.02341 -0.55021,-0.189647 -0.65323,-0.498702 -0.0609,-0.173259 -0.0632,-0.3512 -0.007,-0.533823 0.0515,-0.177941 0.14753,-0.323103 0.28798,-0.435487 0.0749,-0.05619 0.15219,-0.09365 0.23179,-0.112383 0.0796,-0.01873 0.1639,-0.01171 0.25287,0.02107 0.0655,0.02341 0.11938,0.06322 0.16155,0.119407 0.0421,0.06087 0.0609,0.126431 0.0562,0.196672 -0.005,0.07024 -0.0234,0.133455 -0.0562,0.189647 -0.0328,0.06087 -0.0843,0.105359 -0.15453,0.133456 -0.0749,0.03746 -0.14282,0.03513 -0.2037,-0.007 -0.0609,-0.03746 -0.0913,-0.09833 -0.0913,-0.182624 -0.005,-0.03746 -0.002,-0.07492 0.007,-0.112383 0.009,-0.03746 0.0187,-0.07492 0.0281,-0.112384 z"
           style="font-style:normal;font-variant:normal;font-weight:normal;font-stretch:normal;font-size:7.02398px;line-height:1.25;font-family:'Heidy Indigo';-inkscape-font-specification:'Heidy Indigo';text-align:start;letter-spacing:0px;word-spacing:0px;text-anchor:start;fill:#fefefe;fill-opacity:1;stroke:none;stroke-width:0.0632952px;stroke-linecap:butt;stroke-linejoin:miter;stroke-opacity:1"
           id="path4594" />
      </g>
      <g
         style="font-style:normal;font-weight:normal;font-size:0.46403px;line-height:0%;font-family:sans-serif;text-align:start;letter-spacing:0px;word-spacing:0px;text-anchor:start;fill:#fefefe;fill-opacity:1;stroke:none;stroke-width:0.0386691px;stroke-linecap:butt;stroke-linejoin:miter;stroke-opacity:1"
         id="text4600"
         aria-label="Influencers"
         transform="matrix(1.0503965,0,0,1.0503965,230.28352,31.61031)">
        <path
           id="path5547"
           style="font-style:normal;font-variant:normal;font-weight:normal;font-stretch:normal;font-size:9.11103px;line-height:1.25;font-family:FjallaOne;-inkscape-font-specification:FjallaOne;fill:#fefefe;fill-opacity:1;stroke-width:0.0386691px"
           d="m -197.78034,-19.32874 h 1.15223 v 7.598456 h -1.15223 z" />
        <path
           id="path5549"
           style="font-style:normal;font-variant:normal;font-weight:normal;font-stretch:normal;font-size:9.11103px;line-height:1.25;font-family:FjallaOne;-inkscape-font-specification:FjallaOne;fill:#fefefe;fill-opacity:1;stroke-width:0.0386691px"
           d="m -195.39581,-17.856206 h 0.8675 l 0.10233,0.653966 v 0.0044 q 0.13346,-0.209091 0.28471,-0.347002 0.15571,-0.14236 0.32031,-0.226886 0.16461,-0.08453 0.33366,-0.120116 0.1735,-0.03559 0.34255,-0.03559 0.5383,0 0.82747,0.378143 0.29362,0.373694 0.29362,1.125532 v 4.693426 h -1.12554 v -4.653387 q 0,-0.404836 -0.12456,-0.560542 -0.12456,-0.160155 -0.3648,-0.160155 -0.16905,0 -0.3381,0.111219 -0.16461,0.111219 -0.29362,0.306963 v 4.955902 h -1.12553 z" />
        <path
           id="path5551"
           style="font-style:normal;font-variant:normal;font-weight:normal;font-stretch:normal;font-size:9.11103px;line-height:1.25;font-family:FjallaOne;-inkscape-font-specification:FjallaOne;fill:#fefefe;fill-opacity:1;stroke-width:0.0386691px"
           d="m -190.70683,-17.002046 h -0.5294 v -0.85416 h 0.5294 v -0.440425 q 0,-0.49826 0.0979,-0.809672 0.10232,-0.315861 0.27582,-0.489362 0.1735,-0.17795 0.40484,-0.240232 0.23578,-0.06228 0.50715,-0.06228 0.0756,0 0.16906,0.0089 0.0934,0.0089 0.18684,0.03114 0.0934,0.01779 0.1824,0.04449 0.0934,0.02669 0.16461,0.06673 v 0.791876 q -0.16906,-0.04894 -0.3737,-0.04894 -0.10232,0 -0.19574,0.03559 -0.089,0.03559 -0.16016,0.120116 -0.0712,0.08008 -0.11122,0.217989 -0.04,0.133462 -0.04,0.333656 v 0.440425 h 0.84971 v 0.85416 h -0.84971 v 5.271762 h -1.10773 z m 2.65145,-2.820505 h 1.12553 v 8.092267 h -1.12553 z" />
        <path
           id="path5553"
           style="font-style:normal;font-variant:normal;font-weight:normal;font-stretch:normal;font-size:9.11103px;line-height:1.25;font-family:FjallaOne;-inkscape-font-specification:FjallaOne;fill:#fefefe;fill-opacity:1;stroke-width:0.0386691px"
           d="m -185.74204,-17.856206 h 1.12554 v 4.604451 q 0,0.404836 0.12456,0.564991 0.12457,0.155706 0.3648,0.155706 0.16905,0 0.32921,-0.09342 0.16015,-0.09342 0.28916,-0.266925 v -4.9648 h 1.12554 v 6.125922 h -0.85861 l -0.11122,-0.653965 h -0.004 q -0.13346,0.209091 -0.28472,0.351451 -0.14681,0.137911 -0.31141,0.222437 -0.16015,0.08008 -0.32921,0.115667 -0.16905,0.03559 -0.3381,0.03559 -0.5383,0 -0.83192,-0.373694 -0.28917,-0.373695 -0.28917,-1.129982 z" />
        <path
           id="path5555"
           style="font-style:normal;font-variant:normal;font-weight:normal;font-stretch:normal;font-size:9.11103px;line-height:1.25;font-family:FjallaOne;-inkscape-font-specification:FjallaOne;fill:#fefefe;fill-opacity:1;stroke-width:0.0386691px"
           d="m -179.73623,-11.663553 q -0.39594,0 -0.7029,-0.146808 -0.30252,-0.146809 -0.51161,-0.458221 -0.20909,-0.311412 -0.31586,-0.796325 -0.10677,-0.489362 -0.10677,-1.174469 v -1.156674 q 0,-0.582785 0.0845,-0.996518 0.089,-0.418182 0.22688,-0.698453 0.14236,-0.28472 0.32476,-0.449324 0.18685,-0.164603 0.38259,-0.249129 0.19575,-0.08898 0.38705,-0.111219 0.19574,-0.02669 0.36034,-0.02669 0.30252,0 0.58279,0.09342 0.28027,0.08898 0.49381,0.311412 0.21354,0.217989 0.3381,0.587235 0.12902,0.369246 0.12902,0.92089 0,0.186847 -0.0134,0.378143 -0.009,0.191296 -0.0267,0.378144 -0.0178,0.182398 -0.0489,0.355899 -0.0267,0.173501 -0.0578,0.32031 h -2.03308 v 0.622824 q 0,0.400387 0.0311,0.676209 0.0312,0.271374 0.10233,0.440426 0.0756,0.164604 0.20019,0.240232 0.12901,0.07118 0.32031,0.07118 0.10232,0 0.20019,-0.04004 0.0979,-0.04449 0.16905,-0.142359 0.0756,-0.09787 0.12012,-0.258028 0.0445,-0.164603 0.0445,-0.404835 v -0.191296 h 0.93868 v 0.235783 q 0,0.871954 -0.41818,1.272341 -0.41373,0.395938 -1.20116,0.395938 z m 0.62282,-3.674663 q 0.004,-0.04894 0.009,-0.129013 0.004,-0.08453 0.004,-0.173502 0.004,-0.08897 0.004,-0.173501 0,-0.08897 0,-0.151257 0,-0.605029 -0.14236,-0.871954 -0.14236,-0.266925 -0.42263,-0.266925 -0.14681,0 -0.25803,0.07118 -0.11122,0.06673 -0.1824,0.231335 -0.0712,0.160155 -0.10677,0.42708 -0.0356,0.266924 -0.0356,0.662863 v 0.373694 z" />
        <path
           id="path5557"
           style="font-style:normal;font-variant:normal;font-weight:normal;font-stretch:normal;font-size:9.11103px;line-height:1.25;font-family:FjallaOne;-inkscape-font-specification:FjallaOne;fill:#fefefe;fill-opacity:1;stroke-width:0.0386691px"
           d="m -177.10257,-17.856206 h 0.8675 l 0.10233,0.653966 v 0.0044 q 0.13346,-0.209091 0.28471,-0.347002 0.15571,-0.14236 0.32031,-0.226886 0.16461,-0.08453 0.33366,-0.120116 0.1735,-0.03559 0.34255,-0.03559 0.5383,0 0.82747,0.378143 0.29362,0.373694 0.29362,1.125532 v 4.693426 h -1.12554 v -4.653387 q 0,-0.404836 -0.12456,-0.560542 -0.12456,-0.160155 -0.3648,-0.160155 -0.16905,0 -0.3381,0.111219 -0.16461,0.111219 -0.29362,0.306963 v 4.955902 h -1.12553 z" />
        <path
           id="path5559"
           style="font-style:normal;font-variant:normal;font-weight:normal;font-stretch:normal;font-size:9.11103px;line-height:1.25;font-family:FjallaOne;-inkscape-font-specification:FjallaOne;fill:#fefefe;fill-opacity:1;stroke-width:0.0386691px"
           d="m -171.1368,-11.663553 q -0.77409,0 -1.18337,-0.63617 -0.40484,-0.636171 -0.40484,-1.939653 v -1.156674 q 0,-0.582785 0.0845,-0.996518 0.0845,-0.418182 0.22244,-0.698453 0.14236,-0.28472 0.32031,-0.449324 0.1824,-0.164603 0.37369,-0.249129 0.1913,-0.08898 0.37814,-0.111219 0.18685,-0.02669 0.34256,-0.02669 0.31141,0 0.56944,0.08453 0.25802,0.08008 0.44487,0.249129 0.18685,0.164604 0.28917,0.418182 0.10232,0.253579 0.10232,0.596132 0,0.21354 -0.0222,0.369246 -0.0178,0.151257 -0.0534,0.293617 h -0.89864 v -0.204642 q 0,-0.462669 -0.11122,-0.720697 -0.10677,-0.262476 -0.3559,-0.262476 -0.13791,0 -0.24023,0.06673 -0.10233,0.06228 -0.17351,0.217988 -0.0667,0.155706 -0.10232,0.418182 -0.0311,0.262476 -0.0311,0.658414 v 1.73946 q 0,0.400387 0.0267,0.680658 0.0267,0.280271 0.0934,0.45822 0.0667,0.173501 0.17795,0.253579 0.11122,0.08008 0.27582,0.08008 0.0845,0 0.1646,-0.04004 0.0801,-0.04449 0.13792,-0.142359 0.0623,-0.09787 0.0979,-0.258028 0.04,-0.164603 0.04,-0.404835 v -0.191296 h 0.96982 v 0.235783 q 0,0.871954 -0.38704,1.272341 -0.38259,0.395938 -1.14777,0.395938 z" />
        <path
           id="path5561"
           style="font-style:normal;font-variant:normal;font-weight:normal;font-stretch:normal;font-size:9.11103px;line-height:1.25;font-family:FjallaOne;-inkscape-font-specification:FjallaOne;fill:#fefefe;fill-opacity:1;stroke-width:0.0386691px"
           d="m -167.20856,-11.663553 q -0.39594,0 -0.70291,-0.146808 -0.30251,-0.146809 -0.5116,-0.458221 -0.20909,-0.311412 -0.31586,-0.796325 -0.10677,-0.489362 -0.10677,-1.174469 v -1.156674 q 0,-0.582785 0.0845,-0.996518 0.089,-0.418182 0.22689,-0.698453 0.14236,-0.28472 0.32476,-0.449324 0.18685,-0.164603 0.38259,-0.249129 0.19575,-0.08898 0.38704,-0.111219 0.19575,-0.02669 0.36035,-0.02669 0.30251,0 0.58279,0.09342 0.28027,0.08898 0.49381,0.311412 0.21354,0.217989 0.3381,0.587235 0.12901,0.369246 0.12901,0.92089 0,0.186847 -0.0133,0.378143 -0.009,0.191296 -0.0267,0.378144 -0.0178,0.182398 -0.0489,0.355899 -0.0267,0.173501 -0.0578,0.32031 h -2.03308 v 0.622824 q 0,0.400387 0.0311,0.676209 0.0311,0.271374 0.10232,0.440426 0.0756,0.164604 0.2002,0.240232 0.12901,0.07118 0.32031,0.07118 0.10232,0 0.20019,-0.04004 0.0979,-0.04449 0.16905,-0.142359 0.0756,-0.09787 0.12012,-0.258028 0.0445,-0.164603 0.0445,-0.404835 v -0.191296 h 0.93869 v 0.235783 q 0,0.871954 -0.41818,1.272341 -0.41374,0.395938 -1.20116,0.395938 z m 0.62282,-3.674663 q 0.004,-0.04894 0.009,-0.129013 0.004,-0.08453 0.004,-0.173502 0.004,-0.08897 0.004,-0.173501 0,-0.08897 0,-0.151257 0,-0.605029 -0.14236,-0.871954 -0.14236,-0.266925 -0.42263,-0.266925 -0.14681,0 -0.25803,0.07118 -0.11122,0.06673 -0.1824,0.231335 -0.0712,0.160155 -0.10677,0.42708 -0.0356,0.266924 -0.0356,0.662863 v 0.373694 z" />
        <path
           id="path5563"
           style="font-style:normal;font-variant:normal;font-weight:normal;font-stretch:normal;font-size:9.11103px;line-height:1.25;font-family:FjallaOne;-inkscape-font-specification:FjallaOne;fill:#fefefe;fill-opacity:1;stroke-width:0.0386691px"
           d="m -164.57491,-17.856206 h 0.82302 l 0.0979,0.622825 q 0.18685,-0.347002 0.42708,-0.520503 0.24468,-0.173501 0.49826,-0.173501 0.48492,0 0.71625,0.298065 0.23133,0.298066 0.23133,0.894198 0,0.07563 -0.0133,0.182399 -0.009,0.102321 -0.0311,0.217988 -0.0178,0.111219 -0.0489,0.226886 -0.0267,0.111219 -0.0578,0.204643 h -0.78298 v -0.56944 q 0,-0.186847 -0.0267,-0.306963 -0.0223,-0.120116 -0.0623,-0.191296 -0.04,-0.07563 -0.0934,-0.102321 -0.0534,-0.03114 -0.11567,-0.03114 -0.13346,0 -0.24913,0.08898 -0.11122,0.08453 -0.18684,0.240233 v 5.044876 h -1.12554 z" />
        <path
           id="path5565"
           style="font-style:normal;font-variant:normal;font-weight:normal;font-stretch:normal;font-size:9.11103px;line-height:1.25;font-family:FjallaOne;-inkscape-font-specification:FjallaOne;fill:#fefefe;fill-opacity:1;stroke-width:0.0386691px"
           d="m -161.30953,-13.011522 q 0,-0.200194 0.0356,-0.387041 0.04,-0.186847 0.0756,-0.298066 h 0.79188 q 0,0.333656 0.0311,0.560542 0.0356,0.222437 0.11122,0.355899 0.0756,0.133463 0.20019,0.191296 0.12901,0.05783 0.31141,0.05783 0.25358,0 0.36925,-0.14236 0.11567,-0.14236 0.11567,-0.329207 0,-0.09787 -0.0267,-0.186847 -0.0267,-0.08897 -0.0756,-0.17795 -0.0489,-0.09342 -0.12011,-0.186847 -0.0712,-0.09342 -0.16016,-0.204642 l -0.82301,-0.969827 q -0.16016,-0.200193 -0.31142,-0.404836 -0.1468,-0.209091 -0.26247,-0.427079 -0.11122,-0.222437 -0.1824,-0.46267 -0.0667,-0.240232 -0.0667,-0.507157 0,-0.355899 0.12011,-0.618375 0.12457,-0.262476 0.32921,-0.435977 0.20909,-0.173501 0.48047,-0.258027 0.27137,-0.08453 0.57388,-0.08453 0.33366,0 0.60058,0.08008 0.26693,0.08008 0.45823,0.240232 0.19129,0.160155 0.29361,0.400387 0.10232,0.235784 0.10232,0.551645 0,0.213539 -0.04,0.413733 -0.0356,0.200193 -0.0712,0.342553 h -0.77854 q -0.004,-0.302514 -0.0267,-0.5294 -0.0222,-0.226886 -0.0845,-0.373695 -0.0578,-0.151257 -0.16461,-0.226886 -0.10232,-0.07563 -0.27137,-0.07563 -0.14681,0 -0.24468,0.04894 -0.0979,0.04449 -0.16016,0.120116 -0.0578,0.07563 -0.0845,0.169052 -0.0222,0.09342 -0.0222,0.191296 0,0.21354 0.10232,0.395938 0.10233,0.182399 0.27138,0.395939 l 0.89864,1.054352 q 0.0979,0.120116 0.22689,0.293617 0.12901,0.169053 0.24468,0.378144 0.11567,0.204642 0.19575,0.449323 0.0801,0.244681 0.0801,0.511606 0,0.324758 -0.10232,0.591683 -0.10232,0.262476 -0.30251,0.449323 -0.2002,0.186847 -0.49381,0.289168 -0.28917,0.102321 -0.66287,0.102321 -0.30696,0 -0.57833,-0.06673 -0.27138,-0.07118 -0.47157,-0.226886 -0.20019,-0.160155 -0.31586,-0.418182 -0.11567,-0.258027 -0.11567,-0.63617 z" />
      </g>
    </g>
  </g>
</svg>
