<?xml version="1.0" encoding="UTF-8" standalone="no"?>
<svg
   xmlns:dc="http://purl.org/dc/elements/1.1/"
   xmlns:cc="http://creativecommons.org/ns#"
   xmlns:rdf="http://www.w3.org/1999/02/22-rdf-syntax-ns#"
   xmlns:svg="http://www.w3.org/2000/svg"
   xmlns="http://www.w3.org/2000/svg"
   width="49.999874mm"
   height="49.999874mm"
   viewBox="0 0 49.999874 49.999874"
   version="1.1"
   id="svg4748">
  <defs
     id="defs4742" />
  <metadata
     id="metadata4745">
    <rdf:RDF>
      <cc:Work
         rdf:about="">
        <dc:format>image/svg+xml</dc:format>
        <dc:type
           rdf:resource="http://purl.org/dc/dcmitype/StillImage" />
        <dc:title></dc:title>
        <dc:creator>
          <cc:Agent>
            <dc:title>TrashPanda</dc:title>
          </cc:Agent>
        </dc:creator>
      </cc:Work>
    </rdf:RDF>
  </metadata>
  <g
     id="layer1">
    <path
       id="path5315"
       style="fill:#000000;fill-opacity:1;fill-rule:evenodd;stroke:none;stroke-width:0.46763;stroke-linecap:butt;stroke-linejoin:miter;stroke-miterlimit:4.1;stroke-dasharray:none;stroke-dashoffset:0;stroke-opacity:1"
       d="M 78.720703 17.541016 C 75.75603 17.541016 73.325589 19.769796 72.960938 22.669922 C 66.107343 19.79266 60.927667 18.370913 59.144531 19.400391 C 51.646372 23.729441 51.646372 101.65144 59.144531 105.98047 C 60.924655 107.00825 66.08924 105.59411 72.925781 102.72656 C 73.124131 105.80207 75.633211 108.21875 78.720703 108.21875 L 110.36719 108.21875 C 113.58523 108.21875 116.17578 105.59241 116.17578 102.33203 L 116.17578 78.839844 C 126.53938 71.899837 134.125 65.59159 134.125 62.689453 C 134.125 59.787324 126.53938 53.481045 116.17578 46.541016 L 116.17578 23.425781 C 116.17578 20.165402 113.58523 17.541016 110.36719 17.541016 L 78.720703 17.541016 z M 79.449219 22.064453 L 109.63672 22.064453 C 110.78575 22.064453 111.71094 22.860407 111.71094 23.847656 L 111.71094 95.498047 C 111.71094 96.485297 110.78575 97.279297 109.63672 97.279297 L 79.449219 97.279297 C 78.300189 97.279297 77.375 96.485297 77.375 95.498047 L 77.375 93.953125 C 77.34998 93.946322 77.321693 93.9375 77.304688 93.9375 C 76.934581 93.937515 74.269249 95.782959 73.976562 95.556641 C 73.670563 95.320231 74.550998 92.084507 74.431641 91.716797 C 74.317287 91.364798 71.738821 89.401207 71.863281 89.052734 C 71.993603 88.688709 75.341692 88.526091 75.654297 88.298828 C 75.95376 88.081294 77.026506 85.020289 77.396484 85.03125 C 77.433448 85.032346 77.476207 85.062397 77.527344 85.115234 C 78.131101 85.290378 80.706207 86.954131 81.013672 86.744141 C 81.324784 86.531988 80.377618 83.373622 80.494141 83.015625 C 80.615652 82.64166 83.274311 80.506292 83.164062 80.128906 C 83.058408 79.767636 79.761661 79.691957 79.457031 79.470703 C 79.204684 79.287362 78.392835 77.247475 77.871094 76.404297 C 77.112803 76.646686 73.995673 78.774872 73.634766 78.496094 C 73.235217 78.18734 74.384799 73.962622 74.228516 73.482422 C 74.079156 73.022733 70.711876 70.457031 70.875 70.001953 C 70.969458 69.738225 72.353375 69.555841 73.640625 69.394531 C 72.993846 69.224868 71.083488 67.996094 70.789062 67.996094 C 70.468519 67.996105 68.159743 69.594404 67.90625 69.398438 C 67.641456 69.193689 68.404227 66.392644 68.300781 66.074219 C 68.20172 65.769373 65.968191 64.06742 66.076172 63.765625 C 66.188991 63.450375 69.090223 63.308128 69.361328 63.111328 C 69.620607 62.922926 70.548599 60.273376 70.869141 60.283203 C 71.20384 60.293143 72.234754 63.008278 72.505859 63.205078 C 72.765199 63.393544 75.570355 63.457971 75.660156 63.765625 C 75.754161 64.086979 73.492118 65.906146 73.388672 66.224609 C 73.29319 66.517991 74.035639 69.018564 73.855469 69.367188 C 74.804553 69.248435 75.658764 69.138573 75.828125 69.015625 C 76.219204 68.731529 77.618469 64.737591 78.101562 64.751953 C 78.124882 64.753087 78.147435 64.763423 78.175781 64.779297 C 78.431085 64.872387 79.151722 65.324431 79.263672 65.248047 C 79.383029 65.166625 79.018985 63.955745 79.064453 63.818359 C 79.111055 63.67482 80.129642 62.853854 80.089844 62.708984 C 80.052332 62.580783 78.968084 62.546156 78.712891 62.474609 C 78.081286 62.37619 75.796105 60.900391 75.455078 60.900391 C 75.097531 60.900391 72.523283 62.683414 72.240234 62.464844 C 71.944864 62.2365 72.795074 59.111022 72.679688 58.755859 C 72.569201 58.415857 70.078727 56.518208 70.199219 56.181641 C 70.325111 55.830054 73.558966 55.67264 73.861328 55.453125 C 74.150504 55.242995 75.185463 52.285914 75.542969 52.296875 C 75.916258 52.307941 77.066778 55.337126 77.369141 55.556641 C 77.564368 55.698486 79.050717 55.776274 80.029297 55.917969 C 79.939495 55.495584 79.838841 55.064361 79.867188 54.976562 C 79.926747 54.793197 81.232625 53.745593 81.175781 53.560547 C 81.123949 53.383438 79.506902 53.346791 79.357422 53.238281 C 79.201467 53.124971 78.608696 51.56231 78.416016 51.556641 C 78.231529 51.551202 77.696355 53.077037 77.546875 53.185547 C 77.523026 53.202479 77.456827 53.218501 77.375 53.234375 L 77.375 53.210938 C 75.67416 52.354527 73.315512 50.91209 72.857422 50.912109 C 72.197343 50.912109 67.444187 54.202414 66.921875 53.798828 C 66.376315 53.377207 67.945549 47.608865 67.732422 46.953125 C 67.528497 46.325387 62.930108 42.820645 63.152344 42.199219 C 63.384739 41.550077 69.358467 41.258806 69.916016 40.853516 C 70.450036 40.465551 72.361745 35.009983 73.021484 35.029297 C 73.710662 35.049712 75.830557 40.639632 76.388672 41.044922 C 76.72917 41.292307 79.200342 41.436221 80.996094 41.671875 C 80.78068 40.580385 80.442807 39.249703 80.519531 39.013672 C 80.654116 38.599489 83.598755 36.234369 83.476562 35.816406 C 83.359543 35.416262 79.708114 35.332906 79.371094 35.087891 C 79.071574 34.870242 78.058511 32.288724 77.494141 31.511719 C 76.852475 31.772272 74.767669 33.181578 74.517578 32.988281 C 74.230164 32.766046 75.055876 29.724574 74.943359 29.378906 C 74.835828 29.04802 72.412207 27.200641 72.529297 26.873047 C 72.651776 26.53082 75.801883 26.377704 76.095703 26.164062 C 76.318155 26.002455 76.991913 24.177409 77.4375 23.421875 C 77.658587 22.641601 78.471149 22.064453 79.449219 22.064453 z M 60.798828 24.193359 L 60.800781 24.193359 C 60.995408 24.20449 61.589513 25.769171 61.746094 25.882812 C 61.896084 25.991765 63.521129 26.02908 63.572266 26.207031 C 63.626657 26.392932 62.315538 27.444703 62.255859 27.628906 C 62.199015 27.80523 62.666554 29.360381 62.513672 29.464844 C 62.353684 29.574001 60.94772 28.654297 60.753906 28.654297 C 60.568456 28.654297 59.232581 29.57823 59.085938 29.464844 C 58.932481 29.346429 59.374132 27.725218 59.314453 27.541016 C 59.257163 27.364686 57.96483 26.381627 58.027344 26.207031 C 58.092646 26.024703 59.770884 25.941964 59.927734 25.828125 C 60.077452 25.719354 60.612618 24.193499 60.798828 24.193359 z M 66.53125 28.714844 C 66.820369 28.723341 67.709199 31.068288 67.943359 31.238281 C 68.167346 31.400999 70.592041 31.456897 70.669922 31.722656 C 70.751083 32.000243 68.796266 33.570622 68.707031 33.845703 C 68.621776 34.109036 69.318316 36.431823 69.089844 36.587891 C 68.850853 36.750882 66.752176 35.376953 66.462891 35.376953 C 66.185991 35.376953 64.19202 36.757202 63.972656 36.587891 C 63.743991 36.411015 64.401735 33.991878 64.3125 33.716797 C 64.226966 33.453481 62.299375 31.983357 62.392578 31.722656 C 62.490109 31.450305 64.994336 31.328195 65.228516 31.158203 C 65.452558 30.99544 66.254475 28.706869 66.53125 28.714844 z M 60.212891 37.087891 C 60.502009 37.096388 61.392774 39.441287 61.626953 39.611328 C 61.850939 39.774056 64.275657 39.829927 64.353516 40.095703 C 64.434734 40.373302 62.477907 41.943676 62.388672 42.21875 C 62.303417 42.482066 62.999957 44.806834 62.771484 44.962891 C 62.53255 45.125909 60.433816 43.751953 60.144531 43.751953 C 59.867632 43.751953 57.873661 45.132213 57.654297 44.962891 C 57.425613 44.786031 58.085328 42.364918 57.996094 42.089844 C 57.910503 41.826509 55.981016 40.356339 56.074219 40.095703 C 56.171689 39.823358 58.676015 39.701253 58.910156 39.53125 C 59.134142 39.368522 59.936116 37.079916 60.212891 37.087891 z M 81.023438 43.619141 C 80.780754 43.61196 80.076941 45.619004 79.880859 45.761719 C 79.675684 45.910753 77.479797 46.017107 77.394531 46.255859 C 77.312746 46.484411 79.003101 47.773053 79.078125 48.003906 C 79.15655 48.245108 78.57868 50.366448 78.779297 50.521484 C 78.971399 50.669914 80.720207 49.460937 80.962891 49.460938 C 81.216486 49.460937 83.055899 50.664426 83.265625 50.521484 C 83.466254 50.38465 82.856617 48.348115 82.931641 48.117188 C 83.010013 47.875986 84.723399 46.499299 84.652344 46.255859 C 84.584199 46.022833 82.458368 45.974633 82.261719 45.832031 C 82.0566 45.682963 81.276928 43.6267 81.023438 43.619141 z M 63.244141 51.947266 C 63.533259 51.955781 64.424061 54.3007 64.658203 54.470703 C 64.882189 54.633431 67.304956 54.689302 67.382812 54.955078 C 67.464027 55.232681 65.509157 56.803051 65.419922 57.078125 C 65.334671 57.341441 66.031774 59.664258 65.802734 59.820312 C 65.563857 59.983312 63.465066 58.609375 63.175781 58.609375 C 62.898882 58.609375 60.904911 59.989635 60.685547 59.820312 C 60.456579 59.643455 61.114625 57.22234 61.025391 56.947266 C 60.939852 56.683916 59.012266 55.215714 59.105469 54.955078 C 59.202939 54.682733 61.707227 54.560628 61.941406 54.390625 C 62.165392 54.227879 62.967366 51.939329 63.244141 51.947266 z M 88.320312 53.525391 C 88.129916 53.514953 87.981281 53.536899 87.882812 53.59375 C 86.307311 54.503369 86.307311 70.877494 87.882812 71.787109 C 89.458316 72.696728 103.63867 64.508687 103.63867 62.689453 C 103.63867 60.983921 91.176297 53.681952 88.320312 53.525391 z M 61.09375 62.804688 C 61.30097 62.810778 61.937809 64.491429 62.105469 64.613281 C 62.266027 64.729955 64.003703 64.770412 64.060547 64.960938 C 64.118748 65.159935 62.716558 66.285206 62.652344 66.482422 C 62.590964 66.671156 63.091993 68.337383 62.927734 68.449219 C 62.756488 68.566059 61.25238 67.580078 61.044922 67.580078 C 60.846455 67.580078 59.416616 68.570542 59.259766 68.449219 C 59.095507 68.322453 59.56812 66.587765 59.503906 66.390625 C 59.442583 66.201864 58.057951 65.147795 58.125 64.960938 C 58.194906 64.765755 59.992496 64.678493 60.160156 64.556641 C 60.320718 64.439974 60.8954 62.799018 61.09375 62.804688 z M 67.935547 70.226562 C 68.224666 70.235074 69.11543 72.58195 69.349609 72.751953 C 69.573652 72.914718 71.998314 72.968599 72.076172 73.234375 C 72.157386 73.511989 70.200563 75.084301 70.111328 75.359375 C 70.026073 75.622702 70.722613 77.945508 70.494141 78.101562 C 70.25521 78.264566 68.156471 76.890625 67.867188 76.890625 C 67.590288 76.890625 65.596317 78.270885 65.376953 78.101562 C 65.148231 77.924709 65.807985 75.50359 65.71875 75.228516 C 65.633159 74.965166 63.703672 73.495087 63.796875 73.234375 C 63.894349 72.962086 66.398673 72.839925 66.632812 72.669922 C 66.856799 72.507175 67.658772 70.218627 67.935547 70.226562 z M 72.128906 76.158203 C 72.523508 76.169923 73.737233 79.369502 74.056641 79.601562 C 74.362355 79.823659 77.673017 79.898997 77.779297 80.261719 C 77.890124 80.640624 75.221802 82.786651 75.099609 83.162109 C 74.982871 83.521535 75.933132 86.691283 75.621094 86.904297 C 75.295034 87.126794 72.430158 85.251938 72.035156 85.251953 C 71.657264 85.251953 68.935679 87.135377 68.636719 86.904297 C 68.324243 86.662883 69.223755 83.359833 69.101562 82.984375 C 68.98477 82.624953 66.351221 80.617523 66.478516 80.261719 C 66.611566 79.890074 70.030202 79.724248 70.349609 79.492188 C 70.655324 79.270084 71.750953 76.146865 72.128906 76.158203 z M 94.527344 99.666016 A 3.1430432 3.1430432 0 0 1 94.542969 99.666016 A 3.1430432 3.1430432 0 0 1 97.6875 102.81055 A 3.1430432 3.1430432 0 0 1 94.542969 105.95312 A 3.1430432 3.1430432 0 0 1 91.400391 102.81055 A 3.1430432 3.1430432 0 0 1 94.527344 99.666016 z "
       transform="scale(0.26458333)" />
    <g
       id="g5899"
       style="fill:#000000;fill-opacity:1">
      <g
         id="g5335"
         transform="matrix(1.0794613,0,0,1.0794613,-123.8241,-22.92118)"
         style="fill:#000000;fill-opacity:1">
        <path
           d="m 131.31783,54.11481 c 0.0234,0.04683 0.0421,0.08429 0.0562,0.112383 0.0187,0.02809 0.0398,0.05619 0.0632,0.08429 0.0936,0.135797 0.19667,0.266911 0.30905,0.393343 0.11707,0.121749 0.23647,0.246194 0.35822,0.358223 0.22477,0.201651 0.46359,0.380897 0.71645,0.537738 0.25287,0.161322 0.51275,0.313681 0.77966,0.457078 0.0609,0.03137 0.12174,0.05826 0.18263,0.08066 0.0609,0.0224 0.12408,0.04705 0.18964,0.07393 0.0375,0.01344 0.0749,0.03361 0.11239,0.0605 0.0141,0.009 0.0211,0.0224 0.0211,0.04033 0,0.0224 -0.007,0.03809 -0.0211,0.04705 -0.0375,0.02688 -0.0679,0.04257 -0.0913,0.04706 -0.15453,0.04481 -0.3114,0.07393 -0.47061,0.08738 -0.15921,0.01792 -0.32077,0.0157 -0.48466,-0.0067 -0.0609,-0.009 -0.1194,-0.02689 -0.1756,-0.05377 -0.0515,-0.0224 -0.10304,-0.05153 -0.15452,-0.08738 -0.1077,-0.06274 -0.20838,-0.132197 -0.30203,-0.208373 -0.089,-0.0717 -0.1756,-0.150119 -0.25989,-0.235262 -0.16857,-0.165802 -0.33247,-0.333845 -0.49168,-0.504129 -0.15453,-0.170284 -0.29969,-0.354816 -0.43549,-0.560853 -0.009,-0.02341 -0.0234,-0.04448 -0.0421,-0.06321 -0.0141,-0.01873 -0.0328,-0.04215 -0.0562,-0.07024 l -0.0632,0.126431 -0.16857,0.554895 c -0.0141,0.03746 -0.0281,0.07258 -0.0422,0.10536 -0.009,0.03746 -0.0234,0.07492 -0.0421,0.112383 -0.0141,0.02809 -0.0351,0.04448 -0.0632,0.04917 -0.0281,0.0047 -0.0562,-1.7e-5 -0.0843,-0.01405 -0.1077,-0.06556 -0.1873,-0.159213 -0.23881,-0.280959 -0.0515,-0.121749 -0.0609,-0.245839 -0.0281,-0.372271 0.0375,-0.145162 0.0749,-0.290324 0.11239,-0.435487 0.0421,-0.145162 0.0866,-0.290324 0.13345,-0.435486 0.0375,-0.107701 0.0281,-0.208379 -0.0281,-0.302032 -0.0983,-0.154527 -0.15687,-0.313737 -0.1756,-0.47763 -0.009,-0.03746 -0.014,-0.07258 -0.014,-0.10536 0.005,-0.03746 0.0164,-0.07258 0.0351,-0.10536 0.0234,-0.03746 0.0562,-0.06321 0.0983,-0.07726 0.0234,-0.0094 0.0421,-0.0047 0.0562,0.01405 0.0141,0.01405 0.0258,0.03278 0.0351,0.05619 l 0.0983,0.189648 c 0.0141,0.02809 0.0305,0.05619 0.0492,0.08429 0.0234,0.02341 0.0468,0.05151 0.0702,0.08429 0.0141,-0.02341 0.0258,-0.04214 0.0351,-0.05619 0.0141,-0.01405 0.0234,-0.02809 0.0281,-0.04214 0.17325,-0.412074 0.36992,-0.805417 0.59001,-1.180029 0.22477,-0.374612 0.46358,-0.744542 0.71645,-1.109789 0.0468,-0.06556 0.096,-0.126434 0.1475,-0.182623 0.0515,-0.06087 0.10304,-0.121748 0.15453,-0.182624 0.0281,-0.03278 0.0655,-0.06556 0.11238,-0.09834 0.0421,-0.03278 0.0772,-0.04683 0.10536,-0.04214 0.0281,0 0.0608,0.01873 0.0983,0.05619 l 0.0913,0.119408 c 0.0468,0.07024 0.0772,0.131114 0.0913,0.182623 0.0187,0.05151 0.0258,0.09833 0.0211,0.14048 -0.005,0.04215 -0.0187,0.08195 -0.0421,0.119408 -0.0234,0.03746 -0.0515,0.0796 -0.0843,0.126431 -0.089,0.121749 -0.17794,0.243498 -0.26691,0.365247 -0.089,0.117067 -0.1756,0.238816 -0.25989,0.365247 -0.16389,0.243498 -0.31374,0.491679 -0.44953,0.744542 -0.1358,0.252863 -0.26457,0.512751 -0.38632,0.779662 -0.0141,0.02341 -0.0258,0.04917 -0.0351,0.07726 -0.009,0.02809 -0.0187,0.05385 -0.0281,0.07726 0.0281,0.02341 0.0562,0.03278 0.0843,0.0281 0.0281,-0.0047 0.0538,-0.01169 0.0773,-0.02107 0.36057,-0.103019 0.69538,-0.266912 1.00443,-0.491679 0.17794,-0.126432 0.34183,-0.262229 0.49168,-0.407391 0.15453,-0.145162 0.29969,-0.304372 0.43549,-0.477631 0.11238,-0.149845 0.20603,-0.304372 0.28096,-0.463582 0.0749,-0.163893 0.13111,-0.339493 0.16857,-0.526799 0.0141,-0.07961 0.0164,-0.154527 0.007,-0.224767 -0.009,-0.07024 -0.0257,-0.142821 -0.0492,-0.217743 -0.1077,-0.187307 -0.24584,-0.323104 -0.41442,-0.407391 -0.16389,-0.08429 -0.34417,-0.131115 -0.54084,-0.14048 -0.19667,-0.0094 -0.40271,0.01405 -0.61811,0.07024 -0.21541,0.05151 -0.42379,0.124088 -0.62514,0.217743 -0.20135,0.08897 -0.391,0.19433 -0.56894,0.316079 -0.17794,0.117067 -0.32544,0.236474 -0.44251,0.358223 -0.089,0.09365 -0.16624,0.191989 -0.23179,0.295008 -0.0655,0.103018 -0.12407,0.21306 -0.1756,0.330127 -0.0609,0.112383 -0.0843,0.22945 -0.0702,0.351199 0,0.05151 0.007,0.09365 0.0211,0.126431 0.0234,0.06556 0.0585,0.110045 0.10536,0.133456 0.0515,0.01873 0.11007,0.0164 0.1756,-0.007 0.12175,-0.06087 0.21072,-0.140478 0.26691,-0.238815 0.0562,-0.103019 0.11473,-0.208379 0.1756,-0.31608 l 0.0702,-0.182623 c 0.009,0.01873 0.0188,0.03278 0.0281,0.04214 0.0141,0.0094 0.0211,0.01873 0.0211,0.0281 0.0141,0.38866 -0.14046,0.686008 -0.46358,0.892045 -0.089,0.05619 -0.17092,0.08429 -0.24584,0.08429 -0.0749,-0.0047 -0.14048,-0.02574 -0.19667,-0.06322 -0.0562,-0.03746 -0.10303,-0.08663 -0.14048,-0.147503 -0.0328,-0.06087 -0.0539,-0.126431 -0.0632,-0.196672 -0.009,-0.05619 -0.014,-0.112385 -0.014,-0.168575 0.005,-0.06087 0.0117,-0.119407 0.0211,-0.1756 0.0281,-0.177941 0.0889,-0.35354 0.18263,-0.526798 0.11707,-0.21072 0.25755,-0.398026 0.42144,-0.561919 0.16857,-0.168575 0.34885,-0.316079 0.54084,-0.442511 0.19199,-0.126431 0.39569,-0.231791 0.61109,-0.316079 0.2154,-0.08897 0.43548,-0.156868 0.66025,-0.203695 0.23413,-0.04683 0.46593,-0.06556 0.69538,-0.05619 0.22945,0.0094 0.45655,0.05151 0.68132,0.126432 0.24818,0.07961 0.44954,0.222426 0.60407,0.428463 0.15921,0.201354 0.24349,0.433145 0.25286,0.695374 0.005,0.252863 -0.0375,0.498702 -0.12643,0.737517 -0.0936,0.252863 -0.22009,0.482314 -0.3793,0.688351 -0.15453,0.201354 -0.33715,0.386319 -0.54787,0.554894 -0.54787,0.449535 -1.17768,0.716446 -1.88945,0.800734 -0.0375,0.0094 -0.0726,0.01639 -0.10536,0.02107 -0.0328,0.0047 -0.0679,0.0094 -0.10536,0.01405 z"
           style="font-style:normal;font-variant:normal;font-weight:normal;font-stretch:normal;font-size:7.02398px;line-height:1.25;font-family:'Heidy Indigo';-inkscape-font-specification:'Heidy Indigo';text-align:start;letter-spacing:0px;word-spacing:0px;text-anchor:start;fill:#000000;fill-opacity:1;stroke:none;stroke-width:0.0632952px;stroke-linecap:butt;stroke-linejoin:miter;stroke-opacity:1"
           id="path5325" />
        <path
           d="m 136.67493,53.693371 c 0.009,-0.01873 0.0281,-0.02342 0.0562,-0.01405 0.0234,0.01405 0.0328,0.03044 0.0281,0.04917 0,0.02809 0.002,0.06321 0.007,0.105359 0.005,0.04215 0.002,0.07493 -0.007,0.09834 -0.0983,0.266911 -0.24819,0.517433 -0.44954,0.751566 -0.19667,0.22945 -0.43548,0.419097 -0.71644,0.568942 -0.12175,0.06556 -0.24584,0.06789 -0.37227,0.007 -0.12175,-0.05619 -0.20838,-0.149846 -0.25989,-0.280959 l -0.0492,-0.154527 -0.1475,0.133455 c -0.0515,0.05151 -0.10773,0.100675 -0.16858,0.147504 -0.0562,0.04683 -0.11707,0.08897 -0.18262,0.126431 -0.1077,0.05619 -0.20369,0.07727 -0.28798,0.06322 -0.0843,-0.01405 -0.16858,-0.06556 -0.25287,-0.154527 -0.14984,-0.168576 -0.20369,-0.360565 -0.16155,-0.575967 0.0468,-0.243498 0.12875,-0.479972 0.24584,-0.709422 0.0655,-0.131114 0.13343,-0.259887 0.2037,-0.386319 0.0702,-0.131114 0.13814,-0.259887 0.20369,-0.386319 0.0375,-0.07492 0.0749,-0.135796 0.11238,-0.182623 0.0375,-0.04683 0.0539,-0.114725 0.0492,-0.203695 0,-0.06556 0.0398,-0.110045 0.11941,-0.133456 0.0796,-0.02341 0.15687,-0.0398 0.23179,-0.04917 0.0796,-0.0094 0.15921,-0.0094 0.23882,0 0.0515,0.0047 0.089,0.0234 0.11238,0.05619 0.0234,0.02809 0.0304,0.0679 0.0211,0.119408 -0.009,0.03746 -0.021,0.07258 -0.0351,0.105359 -0.009,0.03278 -0.021,0.06556 -0.0351,0.09834 -0.0655,0.140479 -0.13109,0.266911 -0.19667,0.379295 -0.0655,0.112383 -0.13109,0.238815 -0.19667,0.379295 -0.0749,0.163893 -0.1475,0.327785 -0.21774,0.491678 l -0.21072,0.491679 c -0.0141,0.03278 -0.0258,0.06556 -0.0351,0.09834 -0.005,0.03278 -0.0117,0.0679 -0.0211,0.105359 -0.009,0.02341 -0.002,0.04214 0.0211,0.05619 0.0234,0.01405 0.0445,0.01638 0.0632,0.007 0.0281,-0.01405 0.0562,-0.02809 0.0843,-0.04214 0.0281,-0.01873 0.0538,-0.0398 0.0773,-0.06321 0.11239,-0.107701 0.21775,-0.215402 0.31608,-0.323103 0.10302,-0.112384 0.18239,-0.24575 0.25287,-0.393343 0.18448,-0.38631 0.37151,-0.685709 0.56193,-1.032525 0.0302,-0.05506 0.0538,-0.110044 0.0773,-0.161552 0.0281,-0.05619 0.0421,-0.117068 0.0421,-0.182623 -0.009,-0.05619 0.0164,-0.09366 0.0773,-0.112384 0.0843,-0.02341 0.16857,-0.03746 0.25286,-0.04214 0.089,-0.0047 0.1756,1.7e-5 0.25989,0.01405 0.0749,0.01405 0.10769,0.06321 0.0983,0.147503 -0.009,0.05151 -0.0234,0.09833 -0.0421,0.14048 l -0.16155,0.330127 c -0.12643,0.238815 -0.25052,0.472948 -0.37227,0.702398 -0.12175,0.224767 -0.2435,0.456559 -0.36525,0.695374 -0.0234,0.03746 -0.0445,0.07492 -0.0632,0.112384 -0.0141,0.03278 -0.0234,0.0679 -0.0281,0.10536 -0.005,0.06087 0.0187,0.08663 0.0702,0.07726 0.0515,-0.01405 0.11709,-0.04917 0.19667,-0.105359 0.0796,-0.05619 0.16858,-0.128775 0.26691,-0.217744 0.0983,-0.09365 0.19199,-0.189647 0.28096,-0.287983 0.0936,-0.103018 0.1756,-0.203695 0.24584,-0.302031 0.0749,-0.103019 0.12877,-0.191989 0.16155,-0.266911 z"
           style="font-style:normal;font-variant:normal;font-weight:normal;font-stretch:normal;font-size:7.02398px;line-height:1.25;font-family:'Heidy Indigo';-inkscape-font-specification:'Heidy Indigo';text-align:start;letter-spacing:0px;word-spacing:0px;text-anchor:start;fill:#000000;fill-opacity:1;stroke:none;stroke-width:0.0632952px;stroke-linecap:butt;stroke-linejoin:miter;stroke-opacity:1"
           id="path5327" />
        <path
           d="m 138.26498,54.943639 c 0.0702,0.0094 0.15453,-0.02107 0.25287,-0.09131 0.10302,-0.07492 0.2037,-0.163892 0.30203,-0.266911 0.10302,-0.107701 0.19667,-0.220084 0.28096,-0.337151 0.089,-0.117066 0.15218,-0.220084 0.18965,-0.309055 0.0328,-0.03278 0.0656,-0.03511 0.0983,-0.007 0.009,0.0094 0.0187,0.0281 0.0281,0.05619 0.0141,0.02809 0.0187,0.04917 0.014,0.06322 -0.0141,0.09833 -0.0656,0.215402 -0.15452,0.351199 -0.089,0.135797 -0.19433,0.269252 -0.31608,0.400367 -0.11707,0.131114 -0.2435,0.24818 -0.3793,0.351199 -0.13579,0.103018 -0.2552,0.168575 -0.35822,0.196671 -0.0655,0.03278 -0.13811,0.04683 -0.21774,0.04214 -0.0749,-0.0047 -0.14751,-0.0234 -0.21775,-0.05619 -0.0702,-0.02809 -0.13111,-0.07024 -0.18262,-0.126432 -0.0468,-0.05619 -0.0749,-0.119409 -0.0843,-0.189647 -0.009,-0.06556 -0.005,-0.126435 0.014,-0.182624 l 0.0702,-0.182623 c 0.0281,-0.07961 0.0562,-0.15921 0.0843,-0.238815 0.0328,-0.07961 0.0679,-0.159211 0.10536,-0.238816 0.0749,-0.145162 0.15218,-0.287983 0.23179,-0.428462 0.0796,-0.145163 0.15921,-0.290325 0.23881,-0.435487 0.0234,-0.03746 0.0468,-0.08194 0.0702,-0.133456 -0.0375,-0.01873 -0.0585,-0.0281 -0.0632,-0.0281 -0.0141,0 -0.0283,0.0017 -0.0421,0.007 -0.10442,0.03997 -0.22378,0.07344 -0.30901,0.11941 -0.11888,0.06412 -0.19902,0.138138 -0.25989,0.189647 -0.0609,0.05151 -0.11238,0.107699 -0.15453,0.168576 -0.0421,0.06087 -0.0808,0.139776 -0.12643,0.231791 -0.17475,0.352466 -0.30454,0.689378 -0.43548,1.053597 -0.0406,0.112945 -0.0866,0.201354 -0.13346,0.266911 -0.0421,0.06556 -0.0936,0.07961 -0.15453,0.04214 -0.0515,-0.03278 -0.10304,-0.06322 -0.15452,-0.09131 -0.0515,-0.03278 -0.1007,-0.0679 -0.14751,-0.10536 -0.0843,-0.07024 -0.11239,-0.161552 -0.0843,-0.273935 0.005,-0.02341 0.009,-0.04449 0.014,-0.06322 0,-0.01873 0.005,-0.03981 0.014,-0.06322 0.089,-0.252863 0.18965,-0.524457 0.30203,-0.814782 0.11239,-0.290324 0.26223,-0.604062 0.44954,-0.941213 -0.0234,-0.02341 -0.0421,-0.04449 -0.0562,-0.06322 -0.0141,-0.01873 -0.0281,-0.03746 -0.0421,-0.05619 -0.0328,-0.05151 -0.0258,-0.08897 0.0211,-0.112383 0.0281,-0.01405 0.0562,-0.02575 0.0843,-0.03512 0.0328,-0.01405 0.0656,-0.02107 0.0983,-0.02107 0.0749,-0.0047 0.15686,-0.007 0.24583,-0.007 0.089,-0.0047 0.17326,-0.0023 0.25287,0.007 0.0702,0.0047 0.11472,0.0234 0.13345,0.05619 0.0234,0.03278 0.0281,0.08429 0.014,0.154527 -0.009,0.03746 -0.0351,0.08429 -0.0773,0.14048 -0.0421,0.05151 -0.0679,0.09599 -0.0773,0.133455 0.0281,0.01873 0.0491,0.02107 0.0632,0.007 0.0141,-0.01873 0.0305,-0.03278 0.0492,-0.04214 0.0328,-0.01405 0.0749,-0.03044 0.12643,-0.04917 0.0515,-0.02341 0.10538,-0.04683 0.16155,-0.07024 0.0562,-0.02341 0.11005,-0.04449 0.16155,-0.06322 0.0515,-0.02341 0.0937,-0.04214 0.12643,-0.05619 0.0421,-0.02341 0.0843,-0.03746 0.12644,-0.04214 0.0468,-0.0047 0.0936,-0.0047 0.14048,0 0.0937,0.0094 0.17793,0.0398 0.25286,0.09131 0.0796,0.05151 0.12175,0.121746 0.12643,0.210719 0,0.117067 -0.0164,0.222427 -0.0492,0.31608 -0.0234,0.06087 -0.0492,0.119406 -0.0773,0.175599 -0.0281,0.05619 -0.0585,0.114727 -0.0913,0.1756 -0.0515,0.09834 -0.10773,0.196671 -0.16858,0.295007 -0.0562,0.09833 -0.11005,0.199012 -0.16155,0.302031 -0.0421,0.07961 -0.0819,0.161552 -0.11941,0.245839 -0.0328,0.07961 -0.0679,0.161552 -0.10536,0.24584 -0.009,0.02341 -0.0117,0.04683 -0.007,0.07024 0.005,0.02341 0.0257,0.04214 0.0632,0.05619 z"
           style="font-style:normal;font-variant:normal;font-weight:normal;font-stretch:normal;font-size:7.02398px;line-height:1.25;font-family:'Heidy Indigo';-inkscape-font-specification:'Heidy Indigo';text-align:start;letter-spacing:0px;word-spacing:0px;text-anchor:start;fill:#000000;fill-opacity:1;stroke:none;stroke-width:0.0632952px;stroke-linecap:butt;stroke-linejoin:miter;stroke-opacity:1"
           id="path5329" />
        <path
           d="m 141.99286,52.855562 c 0.0552,-0.02562 0.0989,-0.04611 0.13112,-0.06145 0.0369,-0.01553 0.0738,-0.02871 0.11089,-0.03956 0.10201,-0.02749 0.19278,-0.04282 0.27233,-0.04598 0.16844,-0.0067 0.30243,0.06295 0.40196,0.208957 0.0544,0.07281 0.0904,0.151055 0.10772,0.23472 0.0172,0.07899 0.0229,0.163111 0.017,0.252385 -0.005,0.103295 -0.0201,0.202311 -0.0444,0.297007 -0.0197,0.09451 -0.0534,0.18958 -0.10113,0.285205 -0.12582,0.253382 -0.27841,0.482053 -0.45775,0.686013 -0.17467,0.203774 -0.38077,0.383024 -0.6183,0.537749 -0.0365,0.02488 -0.0756,0.04518 -0.11708,0.06089 l -0.11006,0.06061 c -0.22124,0.09316 -0.41963,0.05418 -0.59513,-0.116919 L 140.88,55.100064 c -0.0228,0.01497 -0.0434,0.02984 -0.0615,0.04462 -0.0183,0.01013 -0.0366,0.02254 -0.0548,0.03733 -0.0728,0.05445 -0.15245,0.05527 -0.2389,0.0025 l -0.0359,-0.01966 c -0.0961,-0.06178 -0.15728,-0.124958 -0.18328,-0.189536 -0.0262,-0.06925 -0.0227,-0.158433 0.0105,-0.267539 0.05,-0.15664 0.10956,-0.308972 0.17864,-0.456996 0.0642,-0.152517 0.13323,-0.302883 0.20701,-0.451095 l 0.78666,-1.430168 c 0.0832,-0.148584 0.16391,-0.297073 0.24237,-0.44547 0.0785,-0.148399 0.1569,-0.296796 0.23536,-0.445193 0.0219,-0.03836 0.0344,-0.07635 0.0376,-0.113969 0.007,-0.03779 -0.005,-0.07946 -0.0401,-0.124937 -0.0196,-0.02265 -0.0229,-0.04595 -0.01,-0.06991 0.0132,-0.02395 0.0361,-0.03658 0.0687,-0.03788 0.10294,-0.0041 0.20597,-0.0059 0.30909,-0.0053 0.10294,-0.0041 0.20634,0.0035 0.31021,0.02281 0.0895,0.0105 0.1194,0.05617 0.0898,0.137017 -0.008,0.03311 -0.0185,0.064 -0.0315,0.09263 -0.008,0.02843 -0.0187,0.05932 -0.0314,0.09263 l -0.6047,1.233132 z m 0.27312,0.150816 c -0.0569,0.0021 -0.11729,0.01661 -0.16547,0.03945 -0.18243,0.08646 -0.3265,0.198033 -0.42274,0.370572 -0.11833,0.206219 -0.23189,0.414593 -0.34068,0.62512 -0.10897,0.205848 -0.21298,0.418528 -0.31204,0.63804 -0.017,0.04286 -0.0292,0.0902 -0.0365,0.142042 -0.008,0.02375 -0.005,0.04473 0.01,0.06289 0.0146,0.01348 0.0337,0.02209 0.0573,0.02584 0.0756,0.01574 0.15244,0.0033 0.2305,-0.03729 0.10557,-0.05575 0.20149,-0.118142 0.28779,-0.187185 0.0861,-0.07372 0.16735,-0.151934 0.24374,-0.234641 0.10333,-0.111896 0.19702,-0.230438 0.28108,-0.355627 0.0841,-0.12519 0.16336,-0.252531 0.23788,-0.382027 0.0438,-0.07672 0.0806,-0.153168 0.11037,-0.229335 0.0296,-0.08085 0.0496,-0.165997 0.0601,-0.255453 0.0219,-0.155523 -0.0584,-0.229654 -0.24082,-0.222397 0,0 0.0534,-0.0019 -1e-5,0 z"
           style="font-style:normal;font-variant:normal;font-weight:normal;font-stretch:normal;font-size:7.02398px;line-height:1.25;font-family:'Heidy Indigo';-inkscape-font-specification:'Heidy Indigo';text-align:start;letter-spacing:0px;word-spacing:0px;text-anchor:start;fill:#000000;fill-opacity:1;stroke:none;stroke-width:0.0632952px;stroke-linecap:butt;stroke-linejoin:miter;stroke-opacity:1"
           id="path5331" />
        <path
           d="m 142.52744,55.709253 c -0.005,0 -0.007,-0.0023 -0.007,-0.007 h -0.014 c -0.0702,0.02809 -0.12643,0.07492 -0.16857,0.14048 -0.0468,0.06555 -0.0772,0.135793 -0.0913,0.210719 -0.0141,0.07961 -0.0141,0.15921 0,0.238815 0.009,0.08429 0.0351,0.156869 0.0773,0.217744 0.0515,0.06555 0.10538,0.107697 0.16155,0.126431 0.0562,0.01873 0.11473,0.02107 0.1756,0.007 0.0562,-0.0094 0.11473,-0.03044 0.1756,-0.06321 0.0562,-0.03278 0.11005,-0.07024 0.16155,-0.112384 0.089,-0.07492 0.17326,-0.166234 0.25286,-0.273935 0.0843,-0.107701 0.15921,-0.208379 0.22477,-0.302032 0.0796,-0.117066 0.15453,-0.236473 0.22477,-0.358222 0.0702,-0.117067 0.14048,-0.236474 0.21072,-0.358223 0.009,-0.01405 0.0234,-0.04917 0.0421,-0.10536 -0.0375,0.02341 -0.0702,0.04214 -0.0983,0.05619 -0.0281,0.01405 -0.0538,0.02575 -0.0773,0.03512 -0.11707,0.06087 -0.22008,0.08429 -0.30905,0.07024 -0.089,-0.01405 -0.18029,-0.0679 -0.27394,-0.161551 -0.0187,-0.01873 -0.0351,-0.03512 -0.0492,-0.04917 -0.0187,-0.01873 -0.0351,-0.03981 -0.0492,-0.06322 -0.0655,-0.08429 -0.0866,-0.203696 -0.0632,-0.358223 0.0234,-0.154527 0.0586,-0.315563 0.12643,-0.484654 0.12952,-0.323064 0.28379,-0.591668 0.43074,-0.89907 l 0.094,-0.196671 c 0.0159,-0.03746 0.0248,-0.07492 0.0266,-0.112384 0.007,-0.03746 0.001,-0.07492 -0.0155,-0.112384 -0.0289,-0.07961 -0.002,-0.140479 0.0792,-0.182623 l 0.0787,-0.0281 c 0.0894,-0.0094 0.16681,-0.0117 0.23213,-0.007 0.0655,0 0.13777,0.007 0.21671,0.02107 0.0735,0.02809 0.10623,0.07726 0.0981,0.147503 -0.006,0.02341 -0.0118,0.04917 -0.0178,0.07726 -0.001,0.02341 -0.007,0.04683 -0.0175,0.07024 -0.1635,0.276277 -0.31084,0.557236 -0.44202,0.842878 -0.12649,0.285641 -0.23882,0.575966 -0.34184,0.870973 -0.009,0.02341 -0.0164,0.04449 -0.0211,0.06322 -0.005,0.01873 -0.009,0.03981 -0.014,0.06322 -0.009,0.02341 -0.005,0.04683 0.014,0.07024 0.0187,0.02341 0.0398,0.04448 0.0632,0.06321 0.0234,0.01873 0.0468,0.02576 0.0702,0.02107 0.0281,-0.0047 0.0538,-0.01169 0.0773,-0.02107 0.0375,-0.02341 0.0726,-0.04683 0.10536,-0.07024 0.0375,-0.02341 0.0726,-0.04917 0.10536,-0.07726 0.0843,-0.07961 0.16155,-0.161552 0.23179,-0.245839 0.0749,-0.08897 0.13579,-0.187307 0.18262,-0.295008 0.089,-0.215402 0.18965,-0.430804 0.30203,-0.646206 0.11707,-0.215402 0.2037,-0.435487 0.25989,-0.660254 0.0234,-0.07961 0.0538,-0.152186 0.0913,-0.217743 0.009,-0.01873 0.0515,-0.03278 0.12643,-0.04214 0.0749,-0.0094 0.15219,-0.007 0.23179,0.007 0.0843,0.01405 0.15219,0.04214 0.2037,0.08429 0.0562,0.04214 0.0702,0.100673 0.0421,0.175599 -0.19667,0.524457 -0.40036,1.027843 -0.61108,1.510156 -0.20604,0.482313 -0.45656,0.959944 -0.75157,1.432892 -0.0936,0.149845 -0.20135,0.297348 -0.3231,0.44251 -0.11707,0.149845 -0.24584,0.28096 -0.38632,0.393343 -0.1358,0.117067 -0.28096,0.21072 -0.43549,0.28096 -0.15453,0.07024 -0.31374,0.105359 -0.47763,0.105359 -0.33247,-0.02341 -0.55021,-0.189647 -0.65323,-0.498702 -0.0609,-0.173259 -0.0632,-0.3512 -0.007,-0.533823 0.0515,-0.177941 0.14753,-0.323103 0.28798,-0.435487 0.0749,-0.05619 0.15219,-0.09365 0.23179,-0.112383 0.0796,-0.01873 0.1639,-0.01171 0.25287,0.02107 0.0655,0.02341 0.11938,0.06322 0.16155,0.119407 0.0421,0.06087 0.0609,0.126431 0.0562,0.196672 -0.005,0.07024 -0.0234,0.133455 -0.0562,0.189647 -0.0328,0.06087 -0.0843,0.105359 -0.15453,0.133456 -0.0749,0.03746 -0.14282,0.03513 -0.2037,-0.007 -0.0609,-0.03746 -0.0913,-0.09833 -0.0913,-0.182624 -0.005,-0.03746 -0.002,-0.07492 0.007,-0.112383 0.009,-0.03746 0.0187,-0.07492 0.0281,-0.112384 z"
           style="font-style:normal;font-variant:normal;font-weight:normal;font-stretch:normal;font-size:7.02398px;line-height:1.25;font-family:'Heidy Indigo';-inkscape-font-specification:'Heidy Indigo';text-align:start;letter-spacing:0px;word-spacing:0px;text-anchor:start;fill:#000000;fill-opacity:1;stroke:none;stroke-width:0.0632952px;stroke-linecap:butt;stroke-linejoin:miter;stroke-opacity:1"
           id="path5333" />
      </g>
      <path
         id="path5507"
         style="font-style:normal;font-variant:normal;font-weight:normal;font-stretch:normal;font-size:9.11103px;line-height:1.25;font-family:FjallaOne;-inkscape-font-specification:FjallaOne;text-align:start;letter-spacing:0px;word-spacing:0px;text-anchor:start;fill:#000000;fill-opacity:1;stroke:none;stroke-width:0.0406179px;stroke-linecap:butt;stroke-linejoin:miter;stroke-opacity:1"
         d="m 4.2473987,37.696334 h 1.2102984 v 7.981392 H 4.2473987 Z" />
      <path
         id="path5509"
         style="font-style:normal;font-variant:normal;font-weight:normal;font-stretch:normal;font-size:9.11103px;line-height:1.25;font-family:FjallaOne;-inkscape-font-specification:FjallaOne;text-align:start;letter-spacing:0px;word-spacing:0px;text-anchor:start;fill:#000000;fill-opacity:1;stroke:none;stroke-width:0.0406179px;stroke-linecap:butt;stroke-linejoin:miter;stroke-opacity:1"
         d="m 6.7521007,39.243079 h 0.9112189 l 0.1074766,0.686923 v 0.0047 q 0.1401964,-0.219628 0.2990689,-0.364489 0.1635572,-0.149535 0.3364525,-0.238321 0.1729058,-0.08879 0.3504753,-0.126169 0.1822438,-0.03738 0.3598133,-0.03738 0.5654285,0 0.8691716,0.397201 0.3084172,0.392527 0.3084172,1.182255 v 4.929958 H 9.111932 v -4.887902 q 0,-0.425238 -0.1308374,-0.588791 -0.1308479,-0.168226 -0.3831847,-0.168226 -0.1775695,0 -0.355139,0.116824 -0.1729058,0.116823 -0.3084174,0.322433 v 5.205662 H 6.7521007 Z" />
      <path
         id="path5511"
         style="font-style:normal;font-variant:normal;font-weight:normal;font-stretch:normal;font-size:9.11103px;line-height:1.25;font-family:FjallaOne;-inkscape-font-specification:FjallaOne;text-align:start;letter-spacing:0px;word-spacing:0px;text-anchor:start;fill:#000000;fill-opacity:1;stroke:none;stroke-width:0.0406179px;stroke-linecap:butt;stroke-linejoin:miter;stroke-opacity:1"
         d="m 11.677389,40.140285 h -0.556091 v -0.897206 h 0.556091 v -0.462622 q 0,-0.52337 0.102834,-0.850476 0.107476,-0.331779 0.28972,-0.514024 0.182244,-0.186918 0.425243,-0.252339 0.247662,-0.06542 0.532708,-0.06542 0.07941,0 0.17757,0.0093 0.09811,0.0093 0.196266,0.03271 0.09811,0.01869 0.191593,0.04673 0.09811,0.02804 0.172895,0.07009 v 0.831785 q -0.17757,-0.0514 -0.392523,-0.0514 -0.107476,0 -0.205615,0.03738 -0.09348,0.03738 -0.168221,0.126169 -0.07479,0.08411 -0.116825,0.228975 -0.04202,0.140188 -0.04202,0.350471 v 0.462621 h 0.892533 v 0.897206 h -0.892533 v 5.537441 h -1.163556 z m 2.785074,-2.962648 h 1.182252 v 8.500089 h -1.182252 z" />
      <path
         id="path5513"
         style="font-style:normal;font-variant:normal;font-weight:normal;font-stretch:normal;font-size:9.11103px;line-height:1.25;font-family:FjallaOne;-inkscape-font-specification:FjallaOne;text-align:start;letter-spacing:0px;word-spacing:0px;text-anchor:start;fill:#000000;fill-opacity:1;stroke:none;stroke-width:0.0406179px;stroke-linecap:butt;stroke-linejoin:miter;stroke-opacity:1"
         d="m 16.892387,39.243079 h 1.182263 v 4.836499 q 0,0.425238 0.130838,0.593464 0.130847,0.163553 0.383184,0.163553 0.17757,0 0.345801,-0.09813 0.168221,-0.09813 0.303733,-0.280377 v -5.215007 h 1.182263 v 6.434647 h -0.901881 l -0.116825,-0.686923 h -0.0042 q -0.140186,0.219628 -0.299069,0.369162 -0.154209,0.144862 -0.327104,0.233648 -0.168232,0.08411 -0.345801,0.121496 -0.17757,0.03738 -0.355139,0.03738 -0.565429,0 -0.873846,-0.392527 -0.303743,-0.392528 -0.303743,-1.186929 z" />
      <path
         id="path5515"
         style="font-style:normal;font-variant:normal;font-weight:normal;font-stretch:normal;font-size:9.11103px;line-height:1.25;font-family:FjallaOne;-inkscape-font-specification:FjallaOne;text-align:start;letter-spacing:0px;word-spacing:0px;text-anchor:start;fill:#000000;fill-opacity:1;stroke:none;stroke-width:0.0406179px;stroke-linecap:butt;stroke-linejoin:miter;stroke-opacity:1"
         d="m 23.200869,45.74782 q -0.415894,0 -0.738324,-0.154207 -0.317766,-0.154207 -0.537393,-0.481314 -0.219628,-0.327106 -0.331779,-0.836457 -0.11215,-0.514024 -0.11215,-1.233658 v -1.214966 q 0,-0.612156 0.08876,-1.04674 0.09349,-0.439257 0.238314,-0.733652 0.149534,-0.299069 0.341127,-0.471968 0.196266,-0.172899 0.401871,-0.261685 0.205615,-0.09346 0.406545,-0.116823 0.205616,-0.02804 0.378511,-0.02804 0.317766,0 0.61216,0.09813 0.294395,0.09346 0.518697,0.327106 0.224301,0.228974 0.355139,0.616829 0.135522,0.387854 0.135522,0.967299 0,0.196264 -0.01408,0.397201 -0.0095,0.200937 -0.02805,0.3972 -0.0187,0.191591 -0.05136,0.373836 -0.02805,0.182245 -0.06071,0.336452 h -2.13554 v 0.654213 q 0,0.420565 0.03267,0.710287 0.03267,0.28505 0.107477,0.462622 0.07941,0.172899 0.210289,0.252339 0.135512,0.07477 0.336452,0.07477 0.107477,0 0.210279,-0.04206 0.102834,-0.04673 0.17757,-0.149535 0.07941,-0.102804 0.126173,-0.271031 0.04674,-0.172899 0.04674,-0.425238 v -0.200936 h 0.985986 v 0.247666 q 0,0.915898 -0.439255,1.336463 -0.43458,0.415892 -1.261694,0.415892 z m 0.654208,-3.859853 q 0.0042,-0.0514 0.0095,-0.135516 0.0042,-0.08879 0.0042,-0.182245 0.0042,-0.09346 0.0042,-0.182245 0,-0.09346 0,-0.15888 0,-0.635521 -0.149534,-0.915897 -0.149535,-0.280377 -0.443929,-0.280377 -0.154209,0 -0.271034,0.07477 -0.116825,0.07009 -0.191592,0.242993 -0.07479,0.168226 -0.112151,0.448603 -0.03739,0.280377 -0.03739,0.696269 v 0.392528 z" />
      <path
         id="path5517"
         style="font-style:normal;font-variant:normal;font-weight:normal;font-stretch:normal;font-size:9.11103px;line-height:1.25;font-family:FjallaOne;-inkscape-font-specification:FjallaOne;text-align:start;letter-spacing:0px;word-spacing:0px;text-anchor:start;fill:#000000;fill-opacity:1;stroke:none;stroke-width:0.0406179px;stroke-linecap:butt;stroke-linejoin:miter;stroke-opacity:1"
         d="m 25.967256,39.243079 h 0.911219 l 0.107476,0.686923 v 0.0047 q 0.140197,-0.219628 0.299069,-0.364489 0.163558,-0.149535 0.336453,-0.238321 0.172906,-0.08879 0.350475,-0.126169 0.182244,-0.03738 0.359813,-0.03738 0.565429,0 0.869172,0.397201 0.308418,0.392527 0.308418,1.182255 v 4.929958 h -1.182264 v -4.887902 q 0,-0.425238 -0.130837,-0.588791 -0.130848,-0.168226 -0.383185,-0.168226 -0.177569,0 -0.355139,0.116824 -0.172906,0.116823 -0.308417,0.322433 v 5.205662 h -1.182253 z" />
      <path
         id="path5519"
         style="font-style:normal;font-variant:normal;font-weight:normal;font-stretch:normal;font-size:9.11103px;line-height:1.25;font-family:FjallaOne;-inkscape-font-specification:FjallaOne;text-align:start;letter-spacing:0px;word-spacing:0px;text-anchor:start;fill:#000000;fill-opacity:1;stroke:none;stroke-width:0.0406179px;stroke-linecap:butt;stroke-linejoin:miter;stroke-opacity:1"
         d="m 32.233669,45.74782 q -0.813091,0 -1.242997,-0.668231 -0.425242,-0.668232 -0.425242,-2.037405 v -1.214966 q 0,-0.612156 0.08876,-1.04674 0.08876,-0.439257 0.23365,-0.733652 0.149535,-0.299069 0.336453,-0.471968 0.191582,-0.172899 0.392523,-0.261685 0.20094,-0.09346 0.397196,-0.116823 0.196267,-0.02804 0.359824,-0.02804 0.327104,0 0.598138,0.08879 0.271023,0.08411 0.46729,0.261685 0.196267,0.172899 0.303743,0.439257 0.107477,0.266358 0.107477,0.626175 0,0.224301 -0.02332,0.387854 -0.0187,0.158881 -0.05609,0.308415 H 32.827145 V 41.06553 q 0,-0.485986 -0.116825,-0.757017 -0.112151,-0.275704 -0.373836,-0.275704 -0.14486,0 -0.252347,0.07009 -0.107477,0.06542 -0.182244,0.228975 -0.07006,0.163553 -0.107476,0.439256 -0.03267,0.275704 -0.03267,0.691596 v 1.827122 q 0,0.420566 0.02805,0.714961 0.02804,0.294396 0.09811,0.481314 0.07006,0.182244 0.186918,0.266358 0.116825,0.08411 0.28972,0.08411 0.08876,0 0.172896,-0.04206 0.08414,-0.04673 0.14486,-0.149534 0.06544,-0.102804 0.102834,-0.271031 0.04201,-0.172899 0.04201,-0.425238 v -0.200935 h 1.018696 v 0.247666 q 0,0.915898 -0.406546,1.336463 -0.401871,0.415892 -1.205624,0.415892 z" />
      <path
         id="path5521"
         style="font-style:normal;font-variant:normal;font-weight:normal;font-stretch:normal;font-size:9.11103px;line-height:1.25;font-family:FjallaOne;-inkscape-font-specification:FjallaOne;text-align:start;letter-spacing:0px;word-spacing:0px;text-anchor:start;fill:#000000;fill-opacity:1;stroke:none;stroke-width:0.0406179px;stroke-linecap:butt;stroke-linejoin:miter;stroke-opacity:1"
         d="m 36.359889,45.74782 q -0.415894,0 -0.738334,-0.154207 -0.317755,-0.154207 -0.537383,-0.481314 -0.219627,-0.327106 -0.331778,-0.836457 -0.112151,-0.514024 -0.112151,-1.233658 v -1.214966 q 0,-0.612156 0.08876,-1.04674 0.09349,-0.439257 0.238324,-0.733652 0.149535,-0.299069 0.341127,-0.471968 0.196267,-0.172899 0.401871,-0.261685 0.205605,-0.09346 0.406546,-0.116823 0.205615,-0.02804 0.37851,-0.02804 0.317756,0 0.61215,0.09813 0.294405,0.09346 0.518707,0.327106 0.224302,0.228974 0.355139,0.616829 0.135512,0.387854 0.135512,0.967299 0,0.196264 -0.01397,0.397201 -0.0095,0.200937 -0.02804,0.3972 -0.0187,0.191591 -0.05136,0.373836 -0.02804,0.182245 -0.06071,0.336452 h -2.13554 v 0.654213 q 0,0.420565 0.03267,0.710287 0.03267,0.28505 0.107476,0.462622 0.07941,0.172899 0.210279,0.252339 0.135522,0.07477 0.336453,0.07477 0.107487,0 0.210289,-0.04206 0.102834,-0.04673 0.17757,-0.149535 0.07941,-0.102804 0.126173,-0.271031 0.04674,-0.172899 0.04674,-0.425238 v -0.200936 h 0.985997 v 0.247666 q 0,0.915898 -0.439255,1.336463 -0.434591,0.415892 -1.261695,0.415892 z m 0.654208,-3.859853 q 0.0042,-0.0514 0.0095,-0.135516 0.0042,-0.08879 0.0042,-0.182245 0.0042,-0.09346 0.0042,-0.182245 0,-0.09346 0,-0.15888 0,-0.635521 -0.149534,-0.915897 -0.149524,-0.280377 -0.443929,-0.280377 -0.154199,0 -0.271024,0.07477 -0.116825,0.07009 -0.191592,0.242993 -0.07479,0.168226 -0.112151,0.448603 -0.03739,0.280377 -0.03739,0.696269 v 0.392528 z" />
      <path
         id="path5523"
         style="font-style:normal;font-variant:normal;font-weight:normal;font-stretch:normal;font-size:9.11103px;line-height:1.25;font-family:FjallaOne;-inkscape-font-specification:FjallaOne;text-align:start;letter-spacing:0px;word-spacing:0px;text-anchor:start;fill:#000000;fill-opacity:1;stroke:none;stroke-width:0.0406179px;stroke-linecap:butt;stroke-linejoin:miter;stroke-opacity:1"
         d="m 39.126266,39.243079 h 0.864497 l 0.102834,0.654212 q 0.196267,-0.364489 0.448604,-0.546734 0.257011,-0.182245 0.52337,-0.182245 0.509348,0 0.752347,0.313087 0.242988,0.313088 0.242988,0.939262 0,0.07944 -0.01397,0.191591 -0.0095,0.107478 -0.03267,0.228975 -0.0187,0.116823 -0.05136,0.23832 -0.02805,0.116823 -0.06071,0.214955 h -0.822439 v -0.598137 q 0,-0.196264 -0.02805,-0.322433 -0.02332,-0.12617 -0.06544,-0.200937 -0.04202,-0.07944 -0.09811,-0.107478 -0.05609,-0.03271 -0.121499,-0.03271 -0.140186,0 -0.261685,0.09346 -0.116826,0.08879 -0.196267,0.252339 v 5.299121 h -1.182253 z" />
      <path
         id="path5525"
         style="font-style:normal;font-variant:normal;font-weight:normal;font-stretch:normal;font-size:9.11103px;line-height:1.25;font-family:FjallaOne;-inkscape-font-specification:FjallaOne;text-align:start;letter-spacing:0px;word-spacing:0px;text-anchor:start;fill:#000000;fill-opacity:1;stroke:none;stroke-width:0.0406179px;stroke-linecap:butt;stroke-linejoin:miter;stroke-opacity:1"
         d="m 42.55621,44.331917 q 0,-0.210282 0.03739,-0.406546 0.04202,-0.196264 0.07941,-0.313087 h 0.831788 q 0,0.350471 0.03267,0.588791 0.03739,0.233647 0.116825,0.373836 0.07941,0.140188 0.210279,0.200936 0.135512,0.06075 0.327104,0.06075 0.26636,0 0.387859,-0.149534 0.121489,-0.149535 0.121489,-0.345798 0,-0.102805 -0.02805,-0.196264 -0.02804,-0.09346 -0.07941,-0.186918 -0.05136,-0.09813 -0.126163,-0.196264 -0.07479,-0.09813 -0.168231,-0.214955 L 43.434688,42.52816 q -0.168232,-0.210282 -0.327114,-0.425238 -0.154209,-0.219628 -0.275698,-0.448603 -0.116825,-0.233647 -0.191592,-0.485986 -0.07006,-0.252339 -0.07006,-0.532716 0,-0.373835 0.126163,-0.649539 0.130848,-0.275704 0.345801,-0.457949 0.219628,-0.182245 0.504674,-0.271031 0.285056,-0.08879 0.602812,-0.08879 0.350475,0 0.630847,0.08411 0.280382,0.08411 0.481313,0.252339 0.200941,0.168226 0.308417,0.420565 0.107477,0.247666 0.107477,0.579446 0,0.224301 -0.04202,0.434584 -0.03739,0.210282 -0.07479,0.359816 h -0.817766 q -0.0042,-0.31776 -0.02804,-0.55608 -0.02332,-0.23832 -0.08876,-0.392528 -0.06071,-0.15888 -0.172895,-0.23832 -0.107477,-0.07944 -0.285046,-0.07944 -0.154209,0 -0.257011,0.0514 -0.102834,0.04673 -0.168232,0.126169 -0.06071,0.07944 -0.08876,0.177572 -0.02332,0.09813 -0.02332,0.200937 0,0.224301 0.107477,0.415892 0.107476,0.191591 0.285056,0.415893 l 0.943929,1.107488 q 0.102833,0.126169 0.238324,0.308414 0.135512,0.177572 0.257011,0.397201 0.121499,0.214955 0.205615,0.471967 0.08414,0.257012 0.08414,0.537389 0,0.341125 -0.107477,0.621502 -0.107476,0.275704 -0.317755,0.471967 -0.210289,0.196264 -0.518696,0.303742 -0.303744,0.107478 -0.696277,0.107478 -0.322429,0 -0.607475,-0.07009 -0.285057,-0.07477 -0.495336,-0.238321 -0.210279,-0.168226 -0.331778,-0.439257 -0.1215,-0.27103 -0.1215,-0.668231 z" />
    </g>
  </g>
</svg>
